<svg width="22px" height="24px" viewBox="0 0 22 24" xmlns="http://www.w3.org/2000/svg"><path d="M20.7617798 10.5758057c-.4502564-.5062867-1.0861816-.78515626-1.7905884-.78515626h-1.9328613V6.3515625C17.0383301 2.84930419 14.1890259 0 10.6867676 0 7.18450927 0 4.33520508 2.84930419 4.33520508 6.3515625v3.43908694H2.40252684c-.70440675 0-1.34033203.27886956-1.79058834.78515626-.45025636.5064697-.65295413 1.1705932-.57055669 1.8700561l1.06622316 9.0633545C1.26928711 22.8825073 2.52575681 24 3.90875245 24H17.4649658c1.3828125 0 2.6394653-1.1174927 2.8011475-2.4907837l1.0662231-9.0635376c.0822144-.6994629-.1203002-1.3635864-.5705566-1.869873zm-14.7214966.6210937h9.2931518L16.6743164 22.59375H4.69940184L6.0402832 11.1968994zm7.3324585-1.40624996H8.00079347V6.3515625c0-1.48095703 1.20501708-2.68597411 2.68597413-2.68597411 1.4811401 0 2.6859741 1.20501708 2.6859741 2.68597411v3.43908694zM5.74145508 6.3515625c0-2.72680664 2.21850586-4.9453125 4.94531252-4.9453125 2.7269897 0 4.9453125 2.21850586 4.9453125 4.9453125v3.43908694h-.8530884V6.3515625c0-2.2564087-1.8358154-4.09222411-4.0922241-4.09222411-2.25640873 0-4.09222413 1.83581541-4.09222413 4.09222411v3.43908694h-.85308839V6.3515625zm-3.2371216 14.9932251l-1.06640625-9.0633545c-.03460692-.295166.04504397-.5690918.22485352-.7710571.1796265-.2021484.44238281-.3134766.73974609-.3134766h2.22180178L3.30120848 22.4425049c-.41894531-.2136841-.74194336-.6306153-.796875-1.0977173zM19.935791 12.2814331l-1.0662231 9.0633545c-.0551148.467102-.3782959.8840332-.7972412 1.0977173l-1.3229371-11.2456055h2.2218018c.2971802 0 .5599365.1113282.7397461.3134766.1796265.2019653.2594604.4758911.2248535.7710571z"/></svg>