<svg width="106px" height="22px" viewBox="0 0 106 22" xmlns="http://www.w3.org/2000/svg"><g fill-rule="nonzero" fill="none"><path d="M1.25 0h27.5C29.4375 0 30 .52941176 30 1.17647059V18.8235294C30 19.4705882 29.4375 20 28.75 20H1.25C.5625 20 0 19.4705882 0 18.8235294V1.17647059C0 .52941176.5625 0 1.25 0z" fill="#4361C3"/><path d="M18.59375 6.25c2.5 0 4.53125 2.03125 4.53125 4.53125s-2.03125 4.53125-4.53125 4.53125-4.53125-2.03125-4.53125-4.53125S16.09375 6.25 18.59375 6.25z" fill="#FFAF38"/><path fill="#FFAF38" d="M14.6875 8.4375h3.125v.625h-3.125z"/><path d="M11.40625 15.3125c-2.5 0-4.53125-2.03125-4.53125-4.53125S8.90625 6.25 11.40625 6.25s4.53125 2.03125 4.53125 4.53125-2.03125 4.53125-4.53125 4.53125z" fill="#EB3636"/><path d="M14.6875 12.8125v-.625H18.75v.625h-4.0625zm0-4.375H18.75v.625h-4.0625v-.625zm3.75 1.875H14.375v-.625h4.0625v.625zm0 1.25H14.375v-.625h4.0625v.625z" fill="#FFAF38"/><path d="M1.25 21.25h.5625L30 1.8125V1.25C30 .5625 29.4375 0 28.75 0H1.25C.5625 0 0 .5625 0 1.25V20c0 .6875.5625 1.25 1.25 1.25z" fill="#FFF" opacity=".05"/><g><path fill="#F9F9F9" d="M38 5.29411765h30v9.41176475H38z"/><path d="M39.25 0h27.5C67.4375 0 68 .52941176 68 1.17647059v4.11764706H38V1.17647059C38 .52941176 38.5625 0 39.25 0z" fill="#09599E"/><path d="M38 14.7058824h30v4.117647C68 19.4705882 67.4375 20 66.75 20h-27.5c-.6875 0-1.25-.5294118-1.25-1.1764706v-4.117647z" fill="#E59703"/><path d="M39.25 19.9705882c-.6875 0-1.25-.5294117-1.25-1.1764706V1.17647059C38 .52941176 38.5625 0 39.25 0h27.5C67.4375 0 68 .52941176 68 1.17647059" fill="#FFF" opacity=".05"/><path fill="#00589F" d="M49.59375 12.47058806L50.5 7.49999982h1.4375l-.90625 4.97058824zM56.25 7.64705865c-.28125-.0882353-.71875-.20588236-1.28125-.20588236-1.4375 0-2.4375.6764706-2.4375 1.64705883 0 .70588235.71875 1.11764706 1.25 1.35294117.5625.23529412.75.41176471.75.61764706 0 .32352941-.4375.5-.875.5-.5625 0-.875-.08823529-1.34375-.26470588l-.1875-.11764706-.1875 1.11764706c.34375.14705882.96875.26470588 1.59375.26470588 1.5 0 2.5-.67647059 2.5-1.70588235 0-.55882353-.375-1-1.21875-1.35294118-.5-.23529411-.8125-.38235294-.8125-.61764706 0-.20588235.25-.44117647.8125-.44117647.46875 0 .8125.0882353 1.0625.17647059l.125.05882353.25-1.02941176M59.9375 7.52941159h-1.125c-.34375 0-.59375.0882353-.75.4117647l-2.125 4.55882353h1.5s.25-.61764706.3125-.73529411h1.84375c.03125.17647058.1875.73529411.1875.73529411H61.125l-1.1875-4.97058823zm-1.78125 3.17647059c.125-.29411765.5625-1.38235294.5625-1.38235294s.125-.29411765.1875-.47058824L59 9.29411747s.28125 1.17647059.34375 1.44117647h-1.1875v-.02941176zM48.375 7.52941159l-1.40625 3.38235294-.15625-.67647059c-.25-.79411765-1.09375-1.64705882-2-2.0882353l1.3125 4.32352942h1.53125l2.28125-4.97058824H48.375"/><path d="M45.65625 7.49999982h-2.3125l-.03125.11764706c1.8125.4117647 3 1.41176471 3.5 2.5882353l-.5-2.26470589c-.0625-.3235294-.34375-.4117647-.65625-.44117647" fill="#F9A51A"/></g><g><path d="M77.25 0h27.5c.6875 0 1.25.52941176 1.25 1.17647059V18.8235294C106 19.4705882 105.4375 20 104.75 20h-27.5c-.6875 0-1.25-.5294118-1.25-1.1764706V1.17647059C76 .52941176 76.5625 0 77.25 0z" fill="#2AA0D0"/><path d="M96.625 7.64705882h-3.75c-.15625 0-.3125.11764706-.3125.26470589 0-.14705883-.15625-.26470589-.3125-.26470589h-1.8125c-.125 0-.25.05882353-.28125.17647059l-1 2.35294119-1.25-2.38235295c-.0625-.0882353-.15625-.17647059-.28125-.17647059H86c-.1875 0-.3125.11764706-.3125.29411765v2.76470589l-1.375-2.88235295c-.0625-.11764706-.15625-.17647059-.28125-.17647059H82.375c-.125 0-.21875.05882353-.28125.17647059L79.9375 12.2058824c-.03125.0882352-.03125.2058823.03125.2941176.0625.0882353.15625.1470588.25.1470588h1.34375c.125 0 .25-.0588235.28125-.1764706l.46875-1h1.71875l.4375 1c.0625.1176471.15625.1764706.28125.1764706h2.5c.1875 0 .3125-.117647.3125-.2941176v-1.6764706l.78125 1.7941176c.0625.1176471.15625.1764706.28125.1764706h.96875c.125 0 .25-.0588235.28125-.1764706l.8125-1.8235294v1.7058824c0 .1764706.125.2941176.3125.2941176h1.25c.15625 0 .3125-.117647.3125-.2647059 0 .1470589.15625.2647059.3125.2647059h3.75c.1875 0 .3125-.117647.3125-.2941176v-.882353c0-.1764706-.125-.2941176-.3125-.2941176h-2.1875v-.2941177h2.125c.1875 0 .3125-.117647.3125-.2941176v-.88235295c0-.17647059-.125-.29411764-.3125-.29411764h-2.125v-.29411765h2.1875c.1875 0 .3125-.11764706.3125-.29411765v-.88235294c0-.14705882-.15625-.29411765-.3125-.29411765zM82.90625 10l.28125-.58823529L83.46875 10h-.5625zM101.84375 11.4411765l-1.25-1.2647059 1.25-1.26470589c.0625-.05882353.09375-.11764706.09375-.20588236v-.76470588c0-.08823529-.03125-.14705882-.09375-.20588235-.0625-.05882353-.125-.0882353-.21875-.0882353h-.84375c-.09375 0-.1875.02941177-.25.0882353L99.4375 8.97058824l-1.125-1.20588236c-.0625-.08823529-.125-.11764706-.21875-.11764706H97.25c-.1875 0-.3125.11764706-.3125.29411765v4.41176473c0 .1764706.125.2941176.3125.2941176H98c.09375 0 .15625-.0294117.21875-.0882353l1.1875-1.1764706 1.1875 1.1764706c.0625.0588236.15625.0882353.21875.0882353h.8125c.09375 0 .15625-.0294117.21875-.0882353.0625-.0588235.09375-.117647.09375-.2058823v-.7058824c0-.0882353-.03125-.1470588-.09375-.2058823zm-4.28125-.5588236V9.44117647l.71875.70588233-.71875.7352941z" fill="#2AA0D0"/><path fill="#FFF" d="M82.4375 10.2941176h1.5l-.75-1.58823525zM97.25 11.6470588l1.46875-1.4705882L97.25 8.70588235z"/><path d="M102.09375 11.2352941l-1.0625-1.0588235 1.0625-1.05882354C102.1875 9 102.25 8.85294118 102.25 8.70588235v-.76470588c0-.14705882-.0625-.29411765-.1875-.41176471-.125-.11764705-.28125-.17647058-.4375-.17647058h-.84375c-.1875 0-.34375.05882353-.46875.20588235L99.4375 8.5l-.875-.94117647c-.125-.11764706-.28125-.20588235-.46875-.20588235H97.25c-.125 0-.21875.02941176-.3125.08823529-.09375-.05882353-.1875-.08823529-.3125-.08823529h-3.75c-.125 0-.21875.02941176-.3125.08823529-.09375-.05882353-.1875-.08823529-.3125-.08823529h-1.8125c-.25 0-.5.14705882-.59375.38235294L89.09375 9.5l-.9375-1.79411765c-.09375-.20588235-.3125-.32352941-.5625-.32352941H86c-.34375 0-.625.26470588-.625.5882353v1.38235294l-.78125-1.61764706c-.09375-.20588236-.3125-.35294118-.5625-.35294118H82.375c-.25 0-.46875.14705882-.5625.35294118l-2.15625 4.41176468c-.09375.1764706-.0625.382353.03125.5588236.125.1764705.3125.2647058.53125.2647058h1.34375c.25 0 .46875-.1470588.5625-.3529411l.375-.8235295h1.3125l.34375.8235295C84.25 12.8529412 84.46875 13 84.75 13h2.5c.34375 0 .625-.2647059.625-.5882353v-.2058823l.1875.4411764C88.15625 12.8529412 88.375 13 88.625 13h.96875c.25 0 .46875-.1470588.59375-.3529412l.1875-.4411764v.1470588c0 .3235294.28125.5882353.625.5882353h1.25c.125 0 .21875-.0294118.3125-.0882353.09375.0588235.1875.0882353.3125.0882353h3.75c.125 0 .21875-.0294118.3125-.0882353.09375.0588235.1875.0882353.3125.0882353H98c.15625 0 .34375-.0588236.46875-.1764706l.96875-.9705883.96875.9705883c.125.117647.28125.1764706.46875.1764706h.75c.15625 0 .3125-.0588236.4375-.1764706.125-.1176471.1875-.2647059.1875-.4117647v-.7058824c0-.1470588-.0625-.2941176-.15625-.4117647zM92.25 12.3529412H91V9.14705882l-1.40625 3.20588238H88.625L87.25 9.17647059v3.17647061h-2.5l-.5-1.1764706h-2.125l-.53125 1.1764706H80.25l2.15625-4.41176473h1.65625l1.96875 4.11764703V7.94117647H87.625l1.5625 2.97058823 1.25-2.97058823H92.25v4.41176473zm4.375-3.52941179h-2.5v.88235294h2.4375v.88235295H94.125v.8823529h2.5v.882353h-3.75V7.94117647h3.75v.88235294zm4.25 3.52941179l-1.4375-1.4117647L98 12.3529412h-.75V7.94117647h.84375l1.34375 1.47058824 1.34375-1.47058824h.84375v.76470588l-1.46875 1.47058825 1.46875 1.4705882v.7058824h-.75z" fill="#FFF"/><path d="M77.25 20h.5625L106 1.70588235v-.52941176C106 .52941176 105.4375 0 104.75 0h-27.5C76.5625 0 76 .52941176 76 1.17647059V18.8235294C76 19.4705882 76.5625 20 77.25 20z" fill="#FFF" opacity=".05"/></g></g></svg>