<svg width="175px" height="265px" viewBox="0 0 175 265" xmlns="http://www.w3.org/2000/svg"><g fill="none" fill-rule="evenodd"><path d="M14.103492 178.12027152c1.3254212 3.87497017 4.78508605 6.61817022 8.85459733 7.04435039 21.26650531 2.22720276 27.0498176 9.85695554 27.0498176 9.85695554 3.34174797 3.6231033 18.65365903 52.55616339 18.65365903 52.55616339 13.15511178 27.35927987 53.3432879 14.5439158 56.43196072 13.51179145 3.1625294-.77742227 43.981658-11.413279 40.48675444-41.56914409 0 0-13.19640777-49.54542999-12.30685489-54.39347711 0 0 .81296191-9.53930518 17.60085646-22.78304714 3.21251905-2.53425188 4.67175711-6.7014423 3.72208096-10.68533013l-9.20158914-38.60231553c-.9066735-3.80403269-3.2978774-7.08305743-6.64089217-9.10823669-4.82410734-2.92263576-15.3845983-8.05717365-30.70695796-13.19014786-1.04201727-.34899946-1.8263715-1.2166746-2.0712374-2.28888492-1.8770392-8.21878757-10.11035619-43.17202613-15.93439557-50.206722 0 0-18.65114283-28.39964548-59.11332112-13.36873628C8.69350733 13.80267704 8.09808964 47.7741979 8.09808964 47.7741979 6.93282656 56.83220394 18.6449152 90.77839954 21.44871711 98.7288563c.36574925 1.0371948.16630128 2.18967432-.5282311 3.04144067-10.21063315 12.52461684-16.39506907 22.50664557-18.91187642 27.55435437-1.7441219 3.49799869-2.01376633 7.5472967-.74824118 11.24737235l12.84312358 37.54824782z" fill="#E6ECF0"/><path d="M59.63502217 14.92244053c15.70799103-4.54733319 32.28441697 4.5979124 36.83652685 20.32272172l48.89336285 168.89597477c4.55210977 15.72480893-4.57535976 32.31105556-20.28332025 36.85849744l-10.57778044 3.06216345c-15.70799154 4.54733323-32.2843858-4.5978044-36.8366038-20.3225823L28.77395283 54.8432101c-4.55221811-15.72477828 4.5753285-32.31116425 20.28332004-36.85849748l10.57774929-3.06227208z" fill="#FFF"/><path d="M55.33308656 104.4652458c18.40343116 26.30443043 22.39832924 75.28594301 22.39832924 75.28594301 3.1207477 29.07911703 27.45614012 22.05098178 29.98627278 21.23884698 2.5725508-.665024 26.89900458-7.72433306 14.00283798-33.97335853 0 0-22.78917434-43.54073758-21.28380115-75.60870233 0 0-2.39351533-40.0115564-33.3086191-31.44853231l-.00239813-.00836327c-.07436791.02155976-.14377101.0456924-.21758035.06756212-.07408964.0208922-.14550204.03760796-.21986995.05916773l.002367.00825473c-30.7086217 9.2765602-11.35753832 44.37918188-11.35753832 44.37918188" fill="#EBF1F5"/></g></svg>