<svg width="782px" height="436px" viewBox="0 0 782 436" xmlns="http://www.w3.org/2000/svg" xmlns:xlink="http://www.w3.org/1999/xlink"><defs><path d="M439.160407 344.526682c-23.641297 276.701675 151.151211 425.014165 242.67254 468.642664 281.602995 134.241012 123.419689 309.538164 375.973073 322.293384 63.26795 3.19536 170.42997-102.67785 185.5207-109.05296 24.95391-10.54315 10.88822-62.859793 44.12739-141.210504 33.23916-78.350712 42.60349-72.827411 106.70782-72.827411 0 0 61.72954-23.742855 61.72954-73.602615 0-49.86055 176.66753-505.722904-86.17224-555.583455-246.95297-46.846301-301.18-29.747513-645.423878-90.4482282-99.755861-17.5900072-261.493648-24.9125499-285.134945 251.7891252z" id="a"/></defs><g transform="translate(-482 -681)" fill="none" fill-rule="evenodd"><mask fill="#fff"><use xlink:href="#a"/></mask><use fill="#BE0611" transform="rotate(-10 975.484268 610.533614)" xlink:href="#a"/></g></svg>