<svg width="138px" height="95px" viewBox="0 0 138 95" xmlns="http://www.w3.org/2000/svg"><path d="M138 57v14.250062c0 1.4835231-.731179 2.8717287-1.954555 3.7108903l-28 19.2062999c-2.049468 1.4058107-4.850525.8840233-6.256335-1.1654449-.514007-.7493472-.78911-1.6367519-.78911-2.5454455V66.749938c0-1.4835231.731179-2.8717287 1.954555-3.7108903L111.75861 57H78.5c-2.485281 0-4.5-2.0147186-4.5-4.5v-48C74 2.01471863 76.014719 0 78.5 0h55c2.485281 0 4.5 2.01471863 4.5 4.5V57zm-75 0v14.250062c0 1.4835231-.731179 2.8717287-1.954555 3.7108903l-28 19.2062999c-2.049468 1.4058107-4.850525.8840233-6.256335-1.1654449C26.275103 92.2524601 26 91.3650554 26 90.4563618V66.749938c0-1.4835231.731179-2.8717287 1.954555-3.7108903L36.75861 57H4.5C2.014719 57 0 54.9852814 0 52.5v-48C0 2.01471863 2.014719 0 4.5 0h55C61.985281 0 64 2.01471863 64 4.5V57h-1z" fill="#FF2E3B" fill-rule="evenodd" fill-opacity=".13" opacity=".80873326"/></svg>