<svg width="292px" height="292px" viewBox="0 0 292 292" xmlns="http://www.w3.org/2000/svg" xmlns:xlink="http://www.w3.org/1999/xlink"><defs><circle id="a" cx="146" cy="146" r="146"/><linearGradient x1="13.9105362%" y1="4.81820332%" x2="93.2772236%" y2="32.1694292%" id="b"><stop stop-color="#E21D29" offset="0%"/><stop stop-color="#E21D29" offset="20.1703648%"/><stop stop-color="#C30A15" offset="77.1773496%"/><stop stop-color="#EE3F4A" offset="100%"/></linearGradient><radialGradient cx="100%" cy="-16.1534288%" fx="100%" fy="-16.1534288%" r="94.2891788%" gradientTransform="matrix(-.66211 .5735 -.7494 -.5067 1.54106064 -.81688058)" id="d"><stop stop-color="#FF2E3B" offset="0%"/><stop stop-color="#A01019" offset="22.6956949%"/><stop stop-color="#FF2E3B" stop-opacity=".5" offset="68.133274%"/><stop stop-color="#FF2E3B" stop-opacity=".1" offset="100%"/></radialGradient><path id="e" d="M0 .00323328h21.4941144V40.1989001H0z"/><path id="g" d="M.06337314.02924294H27.2928291V35.6745935H.06337314z"/></defs><g fill="none" fill-rule="evenodd"><g><mask id="c" fill="#fff"><use xlink:href="#a"/></mask><use fill="#BE0611" xlink:href="#a"/><path d="M194.331034 304.188451c0-51.192697-5.238364-85.700926-62.675438-85.700926-72.7184032 0-79.1119305 40.631267-135.79678486 16.587276C-58.1352875 212.172147-36.2635259 139.78413-116.684709 126.089647c-4.00773-.682454-8.269499-1.219146-12.807358-1.596686-63.731251-5.302313-95.06897-28.3401967-94.013158-69.1136507V336.029326h404.778876c8.704922 12.901214 13.057383 2.287589 13.057383-31.840875z" fill="url(#b)" opacity=".5" mask="url(#c)"/><path d="M292 106.836727c0-51.1926968-5.238364-85.7009264-62.675439-85.7009264-72.718403 0-79.11193 40.631267-135.7967843 16.5872761-56.6848544-24.043991-29.7540018-102.628371-125.350878-110.5818403C-95.554352-78.1610765-126.892072-101.19896-125.83626-141.972414v280.650015h404.778877C287.647539 151.578816 292 140.965191 292 106.836727z" fill="url(#b)" mask="url(#c)" transform="rotate(-180 83.068966 1.006897)"/><rect fill="url(#d)" opacity=".44508929" mask="url(#c)" x="-6.04137931" y="-9.06206897" width="239.641379" height="313.144828" rx="5"/></g><g fill-rule="nonzero"><path fill="#8C8A8A" d="M51.10399274 73.2963138V222.975498l38.44264976 6.643905V63.3130636z"/><path fill="#B2B2B2" d="M51.10399274 73.2963138V222.975498l38.44264976-36.83715v-79.3442293z"/><path fill="#E0E0E0" d="M56.65027223 101.4024678v93.3625212l32.89637027 34.854414V63.3130636z"/><path fill="#FFF" d="M89.5466425 63.3130636L242 83.2795641V214.314072L89.5466425 229.619403z"/><path fill="#FFF" opacity=".51" d="M98.9753176 71.34836257l46.3114338 3.40891473v22.3318699l-46.3114338-1.1826847z"/><g fill="#FFF"><path d="M103.27368397 76.35738038l.0693285 2.19144517 17.22813063 1.07833017-.0693285-2.01752096zM103.4470052 82.02730996l17.2281307 1.07833016-.0693285-2.01752095-17.22813069-1.25225439zM103.55099795 85.5405792l17.22813065 1.0435453-.0693285-2.01752093-17.22813064-1.25225438z"/></g></g><g transform="translate(119.846565 128.104131)"><mask id="f" fill="#fff"><use xlink:href="#e"/></mask><path d="M5.88938966 18.9685942V7.23406232l2.62232758-.2267522c2.40739036-.20817287 4.13354006.08690057 5.18007346.88234897 1.0458373.7924926 1.5690653 2.21093951 1.5690653 4.25702971 0 2.0469348-.5091515 3.5817558-1.5260624 4.6068278-1.017607 1.0290411-2.6726781 1.6659741-4.9652135 1.9092788l-2.88019044.3057988zm15.30385894-7.5987744c0-8.13698371-4.0127297-11.90520835-12.03671953-11.30467394L0 .7503851v39.4485488l5.88938966-.8269488v-14.958889l8.33970554 13.787716 7.2650192-1.0200893-8.5975684-13.0533261c5.5305936-2.2984312 8.2967026-6.5429621 8.2967026-12.7575769z" fill="#000" mask="url(#f)"/></g><path fill="#000" d="M146.2347225 164.772683l17.5921052-2.4253841v-6.5833076l-11.5212874 1.4568886v-8.8163772l11.0338425-1.2300431v-6.5888634l-11.0338425 1.1040558v-8.9190304l11.5212874-.9780685v-6.58330755l-17.5921052 1.29269487zM175.8818024 154.5739791l-1.2877587.1646735v-23.0102548l1.1589442-.0994571c4.2923487-.36844339 7.4398086.2797859 9.4431517 1.9331346 2.0026482 1.6403725 3.0046673 4.3998885 3.0046673 8.288092 0 7.4323255-4.106618 11.6737356-12.3190045 12.7238118m.0857991-29.26692707l-7.2540778.53897713v36.03176814l7.382815-1.0292303c12.0186691-1.6754504 18.0280037-8.2191083 18.0280037-19.6321457 0-11.5053786-6.0521955-16.80875283-18.1567409-15.90936927"/><g transform="translate(191.192325 121.349398)"><mask id="h" fill="#fff"><use xlink:href="#g"/></mask><path fill="#000" mask="url(#h)" d="M20.8241918.50851263L13.6999621 16.7799137 6.53201047 1.5674641l-6.46863733.47927819L10.6841742 22.9611402v12.7134533l5.9878538-.8324887V22.2723159L27.2928291.02923444z"/></g><path d="M220.5125 146.4665171c-2.1590996.2539618-3.9093565 2.1867015-3.9093565 4.3169396 0 2.1302382 1.7502569 3.6254075 3.9093565 3.3396388 2.1591-.2857686 3.909357-2.2185084 3.909357-4.3169397 0-2.0984313-1.750257-3.5936005-3.909357-3.3396387" fill="#BE0611"/></g></svg>