<svg width="99px" height="72px" viewBox="0 0 99 72" xmlns="http://www.w3.org/2000/svg"><g transform="translate(0 -9)" fill="none" fill-rule="evenodd"><circle fill="#BE0611" cx="55" cy="41" r="30"/><path d="M4.11425009 74.52976452c.0290203.01267161.05804046.02534323.08713889.03809042.01961064-.22954034.35551321-.32714326.18086728-.63799726-.08928448.19996834-.17872162.39993843-.26800617.59990684zm.11936076.75933981c-.23193334.62311562-.47403288 1.24267417-.68763709 1.8721616-.04609823.13584244.01077678.30777579.0201311.46303407.43958267-.71936354.95064087-1.39787548.66750599-2.33519567zm19.8255156-18.03430718c-.95840423-.2037862-1.8179995-.6523018-2.64299272-1.15683676-.59942464-.3666005-1.15445966-.80749322-1.72162477-1.22596577-.1351414-.09964973-.24363436-.12094824-.39179981-.04357466-.43597949.2275265-.8721291.43238113-1.39341725.43666714-.20506389.0017085-.4199893.16292444-.60578775.28787537-.27220104.182968-.53947223.38023633-.77767928.60452819-.35421387.33346597-.70048146.6796735-1.0104939 1.05343938-.1329386.16019705-.1964327.3969955-.23889273.6101345-.09062655.45534856-.31272373.83009412-.60993156 1.17150817-.0572704.06587796-.10986414.14506648-.13611097.22748842-.22536098.7080154-.49415716 1.39465578-.89182582 2.02585884-.06756917.1070591-.09107817.24861754-.11128704.37830812-.08656118.5533294-.24021889 1.0700362-.64106104 1.4893458-.17052543.17830566-.24682574.4034826-.2846334.66970693-.05018303.35384365-.18082236.70884271-.34401485 1.028381-.29571138.57851828-.6332455 1.1360262-.96842616 1.69297475-.24982036.41534737-.5348123.8068658-.99079273 1.02521352-.36230938.17346102-.50387895.53743134-.73704314.8245762-.27913557.34351336-.5555607.7011215-.89226199.98233677-.36304566.30317492-.47108753.72381884-.64946986 1.11573768-.02378007.05201155.03227346.19334024.08732715.2214634.32738409.16724307.41015165.4931149.51682486.78781532.11216542.31014-.32384256.73722635-.64436767.6572467-.37123361-.09272758-.68810955-.24237024-.75613569-.68413313-.00688707-.04451132-.17586617-.11006024-.25320258-.09366922-.4740432.10058922-.81417096.3916126-1.08084869.78576219-.10886317.16108783-.2451934.3042963-.3751967.45018636-.18196302.20407764-.19978101.48215287-.31538039.70843206-.31561786.61712894-.36504585 1.29053466-.46664238 1.9539562-.04150954.27099676-.00658546.5575231-.06980907.82111492-.07208854.30094066-.23256418.57838555-.32282915.8760828-.2041475.67290275-.39151883 1.35112498-.57735955 2.02948365-.02209458.0804695.01559093.17618664.01200422.26409484-.00505207.12181981.00172277.25267577-.04027405.36251837-.09424716.24704782-.20270476.49065774-.33172922.72066696-.05488858.09784038-.1948234.23726976-.26282213.22004775-.18056533-.0458828-.1276812-.19782879-.0621964-.32776867.0226552-.04489975.02705583-.09937854.0485809-.18442255-.1260499.09813414-.21451845.21556762-.32187757.234566-.07975686.01420265-.18377272-.0992123-.27701428-.15586582-.00788578-.03220957-.01561883-.06442081-.02350461-.09663038-.12938288.09923808-.25734699.20029347-.3887071.29672786-.05229014.03834199-.1121654.06622887-.16864093.09888952-.0375381-.06457095-.11058031-.13212593-.10626118-.19309291.01466388-.2037606.05817716-.4050013.0876028-.60777268.0072642-.04977573.00318154-.10141663-.05666696-.1633852-.03510613.15763667-.05572267.32076951-.11156713.47030395-.02631333.07028407-.12842563.16992117-.18239284.16133028-.2875399-.04559236-.5708479-.12123195-.91647633-.20041204-.05267031.27363386-.10927054.56776909-.16602343.86190592l-.13237086-.0234892c.05479622-.41214173.11893574-.82316076.16186376-1.23662765.03808065-.36478554.03541026-.7347897.08476702-1.09748047.02499692-.18394434.08065094-.39775715.19960822-.52688768.37628577-.40859124.62254603-.89802968.90974241-1.36209677.2735359-.44178343.5312491-.89362965.81107085-1.33128064.1039401-.16256272.28165727-.28071005.3708806-.4486903.14061886-.26502027.26127058-.54723567.34426968-.83600042.2924114-1.018293.84123479-1.85500401 1.64639352-2.54150912.33087703-.2820699.66437037-.53195077 1.0806082-.66704687.20637803-.06691897.27832576-.23250276.27152462-.43657095-.009638-.29236658.13618269-.47231983.42987559-.44687062.34809985.03014205.63967001-.01904937.83478045-.33548952.01755981-.02835591.05432001-.04592135.08431744-.0652476.28110493-.18107716.51385506-.37859156.5922105-.74517663.09213733-.43093492.40442916-.73616919.78472992-.92966945.34160788-.1737767.50122511-.48961286.71582841-.76442319.24155908-.30929658.45078057-.64520046.70663529-.94128814.12825697-.14861988.322217-.24571561.49799682-.34620734.24092493-.13774814.35938712-.34680423.36911235-.61227379.01744766-.46892776.26576203-.85517274.47763704-1.23263501.25300237-.4508803.41064952-.91350234.54167194-1.40958654.09914306-.37527878.33552004-.7186458.54317753-1.05606.12751882-.2071668.23010088-.39414484.25494516-.6533613.02717283-.28275467.13656003-.57286701.27555816-.82290702.1664984-.2998005.41447851-.55236604.60222899-.84177951.08898346-.13705895.14156682-.30762942.17325468-.47080292.10151139-.52264494.3197987-.9691887.69211013-1.35911032.15815752-.1656548.2359343-.42741546.29999057-.65994462.25143884-.91342348.86523176-1.47468984 1.74735334-1.70364722.48723481-.12645611.92617967-.3011849 1.33563588-.57996243.13708743-.0932885.30072526-.15616776.46110391-.2055.1336998-.04111069.16930721-.09347618.12763172-.23075785-.18139456-.59744918-.08053544-.88342526.4206195-1.23478098l4.84836953 4.68201603z" fill="#C4D1D9"/><path d="M37.2797439 27.34164063s3.97649545-4.02410155 6.2291597-4.40931206c0 0 3.1760463-.46341358 5.6860327 1.2910468.13951728.09737531.27688824.20174039.41144945.31333872.06604783.05449816.13107503.1107184.19519223.16865702.00703453.00613007.01368206.01238373.02088305.01884032.08743828.07946487.1734994.16257312.25796157.24900008.02639881.02648769.05224553.05365793.0782588.08121004.56918903.60281844 1.06337774 1.3688335 1.42189646 2.34008349 0 0 1.59912156 3.87728102-3.10069969 8.55279263L26.2339609 58.55280199s-1.14359987 1.13284692-2.16588968.28781406c0 0-.4325441-.29066303-1.0815026-.77335041-.08938117-.06620026-.18272376-.13650224-.2797501-.21019573-.71050075-.53885784-1.61081967-1.2586449-2.47829671-2.05872643-.04237674-.03909926-.0848924-.07855357-.12688216-.1177764-.042184-.03963144-.08434032-.07923613-.12627624-.11940163-.81333481-.77161369-1.5777865-1.60582064-2.1027996-2.41630137-.05001403-.07692201-.09737292-.1538219-.14271156-.22993136-.0151129-.02536979-.02983887-.05091852-.04442594-.07611222-.07950894-.13784189-.15118931-.27464422-.21401701-.41002626 0 0-1.15939517-1.84090823.4900051-3.39575366l19.3183295-21.69139995z" fill="#FFF"/><path d="M22.88333293 57.80136621l19.675265-19.89379467c.5811122-.58614112 1.17141886-1.15553133 1.75512754-1.69231906 3.08602316-2.83823684 4.42378053-5.67774717 5.00238502-7.55977756.34699449-1.12952379.4695457-2.51129603.51246176-3.34462346.01109734-.2154765.0169528-.39428847.0195432-.5222512.00063335-.01315041.00066191-.02561878.00105538-.03734942.0070474.00614502.01376361.01246565.02100721.01896528.0879611.0799887.17456144.16361769.25957733.25056081.02656921.02664846.05258902.05397742.07877751.08168948-.01380236.76285087-.10720896 2.18383243-.5499005 3.6309967-.37569595 1.22891343-.9324397 2.4445575-1.654557 3.61313079-.901196 1.45809897-2.06351988 2.84629432-3.4549049 4.12613655-.57947071.53267818-1.165926 1.09813588-1.74318675 1.68034457L23.16453397 58.01319163c-.08983996-.0667199-.1836675-.13756582-.28120104-.21182542" fill="#C4D1D9"/><path d="M49.86847926 24.76492627l.531623.51338237-29.81367942 30.87296881-.531623-.51338237z"/><path d="M20.24671937 55.82323296l22.08550817-22.97580848c.35500358-.3515593.68993622-.72145101.99579994-1.09990788 2.57748344-3.1918359 5.88156603-6.01571114 6.74888246-6.737723.00782423-.00598264.01543797-.01238958.02247633-.01813647.10098261.09248922.20067661.18881785.29889909.28853297-.11289264.11118723-.25563326.25013563-.29222288.2796753-.00394198.00299011-.00761374.00640695-.0116945.00992615-.72800902.59162868-3.85437411 3.205009-6.46056668 6.43222639-.31283085.3879196-.65515516.76835601-1.0186486 1.12812874L20.53909417 56.09783976c-.04895864-.0454552-.0973022-.0906481-.14626078-.13610337-.04876012-.04598193-.09752025-.09196386-.14611402-.13850343M17.90887531 52.8855677l20.02783833-21.22049713c.97111807-.9554098 1.91551378-2.02374249 2.80628405-3.17495846 1.14643338-1.48172675 2.48763785-2.57367159 3.99818643-3.25776763.3474256-.15737077.70394717-.2930003 1.06894059-.40716049 1.55862352-.48631766 2.84284464-.4272641 3.32614966-.4047862.03109988.00125093.1555885-.00617554.28814805-.015016.14367937.1015316.28539005.21009439.42437917.3260089-.20075626.02006616-.56183154.05023086-.71962891.04297008-4.03211779-.1859821-6.63142754 2.03724336-8.09888352 3.93374707-.90066707 1.16398938-1.85757711 2.24499412-2.84047447 3.2118557L18.10601191 53.19950389c-.0522846-.07910704-.10261978-.1577652-.15052365-.23578484-.01584712-.02605518-.03130395-.05228495-.04661295-.07815134" fill="#C4D1D9"/><g><path d="M54.57149476 27.89673233c-.58693932.74786259-.68495657 1.76705384-.25542723 2.61146686 2.24462741 4.41275289 1.48857526 6.5017295 1.48857526 6.5017295-.28404242 1.10764554-7.8754018 10.27475037-7.8754018 10.27475037-3.66597484 6.01782861 3.88768298 12.20223986 4.47740295 12.6715714.54947034.51591207 7.75857624 7.09871563 13.18502703 2.60339087 0 0 7.97687737-8.83368206 9.03203215-9.27445065 0 0 1.95814946-1.04936162 6.64854769.5354798.89753926.30328189 1.89197525.0593388 2.54741812-.62932212l6.35103251-6.67277667c.62586828-.657546.96266736-1.5370083.93568948-2.44267016-.03888774-1.30693445-.36980457-4.00805847-1.3006471-7.63394732-.06331772-.24657373.00671318-.50874066.18446746-.69200109 1.3625268-1.40475504 7.12559265-7.42763185 7.76075404-9.44921029 0 0 3.17630005-7.21706396-4.84287372-13.17430372-7.05141991-7.07624685-13.73522887-2.89253954-13.73522887-2.89253954-1.90887964.92001704-7.0379832 7.4911737-8.23160948 9.04198719-.15572068.20230967-.40503923.30942347-.65819873.2823128-3.72228124-.39826142-6.44294199-.33624425-7.74184515-.18629074-.90012438.10391477-1.72183043.5640086-2.28228792 1.2781025l-5.68742669 7.24672101z" fill="#E6ECF0"/><path d="M92.05345997 16.08697085c2.86261253 2.47567617 3.1708197 6.85294371.68491715 9.72726033l-26.7003683 30.8723384c-2.48590255 2.87431661-6.8619413 3.20048401-9.72457096.7248277l-1.92768354-1.66712537c-2.86261255-2.47567615-3.17083694-6.85292388-.6849541-9.72725762L80.40118825 15.144693c2.48588285-2.87433374 6.86195852-3.20050383 9.72457097-.72482773l1.92770076 1.66710558z" fill="#FFF"/><path d="M74.0920614 26.58369427c-2.79988824 6.90378164-11.8257278 13.878761-11.8257278 13.878761-5.26409403 4.28637648-.83249074 8.12390502-.35589982 8.51258509.45331325.41553752 4.88985528 4.24738468 8.3724478-1.57963402 0 0 5.60078722-9.9370747 12.02886032-13.70311898 0 0 7.48246927-5.52870242 1.92374158-10.45004565l.00132505-.00152429c-.01355877-.01171689-.0269928-.02214385-.0405416-.03371307-.01339382-.01174735-.02563809-.02350321-.03919678-.03522018l-.00130786.00150452c-5.67153877-4.7909318-10.06370089 3.41040558-10.06370089 3.41040558" fill="#EBF1F5"/></g></g></svg>