<svg width="142px" height="143px" viewBox="0 0 142 143" xmlns="http://www.w3.org/2000/svg"><style>#circle{animation:circle 12s linear infinite;transform-origin:center;}@keyframes circle{0%{transform:rotate(0deg);}50%{transform:rotate(180deg);}100%{transform:rotate(360deg);}}</style><g fill="#000"><path d="M57.51786419 42.25914656c0 .51051829-.05995893.96097561-.1798768 1.35137195-.11991786.39039634-.29979466.7507622-.53963039 1.02103659-.23983573.27027439-.53963039.51051829-.89938398.66067073-.35975359.15015244-.77946612.2402439-1.25913758.2402439-.20985626 0-.44969199 0-.65954825-.03003049-.20985627-.03003048-.449692-.06006097-.65954826-.12012195l.0899384-.99100609c0-.09009147.02997947-.15015244.0899384-.21021342.05995893-.06006098.14989733-.09009146.2698152-.09009146.05995893 0 .14989732 0 .26981519.03003048.11991786.03003049.26981519.03003049.41971252.03003049.23983573 0 .449692-.03003049.62956879-.09009146.1798768-.06006098.32977413-.18018293.449692-.33033537.11991786-.15015244.20985626-.33033536.26981519-.57057926.05995893-.24024391.0899384-.5105183.0899384-.87088415v-5.76585366h1.64887064v5.73582317h-.02997947zM70.2891168 40.96783559c0 .66067073-.1199179 1.26128048-.3297742 1.80182926-.2098562.57057927-.5096509 1.05106708-.9293634 1.44146342-.3897331.42042683-.8694045.72073171-1.4090349.96097561-.5396304.2402439-1.1691992.33033536-1.8287475.33033536-.6595482 0-1.289117-.12012195-1.8287474-.33033536-.5696099-.2402439-1.01930184-.54054878-1.43901437-.96097561-.38973306-.42042683-.68952772-.90091464-.92936345-1.44146342-.23983573-.54054878-.32977413-1.17118902-.32977413-1.80182926 0-.63064025.11991787-1.26128049.32977413-1.80182927.20985626-.57057927.50965093-1.05106708.92936345-1.44146342.41971253-.39039634.86940447-.7207317 1.43901437-.9609756.5696099-.24024391 1.1691992-.33033537 1.8287474-.33033537.6595483 0 1.2891171.12012195 1.8287475.33033536.5396304.2402439 1.0193018.54054878 1.4090349.96097561.389733.39039634.6895277.87088415.9293634 1.44146342.2398358.54054878.3297742 1.14115853.3297742 1.80182927zm-1.6788501 0c0-.48048781-.059959-.93094513-.1798768-1.32134147-.1199179-.39039634-.2997947-.72073171-.5696099-.9910061-.2398357-.27027439-.5396304-.4804878-.8694045-.63064024-.3597536-.15015244-.7494867-.21021341-1.1691992-.21021341-.4197125 0-.839425.06006097-1.1691992.21021341-.3597536.15015244-.6295688.36036585-.899384.63064024-.2398357.27027439-.4197125.60060976-.56960981.9910061-.11991787.39039634-.20985627.84085366-.20985627 1.32134147 0 .4804878.05995893.93094512.20985627 1.32134146.11991781.39039634.32977411.72073171.56960981.9910061.2398358.27027439.5396304.4804878.899384.63064024.3597536.15015244.7494867.21021341 1.1691992.21021341.4197125 0 .8394251-.06006097 1.1691992-.21021341.3597536-.15015244.6295688-.36036585.8694045-.63064024.2398357-.27027439.4197125-.60060976.5696099-.9910061.1199178-.39039634.1798768-.84085366.1798768-1.32134146zM75.9252564 45.41234778h-1.6488707v-8.88902439h1.6488707zM81.4414782 36.52332339c.0599589 0 .0899384.03003049.1199178.03003049.0299795.03003049.0899384.06006097.1199179.09009146.0299794.03003049.0899384.09009146.1199178.15015244l4.6767968 5.94603659c-.0299795-.15015244-.0299795-.27027439-.0299795-.42042683v-5.79588415h1.4689938v8.88902439h-.839425c-.1199179 0-.2398357-.03003049-.3297741-.06006098-.0899384-.03003048-.1798768-.12012195-.2398358-.21021341l-4.6468172-5.9160061c0 .12012195.0299794.27027439.0299794.39039634v5.82591464h-1.4689938v-8.8890244h.8694045c.0299795-.03003048.0899384-.03003048.1498974-.03003048z"/></g><g fill="none" fill-rule="evenodd"><g id="circle" fill-rule="nonzero" transform="translate(0 -1)"><g fill="#000"><path d="M135.104723 94.70746915c-.149898 0-.299795.03003048-.449692.03003048.119917.09009147.239835.21021342.359753.30030488.119918.12012195.209856.21021342.329774.33033537l3.747434 4.14420732c.059959.060061.089938.0900915.119917.1501524.02998.060061.02998.0900915.02998.1501525 0 .0600609 0 .0900914-.02998.1501524 0 .060061-.029979.120122-.059958.1801829l-.419713 1.1711891-8.364271-3.00304882.479671-1.38140244 5.396304 1.92195122c.089939.03003049.209857.09009144.329774.12012194.119918.060061.239836.0900915.359754.1501525l-3.837372-4.23429883c-.089938-.09009146-.149897-.21021341-.179876-.33033536-.02998-.12012195-.02998-.24024391.029979-.36036586l.089938-.21021341c.02998-.12012195.119918-.21021342.209857-.30030488.089938-.06006097.209856-.12012195.329774-.15015244l5.666119-.87088414c-.119918-.03003049-.269815-.06006098-.389733-.09009147-.119918-.03003049-.239836-.06006097-.329774-.12012195l-5.396304-1.92195122.479671-1.38140244 8.364271 3.00304878-.419712 1.17118903c-.02998.06006097-.059959.12012195-.059959.18018292-.02998.06006098-.059959.09009147-.089938.12012196-.02998.03003048-.059959.06006097-.119918.09009146s-.119918.03003049-.179877.06006097l-5.546201.84085366c-.149898.09009147-.299795.09009147-.449692.09009147zM127.040246 104.4673777l.329774-.6006098c.059959-.1201219.149898-.2102134.209857-.2702744.089938-.0600609.179876-.0600609.329774-.0300305l.449692.0900915c-.059959-.2102134-.089939-.4204268-.119918-.6006097-.02998-.180183-.02998-.3603659-.02998-.5405488 0-.180183.02998-.3603659.089939-.5405488.059959-.1801829.119918-.3603659.239836-.5705793.119917-.2402439.269815-.4504573.449692-.6006097.179876-.180183.359753-.3003049.569609-.3603659.209857-.0900914.419713-.0900914.659549-.0900914.239835.0300304.479671.0900914.719507.2402439.209856.1201219.389733.2702743.53963.5105182.149898.2102135.239836.5105183.269815.8408537.02998.3303354 0 .7507622-.119917 1.2612805-.119918.4804878-.329775 1.0510671-.689528 1.6817073l.329774.1801829c.389733.2102135.689528.2702744.959343.2102135.269815-.060061.479671-.2402439.629569-.5405488.119918-.2102134.179876-.4204269.209856-.5705793.029979-.1801829.029979-.3303354.029979-.4804878v-.3903963c0-.120122.02998-.2402439.089939-.3303354.059959-.0900915.119918-.1501524.179877-.2102134.059959-.060061.179876-.060061.269815-.060061l.56961-.0300305c.239835.9609756.119917 1.8919207-.359754 2.7928354-.179877.3303353-.389733.6006097-.629569.7807927-.239835.2102134-.509651.3303353-.779466.4204268-.269815.0900915-.56961.0900915-.899384.0300305-.299795-.060061-.629569-.1501525-.929363-.3303354l-3.567557-1.8919207zm2.218481-2.1621951c-.059959.1501524-.119918.2702744-.149898.3903963-.029979.120122-.059959.2702744-.059959.3903963 0 .120122 0 .2702744.02998.3903964.029979.1201219.059959.2702744.119918.4204268l.929363.4804878c.209857-.3903963.359754-.7207317.449692-1.0210366.089939-.3003048.149898-.5405487.149898-.7207317 0-.1801829-.02998-.3603658-.089939-.4804878-.059959-.1201219-.149897-.2102134-.269815-.2702744-.239836-.1201219-.449692-.1501524-.629569-.0600609-.179877.0900914-.359753.2702743-.479671.4804878zM123.592608 109.782774c.119917-.1501524.269815-.2102134.449692-.1501524l.569609.2402439c-.059958-.1801829-.089938-.3903964-.089938-.5705793-.029979-.1801829-.029979-.3603658 0-.5705792.02998-.180183.059959-.3603659.149897-.5405488.059959-.180183.149898-.3603659.299795-.5405488.179877-.2702744.419713-.5105183.719507-.6606707.269815-.1501525.59959-.2402439.929364-.2702744.329774-.0300305.719507.0300305 1.10924.1801829.389733.1201219.809446.3303354 1.229158.6306402.389733.2702744.719507.5705793.959343.9009147.269815.3303353.449692.6907012.56961 1.051067.119918.3603659.149897.7207318.089938 1.1111281-.059959.3603658-.179877.7207317-.419712 1.0810976-.209857.3003048-.419713.5105182-.659549.6606707-.239835.1501524-.479671.2402439-.749486.3003049l2.758111 1.8618902-.839425 1.2612805-7.554826-5.1352134.479672-.8408537zm2.038603-1.051067c-.179876.2702743-.269815.5105182-.299794.7807926-.02998.2702744.029979.5405488.119918.8408537l2.338398 1.5916158c.269815-.0300304.509651-.0900914.689528-.2102134.179876-.1201219.329774-.2702744.479671-.4804878.119918-.1801829.209856-.3903963.239836-.6006097.029979-.2102134 0-.4204269-.059959-.6006098-.059959-.2102134-.209856-.4204268-.389733-.6306402s-.419713-.4204269-.719507-.6306403c-.299795-.2102134-.56961-.3603658-.839425-.4504573-.239836-.0900915-.479672-.1501524-.659549-.1501524-.179876 0-.359753.0600609-.509651.1501524-.149897.0900915-.269815.2402439-.389733.3903964zM125.001643 118.3114326c-.269816.3003048-.539631.5405487-.869405.7207317-.299795.1801829-.629569.2702744-.989322.3003048-.329774.0300305-.689528-.0300304-1.049282-.1501524-.359753-.1201219-.719507-.3303354-1.049281-.6306402-.089938-.060061-.149897-.1501525-.209856-.2102135-.059959-.0600609-.089939-.1201219-.089939-.1501524-.029979-.060061-.029979-.0900915 0-.1501524.02998-.060061.059959-.0900915.089939-.1501525l2.518275-2.9730183c-.509651-.3903963-.989322-.5705792-1.409035-.5405487-.419713.0300304-.809446.2402439-1.13922.6306402-.149897.1801829-.269815.3603659-.359753.5405488-.059959.1801829-.119918.3303353-.149898.4804878-.029979.1501524-.059959.2702744-.089938.3903963-.02998.120122-.059959.2102134-.119918.2702744-.029979.060061-.089938.0900915-.119918.0900915-.059959.0300305-.089938.0300305-.149897.0300305l-.719507-.0300305c-.02998-.2702744-.02998-.5105183 0-.7507622.029979-.2402439.089938-.4804878.179877-.7207317.089938-.2402439.179876-.4504573.329774-.6306403.119917-.2102134.269815-.3903963.419712-.5405487.299795-.3303354.599589-.6006098.959343-.7807927.359754-.180183.719507-.3003049 1.13922-.3303354.389733-.0300305.809445.0300305 1.229158.1801829.419712.1501525.839425.4204269 1.259137.7807927.329775.2702744.59959.6006098.779467.9609756.209856.3603659.329774.7207317.359753 1.1111281.02998.3903963 0 .7807927-.119918 1.171189-.119918.3303354-.329774.7207317-.629568 1.0810976zm-.839426-.6907013c.299795-.3303353.419713-.6907012.389734-1.0210365-.02998-.3303354-.179877-.6907013-.509651-1.0510671l-1.858727 2.1621951c.149897.120122.299794.2402439.479671.3003049.179877.060061.329774.1201219.509651.1201219.179877 0 .329774-.0300305.509651-.1201219.179877-.0900915.329774-.2102134.479671-.3903964zM115.138398 119.4225606l5.935934 6.9370427-1.139219.9910061-2.338399-2.7327744c-.029979.3603659-.089938.7207317-.239835 1.0510671-.149898.3303353-.359754.6306402-.689528.9009146-.269815.2102134-.53963.3603659-.869405.4504573-.299794.0900915-.629568.0900915-.959342 0-.329775-.0900914-.659549-.2102134-1.019302-.4504573-.359754-.2402439-.689528-.5405488-1.019302-.9309451-.299795-.3603659-.539631-.7207317-.719507-1.1111281-.149898-.3903963-.239836-.7807926-.269816-1.1411585-.029979-.3603659.059959-.7507622.209857-1.0810976.149897-.3303353.389733-.6606707.689527-.9309451.149898-.1201219.299795-.2402439.449692-.3003049.149898-.0600609.299795-.1201219.449692-.1501524.149898-.0300305.299795-.060061.449692-.0300305.149898 0 .299795.0300305.449692.0300305l-.209856-.3603659c-.059959-.0900914-.059959-.1801829-.059959-.2402439.02998-.0600609.059959-.1501524.149898-.2102134l.749486-.6907012zm1.169199 5.8859756c.239836-.2102134.389733-.4204268.479672-.6907012.089938-.2402439.119918-.5105183.119918-.8408537l-1.828748-2.1621951c-.269815-.060061-.509651-.0300305-.719507.0300305-.209856.060061-.389733.1801829-.56961.3303354-.179877.1501524-.299794.3303353-.389733.5105183-.089938.1801829-.119918.3903963-.089938.6006097.029979.2102134.089938.4504573.209856.6907012.119918.2402439.299795.5105183.53963.7807927.239836.2702744.479672.5105183.689528.6606708.209856.1501524.419713.2702743.599589.3003048.179877.060061.359754.060061.539631 0 .179877-.0600609.269815-.0600609.419712-.2102134zM106.804107 123.8370423c-.02998-.1201219-.02998-.2102134 0-.3003049.029979-.0900914.089938-.1801829.209856-.2402439l.929363-.6306402.449692 2.7628049 5.396304 3.3934451-1.10924.7507622c-.089938.060061-.209856.0900915-.269815.0900915-.089939 0-.149898-.0300305-.239836-.0900915l-2.967967-1.9519817c-.089939-.060061-.179877-.120122-.269815-.2102134-.089939-.0900915-.179877-.1501525-.269815-.2402439.029979.1201219.089938.2402439.119917.3303353.02998.120122.059959.2402439.089939.3603659l.809445 3.4234756c.02998.0900915 0 .1801829-.029979.2702744-.02998.0900914-.089939.1501524-.179877.2102134l-.989322.6907012-1.67885-8.61875zM104.6755645 134.7681399l-1.1092402.5105183c-.0899384.0600609-.2098563.0600609-.2997947.0600609-.0899384-.0300304-.1798768-.0600609-.2098563-.1201219l-2.2184805-2.7027439c-.1199178-.1501524-.2398357-.3003049-.3297741-.4504573-.0899384-.1501525-.2098562-.3003049-.2997946-.4504573.0299794.1801829.0599589.3603658.0899384.5405487.0299794.180183.0599589.3603659.0599589.5705793l.449692 3.5135671c0 .0900914 0 .1801829-.059959.2402439-.0599589.0900914-.1199178.1501524-.2098562.1801829l-.5995893.2702744c-.0899384.060061-.2098563.060061-.2997947.0300305-.0899384-.0300305-.1498973-.060061-.2098563-.120122l-2.3683778-2.7027439c-.1199179-.1501524-.2398357-.2702744-.3297741-.4204268-.0899384-.1501524-.2098563-.2702744-.3297741-.4204268.0599589.1801829.0899384.3603658.1199178.5105183.0299795.1801829.0899384.3603658.0899384.5405487l.5396304 3.4535061c0 .0900915 0 .1501525-.0599589.2402439-.059959.0900915-.1199179.1501525-.2098563.180183l-1.0492813.4804878-.7794661-6.5766768 1.1092402-.5105183c.1199179-.060061.2398358 0 .3597536.1201219l2.5482546 2.8528964c.0899384.0900914.1498974.1801829.2398358.3003048.0899384.120122.1498973.2102134.2098562.3003049-.0299794-.1201219-.0599589-.2402439-.0899384-.3603658-.0299794-.120122-.0299794-.2402439-.0599589-.3603659l-.449692-3.7838415c-.0299795-.1801829.0299795-.3303353.1798768-.3903963l1.0492813-.4804878 4.5268994 4.9550305zM91.3646816 140.1736277c-.449692.1201219-.8694046.1801829-1.2891171.1501524-.4197125-.0300305-.7794661-.1501524-1.1092402-.3303353-.3297742-.180183-.6295688-.4504574-.899384-.8108232-.2698152-.3603659-.449692-.7507622-.5995893-1.23125-.1498974-.4804878-.2098563-.9309451-.1798768-1.351372.0299794-.4204268.1199178-.8108231.2997946-1.171189.1798768-.3603658.4197125-.6606707.7494867-.9009146.3297741-.2402439.7195072-.4504573 1.1691992-.5705793.4496919-.1201219.8694045-.1801829 1.289117-.1501524.4197125.0300305.7794661.1501524 1.1392197.3303353.3297741.180183.6295688.4504574.899384.8108232.2698152.3303354.449692.7507622.5995893 1.23125.1498973.4804878.2098563.9309451.1798768 1.351372-.0299795.4204268-.1498973.8108231-.3297741 1.171189-.1798768.3303353-.449692.6306402-.7494867.9009146-.3297741.2402439-.7195072.4204268-1.1691991.5705793zm-1.5289528-5.1352134c-.5096509.1501524-.8394251.4204268-.9593429.8408536-.1498974.4204269-.1199179.9309451.0899384 1.5916159.1798768.6606707.449692 1.111128.8094455 1.3814024.3597536.2702744.7794662.3303354 1.2591376.1801829.5096509-.1501524.8394251-.4504573.9893224-.8408536.1498973-.4204268.1199179-.9609756-.0899384-1.5916159-.2098563-.6306402-.449692-1.111128-.8094456-1.3814024-.3597536-.2702744-.7494866-.3303354-1.289117-.1801829zM85.0989731 135.3086887l.9293635 6.2463414-.9293635.1501525c-.1798768.0300304-.3297741-.0300305-.4197125-.2102135l-.1798768-.4504573c-.0899384.1501525-.1798768.2702744-.2997947.3903964-.1199178.1201219-.2098562.2402439-.3297741.3303353-.1199178.0900915-.2698152.180183-.4197125.2402439-.1498973.060061-.3297741.120122-.5096509.1501525-.3897331.060061-.7195072 0-1.0193019-.1801829-.2997946-.180183-.5096509-.4204269-.6895277-.7507622-.0599589.2102134-.1498973.4204268-.2997947.6006097-.1199178.1801829-.2698152.3003049-.4197125.4204268-.1498973.120122-.3297741.2102135-.5396304.3003049-.2098562.0900915-.389733.120122-.5696098.1501525-.3297742.0600609-.6595483.0300304-.9293635-.0300305-.2698152-.060061-.5396304-.180183-.7494866-.3603659-.2098563-.1801829-.3897331-.3903963-.5396304-.6907012-.1498974-.2702744-.2398358-.6006098-.2997947-.9910061l-.5995893-3.9640244 1.4989733-.2102134.5995893 3.9640244c.059959.3903963.1798768.6907012.3897331.8708841.2098562.180183.4796714.2402439.8094456.180183.1498973-.0300305.2997946-.060061.4197125-.1501525.1199179-.0900914.2398357-.1801829.2997947-.2702744.0899384-.1201219.1498973-.2402439.1798767-.4204268.0299795-.1801829.0299795-.3303354 0-.5405488l-.5995893-3.9640244 1.4989733-.2102134.5995894 3.9640244c.0599589.4204268.1798768.7207317.389733.8708842.2098563.1501524.449692.2102134.7794661.1801829.2098563-.0300305.4197126-.120122.5696099-.2402439.1798768-.1501525.3297741-.3003049.449692-.5105183l-.6895277-4.5646342 1.6188911-.3003048zM71.9979464 143.0565545c-.389733 0-.7494866-.060061-1.1092402-.1801829-.3297741-.120122-.6295688-.3003049-.8694045-.5405488-.2398358-.2402439-.449692-.5405488-.5696099-.9009146-.1498973-.3603659-.2098562-.7507622-.2098562-1.2012195v-.3003049c0-.0900915.0299794-.1501525.0599589-.1801829.0299795-.0300305.0599589-.060061.1199179-.0900915.0299794-.0300305.0899383-.0300305.1798767-.0300305l3.8973306-.060061c-.0599589-.6606707-.2398357-1.111128-.5396303-1.4114329-.2997947-.3003049-.7195072-.4504573-1.1991787-.4504573-.2398357 0-.449692.0300305-.6295688.0900914-.1798768.060061-.3297741.120122-.449692.2102135-.1199178.0600609-.2398357.1501524-.3597536.2102134-.0899384.060061-.2098562.0900914-.2997946.0900914-.059959 0-.1199179 0-.1498974-.0300304-.0599589-.0300305-.0899384-.060061-.1199178-.0900915l-.449692-.5405488c.1498973-.2102134.3597536-.3603658.5696098-.5105183.2098563-.1501524.4197126-.2402439.6595483-.3303354.2398357-.0900914.449692-.1501524.6895277-.1801829.2398357-.0300305.449692-.060061.6895277-.060061.449692 0 .8394251.060061 1.2291581.2102135.3897331.1501524.7195072.3603658.9893224.6306402.2698152.2702744.509651.6306402.6595483 1.0510671.1798768.4204268.2398357.9009146.2698152 1.4714939 0 .4204268-.059959.8408536-.1798768 1.23125-.1199179.3903963-.3297741.7207317-.5696099.9910061-.2698152.3003049-.5696098.5105183-.9293634.6907012-.3597536.1801829-.899384.2102134-1.3790555.2102134zm-.0599589-1.0810975c.449692 0 .7794661-.1501525 1.0193019-.3903964.2398357-.2402439.389733-.6006097.4496919-1.0810976l-2.8480492.060061c0 .2102134.0299794.3903964.0899384.5705793.0599589.1801829.1498973.3303354.2398357.4504573.0899384.120122.2398357.2402439.4197125.3003049.2098563.060061.4197125.0900915.6295688.0900915zM67.5609855 136.5999996l-.5995894 6.276372-.9293634-.0900915c-.2098563-.0300305-.3297741-.1201219-.3597536-.3003049l-.0599589-.5105182c-.1498974.1201219-.2698152.2102134-.449692.3303353-.1498974.0900915-.2997947.1801829-.4796715.2402439-.1498973.060061-.3297741.0900915-.5096509.120122s-.3897331.0300305-.5995893 0c-.3297742-.0300305-.6295688-.120122-.899384-.2702744-.2398358-.1501525-.449692-.3303354-.6295688-.5405488-.1498973-.2402439-.2698152-.4804878-.3297741-.7807927-.059959-.3003049-.0899384-.6306402-.0299795-.9910061l.3897331-3.9940549 1.4989733.1501525-.3897331 3.9940549c-.0299795.3903963.0299795.6907012.1798768.9309451.1498973.2402439.4197125.3603658.7794661.3903963.2698152.0300305.5096509 0 .7494867-.1201219.2398357-.0900915.4796714-.2402439.6895277-.4204269l.449692-4.5346036 1.5289528.1201219zM60.3659136 136.5999996c-.0299795.120122-.0599589.2402439-.1199179.3303354-.0599589.0900915-.1498973.1801829-.2398357.2702744-.0899384.060061-.2098563.1201219-.3297741.1501524-.1199179.0300305-.2398358.0300305-.3897331 0-.1199179-.0300305-.2398357-.0600609-.3297741-.1501524-.0899384-.0900915-.1798768-.1501524-.2698152-.2402439-.059959-.0900915-.1199179-.2102134-.1498974-.3303354-.0299794-.1201219-.0299794-.2402439 0-.3603658.0299795-.120122.059959-.2402439.1498974-.3603659.0599589-.0900914.1498973-.1801829.2398357-.2402439s.2098563-.1201219.3297741-.1501524c.1199179-.0300305.2398358-.0300305.3597536 0 .1199179.0300305.2398358.0600609.3597536.1501524.0899384.060061.1798768.1501525.2698152.2402439.0899384.0900915.1199179.2102134.1498973.3303354 0 .1201219 0 .2402439-.0299794.3603658zM46.0956877 141.1946643l.3897331-1.2612805 3.7474332 1.2012195.8094456-2.522561-3.1778234-1.0210366.3897331-1.2612805 3.1778234 1.0210366 1.1092402-3.4535061 1.5889117.5105183-2.6981519 8.4986281zM42.6180696 137.050457c-.4197125-.180183-.7794661-.4204269-1.0792607-.7207318-.2997947-.3003048-.509651-.6306402-.6295688-.9910061-.1498974-.3603658-.1798768-.7507621-.1498974-1.2012195.0299795-.4204268.1498974-.8708841.3297742-1.3213414.2098562-.4504573.449692-.8408537.7494866-1.1411586.2997947-.3003048.6295688-.5405487.9893224-.6907012.3597536-.1501524.7494867-.2102134 1.1691992-.2102134.4197125 0 .839425.120122 1.2591376.3003049.4197125.1801829.7794661.4204268 1.0792607.7207317.2997947.3003049.509651.6306402.6295688.9910061.1199179.3603658.1798768.7807927.1498974 1.2012195-.0299795.4204268-.1498974.8708841-.3297742 1.3213415-.2098562.4504573-.449692.8408536-.7494866 1.1411585-.2997947.3003049-.6295688.5405488-.9893224.6907012-.3597536.1501525-.7494867.2102134-1.1691992.1801829-.4197125-.0300304-.839425-.0900914-1.2591376-.2702743zm2.1585216-4.8949696c-.4796715-.2102134-.899384-.2102134-1.289117 0-.3597536.2102135-.6895278.6306403-.959343 1.2612805-.2698152.6306403-.3597536 1.1411586-.2698152 1.5916159.0899384.4204268.3597536.7507622.8394251.9609756.4796715.2102134.9293634.2102134 1.289117-.0300305.3897331-.2402439.6895278-.6606707.9893224-1.2612805.2698152-.6306402.3597536-1.1411585.2698152-1.5615854-.0899384-.4204268-.389733-.7207317-.8694045-.9609756zM40.969199 129.1524387l-3.1178645 5.4955792-.7794661-.4504573c-.1498973-.0900915-.2098563-.1501524-.2398357-.2402439-.0299795-.0900915 0-.1801829.0299794-.3303354l.2997947-.7207317c-.3897331.2402439-.7794661.3603659-1.1392197.4204269-.3597536.0600609-.7195072-.0300305-1.0492813-.2102135-.2698152-.1501524-.449692-.3303353-.5696099-.5705792l.7195072-.9009147c.0599589-.0600609.0899384-.0900914.1498973-.0900914.059959 0 .1199179 0 .1798768.0300305.059959.0300305.1199179.0900914.2098563.1501524.0899384.0900915.1798768.1501524.3597536.2402439.2698152.1501525.5396304.2102134.839425.1801829.2997947-.0300304.5696099-.1801829.8694046-.3903963l1.9486653-3.4234756 1.289117.8108232zM30.4763859 130.2635667l-.9293635-.7507622c-.0899384-.060061-.1498973-.1501524-.1798768-.2402439-.0299795-.0900915-.0299795-.1801829 0-.2402439l1.4090349-3.1832317c.0899384-.1801829.1498974-.3303354.2398358-.5105183.0899384-.1501524.1798767-.3003049.2698151-.4804878-.1498973.120122-.2997946.2102134-.4496919.3303354-.1498974.1201219-.2997947.2102134-.4796715.3303353l-2.9379877 1.9820122c-.0599589.060061-.1498973.060061-.2398357.060061s-.1798768-.0300305-.2398357-.0900915l-.509651-.4204268c-.0899384-.060061-.1498973-.1501524-.1498973-.2402439 0-.0900915-.0299795-.1801829 0-.2402439l1.349076-3.3333841c.0599589-.180183.1498973-.3303354.2098562-.4804878.059959-.1501525.1498974-.3003049.2098563-.4804878-.1199179.1201219-.2698152.2402439-.4197125.3603658-.1498973.120122-.2997947.2402439-.449692.3303354l-2.8480493 2.0420731c-.0599589.060061-.1498973.060061-.2398357.060061s-.1798768-.0300305-.2698152-.1201219l-.899384-.7207317 5.5162218-3.6637196.9593429.7807927c.0899384.0900915.1199178.2102134.0599589.3903964l-1.4090349 3.5435975c-.0599589.120122-.0899384.2402439-.1498973.3303354-.059959.0900915-.1199179.2102134-.1798768.3303354.0899384-.0900915.1798768-.1501525.2997946-.2402439.0899384-.0900915.2098563-.1501525.2997947-.2102135l3.1778234-2.1021341c.1498973-.0900915.2997947-.0900915.4197125 0l.899384.7207317-2.3383983 6.15625zM19.6837781 120.803963c-.3297742-.3303353-.5696099-.7207317-.7195072-1.0810975-.1498974-.3903964-.2098563-.7807927-.2098563-1.171189 0-.3903964.1199179-.7807927.2997947-1.1711891.1798768-.3903963.4796714-.7507622.839425-1.0810975.3597536-.3303354.7494867-.6006098 1.1392197-.7807927.3897331-.1801829.7794662-.2402439 1.1691992-.2402439.3897331 0 .7794661.0900915 1.1392197.2702744.3597536.1801829.7195072.4204268 1.0492813.7807927.3297742.3603658.5696099.7207317.7195072 1.0810975.1498974.3903964.2098563.7807927.2098563 1.1711891-.0299795.3903963-.1199179.7807926-.2997947 1.171189-.1798768.3903963-.4796714.7507622-.839425 1.0810975-.3597536.3303354-.7494867.6006098-1.1392197.7507622-.3897331.180183-.7794662.2402439-1.1691992.2402439-.3897331 0-.7794661-.0900914-1.1392197-.2702744-.3597536-.1801829-.7195072-.4204268-1.0492813-.7507622zm3.8673511-3.6637195c-.3597536-.3903963-.7494867-.5405487-1.1691992-.4804878-.4197125.060061-.899384.3303354-1.3790554.7807927-.4796715.4804878-.7794662.9009146-.8694045 1.351372-.0899384.4204268.0599589.8408536.4197125 1.2012195.3597536.3903963.7794661.5405488 1.1991786.4804878.449692-.060061.899384-.3303354 1.3790555-.7807927.4796714-.4504573.7794661-.9009146.8694045-1.351372.0599589-.3903963-.0899384-.8108231-.449692-1.2012195zM21.1527719 113.0260667l-5.1264887 3.6637195-.5396304-.7507622c-.1199179-.1501524-.1199179-.3303353 0-.4804878l.3297741-.3603658c-.1498973-.0300305-.3297741-.060061-.4796714-.0900915-.1498974-.0300305-.2997947-.0900915-.449692-.1501524-.1498974-.060061-.26981521-.1501525-.38973308-.2702744-.11991786-.0900915-.23983573-.2402439-.35975359-.3903964-.23983573-.3303353-.32977413-.6606707-.29979466-.9910061.02997946-.3303353.14989733-.6606707.35975359-.9609756-.23983573.0300305-.44969199.0300305-.65954825 0-.20985627-.0300305-.38973306-.0900914-.56960986-.1801829s-.32977413-.2102134-.50965093-.3303354c-.17987679-.1201219-.29979466-.3003048-.38973305-.4504573-.20985627-.2702744-.32977413-.5705793-.41971253-.8408536-.05995893-.2702744-.05995893-.5705793 0-.8408537s.1798768-.5405488.35975359-.7807927c.1798768-.2402439.41971253-.4804878.74948666-.7207317l3.26776181-2.342378.8694045 1.23125-3.2677618 2.342378c-.32977412.2402439-.50965092.4804878-.59958932.7507622-.0899384.2702744 0 .5405488.20985626.8108232.0899384.1201219.20985627.2402439.32977413.3003049.11991787.0900914.23983573.1201219.38973306.1501524.14989733.0300305.29979466 0 .44969199-.0300305s.32977408-.1201219.47967148-.2402439l3.2677618-2.342378.8694045 1.23125-3.2677618 2.342378c-.3297741.2402439-.5396304.4804878-.5995893.7507622-.059959.2402439 0 .5105183.2098562.7807927.1199179.1801829.2997947.3003049.4796715.3903963.2098563.0900915.4197125.1501525.6595483.1801829l3.7774127-2.6727134.8694045 1.291311zM8.3215604 104.797713c-.1798768-.3603658-.29979466-.7207317-.32977413-1.051067-.02997946-.3603659 0-.6907012.0899384-1.0210366.0899384-.3303354.2698152-.6306403.53963039-.9309451.23983573-.2702744.56960986-.5405488.98932238-.7507622.0899384-.060061.1798768-.0900915.2698152-.120122.05995893-.0300305.11991786-.0300305.1798768-.0300305.05995893 0 .08993839.0300305.11991786.060061.02997947.0300305.05995893.0900915.0899384.1501524l1.79876797 3.4535061c.53963039-.3303353.89938398-.7207317 1.01930184-1.111128.11991787-.4204268.0899384-.8408537-.14989733-1.291311-.11991786-.2102134-.23983573-.3903963-.35975359-.5105183-.11991787-.1201219-.2698152-.2402439-.38973306-.3303353-.11991786-.0900915-.23983573-.1501525-.32977413-.2102135-.0899384-.0600609-.17987679-.1501524-.20985626-.2102134-.02997947-.0600609-.02997947-.1201219-.02997947-.1501524 0-.060061 0-.0900915.02997947-.1501524l.29979466-.6606708c.23983573.060061.47967146.1501525.68952772.2702744.20985626.120122.41971253.2702744.59958932.4204268.1798768.1501525.32977413.3303354.47967146.5405488.14989733.180183.2698152.3903964.3597536.6006098.20985626.3903963.32977412.7807927.35975359 1.2012195.02997946.4204268 0 .7807927-.11991787 1.171189-.11991786.3903964-.32977412.7507622-.62956878 1.0810976-.29979467.3303353-.68952773.6306402-1.16919918.9009146-.38973306.2102134-.77946612.3303354-1.16919918.3903964-.38973306.0600609-.77946612.0300304-1.16919918-.060061-.38973306-.0900915-.71950719-.2702744-1.01930185-.5405488-.35975359-.3303354-.62956879-.6907012-.83942505-1.1111281zm.92936345-.5105182c.20985626.3903963.47967146.6306402.80944559.7507622.32977412.1201219.71950718.0900914 1.16919917-.060061l-1.31909651-2.522561c-.17987679.0900915-.32977412.2102134-.44969199.3303354-.11991786.1201219-.23983573.2702744-.29979466.4204268-.05995893.1501524-.0899384.3303354-.0899384.5105183.02997947.1801829.0899384.3603658.1798768.5705793zM12.06899367 97.92073134l-5.87597536 2.28231706-.32977413-.8708841c-.05995893-.180183-.02997947-.3303354.11991786-.45045735l.41971253-.27027439c-.1798768-.06006097-.32977413-.15015244-.47967146-.2402439-.14989733-.09009146-.29979466-.21021342-.41971252-.33033537-.11991787-.12012195-.23983573-.27027439-.3597536-.42042683-.0899384-.15015244-.1798768-.33033536-.2698152-.54054878-.11991786-.33033536-.17987679-.63064024-.17987679-.93094512s.0899384-.57057927.20985626-.81082317c.11991787-.2402439.32977413-.45045732.56960986-.66067073.23983573-.18018293.50965092-.36036586.83942505-.48048781l3.74743327-1.44146341.53963039 1.41143293-3.74743327 1.44146341c-.35975359.15015244-.59958932.33033537-.74948665.57057927-.11991787.2402439-.11991787.54054878 0 .87088415.0899384.2402439.23983573.45045731.41971252.63064024.1798768.18018293.41971253.33033536.68952772.42042683l4.25708419-1.65167683.59958933 1.4714939z"/></g><g fill="#000"><path d="M7.42217667 49.2112804c.14989733 0 .29979466 0 .449692-.0300305-.11991787-.0900915-.23983573-.2102134-.3597536-.3303354-.11991786-.1201219-.20985626-.2102134-.32977413-.3303353l-3.68747433-4.1442073c-.05995893-.060061-.0899384-.0900915-.0899384-.1501525-.02997946-.060061-.02997946-.0900914-.02997946-.1501524 0-.060061 0-.0900915.02997946-.1501525 0-.0600609.02997947-.1201219.05995894-.1801829l.41971252-1.171189 8.36427103 3.0330793-.5096509 1.3814024-5.39630391-1.9519817c-.0899384-.0300305-.20985626-.0900915-.32977412-.120122-.11991787-.0600609-.23983573-.0900914-.3597536-.1501524l3.83737167 4.2342988c.08993839.0900914.14989733.2102134.17987679.3303353.02997947.120122.02997947.2402439-.02997946.3603659l-.0899384.2102134c-.02997947.120122-.11991787.2102134-.20985626.3003049-.0899384.0900915-.20985627.1201219-.32977413.1201219l-5.69609856.8408537c.11991786.0300305.26981519.060061.38973305.0900915.11991787.0300304.23983573.0900914.32977413.1201219l5.3963039 1.9519817-.47967145 1.3814025L.5868584 51.6737804l.41971252-1.171189c.02997947-.060061.05995894-.120122.05995894-.180183.02997946-.0600609.05995893-.0900914.0899384-.1201219.02997946-.0300305.05995893-.060061.11991786-.0900915s.11991786-.0300305.1798768-.060061l5.54620123-.8108231c.11991786-.0300305.26981519-.0300305.41971252-.0300305zM15.5166325 39.4814023l-.3297741.6006098c-.0599589.1201219-.1498973.2102134-.2098563.2702744-.0899384.060061-.1798768.060061-.3297741.0300305l-.449692-.0900915c.0599589.2102134.0899384.4204268.1199179.6006098.0299794.1801829.0299794.3603658.0299794.5405487 0 .180183-.0599589.3603659-.0899384.5405488-.0599589.180183-.1199178.3603659-.2398357.5705793-.1199178.2402439-.2698152.4504573-.449692.6006098-.1798768.1501524-.3597536.2702743-.5696098.3603658-.2098563.0900915-.4197126.0900915-.6595483.0900915-.2398357-.0300305-.4796714-.0900915-.7195072-.2402439-.2098562-.120122-.389733-.2702744-.5396304-.5105183-.1498973-.2102134-.2398357-.5105183-.2698152-.8408537-.0299794-.3303353.0299795-.7507622.1498974-1.23125.1199178-.4804878.3597536-1.0510671.6895277-1.6817073l-.3297741-.1801829c-.3897331-.2102134-.6895278-.2702744-.95934295-.2102134-.26981519.0600609-.47967145.2402439-.62956879.5405487-.11991786.2102135-.17987679.4204269-.20985626.5705793-.02997946.1501524-.02997946.3303354-.02997946.4804878v.3903964c0 .1201219-.02997947.2402439-.0899384.3303353-.05995893.0900915-.11991787.1501525-.20985627.2102134-.08993839.0300305-.17987679.060061-.26981519.060061l-.56960986.0300305c-.23983573-.9609756-.11991786-1.8919207.3597536-2.7928354.17987679-.3303353.38973306-.6006097.62956879-.7807927.23983572-.2102134.50965092-.3303353.77946611-.4204268.2698152-.0900914.56960988-.0900914.89938398-.0300305.2997947.060061.6295688.1501525.9293635.3303354l3.5675564 1.8618902zm-2.2184805 2.1621952c.059959-.1501525.1199179-.2702744.1798768-.3903964.0299795-.1201219.059959-.2702744.059959-.3903963 0-.120122 0-.2702744-.0299795-.3903964-.0299795-.1201219-.0599589-.2702744-.0899384-.4204268l-.9293635-.5105183c-.2098562.3903964-.3597535.7207317-.4496919 1.0210366-.0899384.3003049-.1498974.5405488-.1498974.7207317 0 .1801829.0299795.3603659.0899384.4804878.059959.120122.1498974.2102134.2698152.2702744.2398357.120122.449692.1501524.6295688.060061.1798768-.0900915.2997947-.2402439.4197125-.4504573zM18.9942506 34.1960365c-.1199179.1501524-.2698152.2102134-.449692.1501524l-.5696099-.2402439c.059959.180183.0899384.3903964.0899384.5705793.0299795.1801829 0 .3603658 0 .5705793-.0299794.1801829-.0599589.3603658-.1498973.5405487-.0899384.180183-.1798768.3603659-.2997946.5405488-.1798768.2702744-.4197126.5105183-.7195072.6606708-.2698152.1501524-.5995894.2402439-.9293635.2702743-.3297741.0300305-.7195072-.0300304-1.1092402-.1801829-.3897331-.1201219-.8094456-.3603658-1.2291581-.6306402-.3897331-.2702744-.7195072-.5705793-.959343-.9009147-.2698152-.3303353-.4496919-.6907012-.5396303-1.051067-.1199179-.3603659-.1498974-.7207317-.0899384-1.1111281.0599589-.3603658.1798768-.7207317.4197125-1.0510671.2098562-.3003048.4197125-.5105182.6595482-.6606707.2398358-.1501524.4796715-.2402439.7494867-.3003049l-2.7581109-1.8919207.8694045-1.2612805 7.524846 5.1652439-.5096509.8108232zm-2.0386037 1.0210366c.1798768-.2702744.2698152-.5105183.2997947-.7807927.0299794-.2702744-.0299795-.5405488-.1199179-.8408537l-2.3383984-1.5916158c-.2698152.0300305-.5096509.0900914-.6895277.2102134-.1798768.1201219-.3297741.2702744-.4796714.4804878-.1199179.1801829-.2098563.3903963-.2398358.6006098-.0299794.2102134-.0299794.4204268.059959.6006097.0599589.2102134.2098562.4204268.389733.6306403.1798768.2102134.4197125.4204268.7195072.6306402s.5696099.3603659.8094456.4504573c.2398357.0900915.4796715.1501525.6595482.1501525.2098563 0 .3597536-.060061.509651-.1501525.1498973-.0900914.2997946-.2102134.4197125-.3903963zM17.6151952 25.667378c.2698151-.3003049.5396303-.5405488.8694045-.7207318.2997946-.1801829.6295688-.2702743.9893224-.3003048.3297741-.0300305.6895277.0300305 1.0492813.1501524.3597536.120122.7195072.3303354 1.0492813.6306402.0899384.060061.1498973.1501525.2098562.2102135.059959.0600609.0899384.1201219.0899384.1501524 0 .0300305.0299795.0900915 0 .1501524-.0299794.060061-.0599589.0900915-.0899384.1501525l-2.5482546 2.9429878c.5096509.3903963.9893224.5705793 1.4090349.5405488.4197126-.0300305.8094456-.2402439 1.1392197-.6306403.1498974-.1801829.2698152-.3603658.3597536-.5405488.059959-.1801829.1199179-.3303353.1498974-.4804878.0299794-.1501524.0599589-.2702744.0899384-.3903963.0299794-.120122.0599589-.2102134.1199178-.2702744.0299795-.060061.0899384-.0900915.1199179-.0900915.0599589-.0300304.0899384-.0300304.1498973-.0300304l.7195072.0300304c.0299795.2702744.0299795.5105183 0 .7507622-.0299795.2402439-.0899384.4804878-.1798768.6907013-.0899384.2102134-.2098562.4504573-.3297741.6306402-.1199179.2102134-.2698152.3903963-.4197125.5405488-.2997947.3303353-.5995894.6006097-.959343.7807927-.3597535.1801829-.7195071.3003048-1.1392197.3303353-.389733.0300305-.8094455-.0300305-1.2291581-.1801829-.4197125-.1501524-.839425-.4204268-1.2591376-.7807927-.3297741-.2702744-.5995893-.6006097-.7794661-.9609756-.2098562-.3603658-.3297741-.7207317-.3597536-1.111128-.0299794-.3903964 0-.7807927.1199179-1.1711891.1498973-.3003048.3597536-.6606707.6595483-1.0210365zm.839425.6907012c-.2997947.3303353-.4197125.6907012-.3897331 1.0210366.0299795.3603658.1798768.7207317.4796715 1.051067l1.8587269-2.1621951c-.1498973-.1201219-.2997947-.2402439-.4796715-.3003049-.1798768-.0600609-.3297741-.1201219-.5096509-.1201219s-.3297741.0300305-.5096509.1201219c-.1199179.0900915-.2997947.2102134-.449692.3903964zM27.4784395 24.5862804l-5.9059548-6.9670732 1.1691992-.9910061 2.3383983 2.7628049c.0299795-.3603659.0899384-.7207317.2398357-1.0210366.1498974-.3003049.3597536-.6306402.6895278-.9009146.2698152-.2102134.5396304-.3603659.8694045-.4504573.2997946-.0900915.6295688-.0900915.9593429 0 .3297741.0600609.6595483.2102134 1.0193018.4504573.3597536.2402439.6895278.5405488 1.0193019.9309451.2997947.3603659.5396304.7207317.6895277 1.1111281.1498973.3903963.2398357.7807926.2698152 1.1411585 0 .3903963-.0599589.7507622-.2098563 1.0810975-.1498973.3303354-.389733.6606708-.6895277.9309452-.1498973.1201219-.2997946.2102134-.449692.3003048-.1498973.060061-.2997946.120122-.449692.1501525-.1498973.0300305-.2997946.060061-.4496919.0300305-.1498974-.0300305-.2997947-.0300305-.449692-.060061l.2098562.3603659c.059959.0900914.059959.1801829.059959.2402439-.0299795.0600609-.059959.1501524-.1498974.2102134l-.7794661.6907012zm-1.1092402-5.9160061c-.2398358.2102134-.3897331.4204268-.4796715.6907012-.0899384.2402439-.1199179.5105183-.1199179.8408537l1.8287475 2.1621951c.2698152.060061.5096509.0300305.7195072-.0300305.2098562-.060061.389733-.1801829.5995893-.3303354.1798768-.1501524.2997946-.3303353.389733-.5105183.0899384-.1801829.1199179-.3903963.0899384-.6006097-.0299794-.2102134-.0899384-.4504573-.2098562-.6907012-.1199179-.2402439-.2997947-.5105183-.5396304-.7807927-.2398357-.2702744-.449692-.5105183-.6595483-.6606707-.2098562-.1501525-.4197125-.2702744-.5995893-.3003049-.1798768-.060061-.3597536-.060061-.5396304 0-.1798768 0-.3297741.0900914-.4796714.2102134zM35.8427106 20.2018292c.0299794.1201219.0299794.2102134 0 .3003048-.0299795.0900915-.0899384.180183-.2398358.240244l-.9293634.6306402-.449692-2.7628049-5.3963039-3.3934451 1.1092402-.7507622c.0899384-.060061.2098563-.0900915.2698152-.0900915.0899384 0 .1498974.0300305.2398358.0900915l2.9379876 1.9519817c.0899384.060061.1798768.120122.2698152.2102134.0899384.0900915.1798768.1501525.2698152.2402439a473946.3485686 473946.3485686 0 0 0-.0899384-.3603658c-.0299794-.120122-.0599589-.2402439-.0899384-.3603659l-.7794661-3.4234756c-.0299795-.0900915 0-.1801829.0299795-.2702744.0299794-.0900914.0899384-.1501524.1798768-.2102134l1.0193018-.6907012 1.6488707 8.6487805zM38.0312116 9.3007621l1.1092402-.48048781c.0899384-.06006097.2098563-.06006097.2997947-.03003049.0899384.03003049.1798768.06006098.2098563.12012196l2.188501 2.70274394c.1199178.1501524.2398357.3003048.3297741.4504573.0899384.1501524.2098563.3003049.2997947.4504573-.0299795-.1801829-.059959-.3603659-.0899384-.5405488-.0299795-.1801829-.059959-.3603658-.059959-.5705793l-.4197125-3.51356703c0-.09009146 0-.18018293.0599589-.2402439.059959-.09009147.1199179-.15015244.2098563-.18018293l.5995893-.27027439c.0899384-.06006097.2098563-.06006097.2997947-.03003049.0899384.03003049.1498973.06006098.2098563.12012195l2.3383983 2.73277439c.1199179.15015244.2398357.2702744.3297741.42042683.1199179.12012196.2098563.27027439.3297742.42042683-.059959-.18018292-.0899384-.36036585-.1199179-.51051829-.0299795-.18018293-.0599589-.36036585-.0899384-.54054878l-.5096509-3.4535061c0-.09009146 0-.15015244.0599589-.2402439.0599589-.09009146.1199179-.15015244.2098563-.18018293l1.0492813-.4804878.7494866 6.57667684-1.1092402.5105183c-.1199179.060061-.2398357 0-.3597536-.120122L43.6373717 9.541006c-.0899384-.09009146-.1498973-.18018293-.2398357-.30030488s-.1498973-.21021341-.2098562-.30030488c.0299794.12012196.0599589.24024391.0899384.36036586.0299794.12012195.0299794.2402439.0599589.36036585l.4197125 3.78384145c.0299795.1801829-.0299795.3303354-.1798768.3903964l-1.0492813.4804878-4.4969199-5.0150915zM51.372074 3.95533527c.449692-.12012195.8694045-.18018293 1.289117-.15015244.4197126.03003049.7794662.15015244 1.1092403.36036585.3297741.18018293.6295688.45045732.899384.81082317.2398357.33033537.449692.7507622.5995893 1.23125.1498973.48048781.2098563.93094513.1798768 1.35137195-.0299795.42042683-.1199179.81082318-.2997947 1.17118903-.1798768.36036585-.4197125.66067073-.7494866.90091463-.3297741.24024391-.7195072.45045732-1.1691992.57057927-.449692.12012195-.899384.18018293-1.289117.15015244-.4197126-.03003049-.7794662-.15015244-1.1392198-.36036585-.3297741-.21021342-.6295687-.45045732-.8993839-.81082317-.2698152-.33033537-.449692-.7507622-.5995894-1.23125-.1498973-.48048781-.1798768-.93094513-.1498973-1.35137195.0299795-.42042683.1498973-.81082318.3297741-1.17118903.1798768-.36036585.449692-.63064024.7794662-.90091463.2398357-.27027439.6295687-.45045732 1.1092402-.57057927zm1.4689938 5.10518293c.509651-.15015244.8394251-.42042683.959343-.84085366.1498973-.42042683.1199178-.93094513-.059959-1.59161586-.1798768-.66067073-.449692-1.11112805-.8094456-1.38140244s-.7494866-.33033536-1.2591375-.18018292c-.509651.15015244-.8394251.42042683-.9893224.84085366-.1498973.42042682-.1199179.96097561.0599589 1.59161585.1798768.66067073.449692 1.11112805.8094456 1.38140244s.7794661.33033536 1.289117.18018293zM57.607803 8.82027429l-.899384-6.24634146.9293634-.12012195c.1798768-.03003049.3297742.03003049.4197125.21021341l.1498974.45045732c.0899384-.15015244.1798768-.27027439.2997946-.39039634.1199179-.12012195.2098563-.21021342.3597536-.33033537.1498974-.12012195.2698152-.18018292.4197126-.2402439.1498973-.06006098.3297741-.12012195.5096509-.15015244.389733-.06006097.7195072 0 1.0193018.18018293.2997947.18018292.509651.42042683.6895278.78079268.0599589-.21021341.1498973-.42042683.2997946-.60060976.1199179-.18018292.2698152-.30030487.4197125-.42042682.1498974-.12012196.3297742-.21021342.5396304-.30030488.1798768-.06006098.3897331-.12012195.5696099-.15015244.3297741-.06006098.6595482-.03003049.9293634.03003049.2698152.06006097.5396304.18018292.7494867.36036585s.389733.39039634.5096509.69070122c.1498973.27027439.2398357.60060976.2997947.9910061l.5696098 3.96402439-1.4989733.21021341-.5696098-3.96402439c-.059959-.39039634-.1798768-.69070122-.3897331-.87088414-.2098563-.18018293-.4796714-.24024391-.8094456-.18018293-.1498973.03003049-.2997946.06006097-.4197125.15015244-.1199179.06006097-.2398357.15015244-.2997947.27027439-.0899384.12012195-.1498973.2402439-.1798768.42042683-.0299794.15015244-.0299794.33033536 0 .54054878l.5696099 3.96402439-1.4989733.21021341-.5696099-3.96402439c-.0599589-.42042683-.1798768-.72073171-.389733-.87088414-.2098563-.18018293-.449692-.24024391-.7794661-.18018293-.2098563.03003049-.4197126.12012195-.5696099.2402439-.1798768.12012195-.3297741.30030488-.449692.51051829l.6595483 4.56463415-1.5889117.2402439zM70.7388091 1.10243893c.3897331 0 .7494867.06006097 1.1092403.18018292s.6295688.30030488.8694045.54054878c.2398357.24024391.449692.54054878.5696098.90091464.1498974.36036585.2098563.75076219.2098563 1.20121951v.30030488c0 .09009146-.0299795.15015244-.0599589.18018293-.0299795.03003048-.059959.06006097-.1199179.09009146-.0299795.03003049-.0899384.03003049-.1798768.03003049l-3.8973306.06006097c.0599589.66067073.2398357 1.11112805.5396304 1.41143293.2997947.30030488.7195072.45045732 1.1991786.45045732.2398358 0 .449692-.03003049.6295688-.09009147.1798768-.06006097.3297742-.12012195.4796715-.21021341.1199179-.06006098.2398357-.15015244.3597536-.18018293.0899384-.06006097.2098562-.09009146.2997946-.09009146.059959 0 .1199179 0 .1498974.03003049.0299794.03003048.0899384.06006097.1199178.09009146l.449692.54054878c-.1798768.21021341-.3597536.36036585-.5696098.51051829-.2098563.15015244-.4197125.2402439-.6595483.33033537-.2398357.09009146-.449692.15015244-.6895277.18018292-.2398357.03003049-.449692.06006098-.6895277.06006098-.449692 0-.8394251-.06006098-1.2291581-.21021341-.3897331-.15015244-.7195072-.36036586-.9893224-.63064025-.2698152-.27027439-.5096509-.63064024-.6595483-1.05106707-.1498973-.42042683-.2398357-.90091464-.2698152-1.4714939 0-.42042683.059959-.84085366.1798768-1.23125.1199179-.39039635.3297742-.72073171.5995894-.9910061.2698152-.2702744.5696098-.5105183.9593429-.69070122.389733-.12012195.8094456-.21021341 1.289117-.2402439zm.0299795 1.11112805c-.449692 0-.7794661.12012195-1.0193019.39039634-.2398357.2402439-.389733.60060975-.4796714 1.08109756l2.8480493-.03003049c0-.21021341-.0299795-.39039634-.0899384-.57057927-.059959-.18018292-.1498974-.33033536-.2398358-.45045732-.1199178-.12012195-.2398357-.2402439-.4197125-.30030487-.1498973-.09009147-.3597536-.12012195-.5995893-.12012195zM75.1457906 7.58902429l.6295688-6.27637195.9293635.09009146c.2098562.0300305.2997946.12012196.3597536.30030488l.0599589.5105183c.1498973-.12012196.2997947-.21021342.449692-.30030488.1498973-.09009147.2997947-.18018293.4796715-.2402439.1498973-.06006098.3297741-.09009147.5096509-.12012196.1798768-.03003048.389733-.03003048.5995893 0 .3297741.0300305.6295688.12012196.899384.2702744.2398357.15015243.449692.33033536.5995893.57057926s.2698152.48048781.3297741.78079269c.059959.30030487.0899384.63064024.0299795.99100609l-.4197125 3.99405488-1.4989733-.15015244.4197125-3.99405488c.0299795-.39039634-.0299795-.69070122-.1798768-.93094512-.1498973-.2402439-.4197125-.36036585-.7794661-.39039634-.2698152-.03003049-.5096509 0-.7494867.09009146-.2398357.09009147-.4796714.24024391-.6895277.42042683l-.449692 4.53460366-1.5289528-.15015244zM82.3408625 7.61905478c.0299795-.12012195.0599589-.2402439.1498973-.33033537.059959-.09009146.1498974-.18018292.2398358-.2402439.0899384-.06006097.2098562-.12012195.3297741-.15015244.1199179-.03003048.2398357-.03003048.3897331 0 .1199178.03003049.2398357.06006098.3297741.15015244.0899384.06006098.1798768.15015244.2398357.2402439.0599589.09009147.1199179.21021342.1498973.33033537.0299795.12012195.0299795.2402439 0 .36036585-.0299794.12012196-.0599589.24024391-.1498973.36036586-.0599589.09009146-.1498973.18018292-.2398357.2402439-.0899384.06006098-.2098563.12012195-.3297741.15015244-.1199179.03003049-.2398358.03003049-.3597536 0-.1199179-.03003049-.2398358-.06006098-.3597536-.15015244-.1199179-.09009146-.1798768-.15015244-.2698152-.2402439-.0899384-.09009147-.1199179-.21021342-.1498974-.33033537 0-.12012195 0-.2402439.0299795-.39039634zM96.6410678 3.08445112l-.389733 1.26128049-3.7474333-1.20121951-.8094456 2.52256097 3.1778234 1.02103659-.4197125 1.26128049-3.1778234-1.02103659-1.1092402 3.4535061-1.5889117-.51051829 2.7281314-8.46859757zM100.0887064 7.25868893c.4197126.18018292.7794666.45045731 1.0792606.7207317.299795.30030488.509651.63064025.629569.9910061.119918.36036586.179877.7507622.149897 1.20121951-.029979.45045732-.149897.87088416-.359753 1.32134146-.209857.4504573-.449692.8408537-.749487 1.1411585-.299795.3003049-.6295687.5405488-.9893223.6907013-.3597536.1501524-.7494866.2102134-1.1691992.2102134-.4197125 0-.839425-.120122-1.2591375-.3303354-.4197126-.1801829-.7794662-.4504573-1.0792608-.7207317-.2997947-.3003049-.5096509-.6306402-.6295688-.9910061-.1199179-.3603658-.1798768-.78079268-.1498973-1.2012195.0299794-.42042683.1498973-.87088415.3597536-1.32134147.2098562-.45045732.4496919-.84085366.7494866-1.14115853.2997947-.30030488.6295688-.54054879.9893224-.66067074.3597536-.15015244.7494866-.21021341 1.1691992-.18018292.4197125.03003048.839425.09009146 1.2591375.27027439zM97.9301849 12.123628c.4796714.2102134.899384.2102134 1.289117 0 .3597536-.2102135.6895278-.6306403.9893224-1.26128054.2997947-.63064024.3597537-1.14115853.2997947-1.56158536-.0899384-.42042683-.3597536-.7507622-.8394251-.96097561-.4796714-.21021342-.9293634-.21021342-1.289117 0-.3597536.21021341-.7195072.63064024-.9893224 1.26128049-.2698152.63064024-.3597536 1.14115853-.2698152 1.56158532.0299795.4204269.3297741.7507622.8094456.9609757zM101.707598 15.1867377l3.117864-5.49557926.779466.45045732c.149898.09009146.209856.15015244.239836.2402439.029979.09009146 0 .18018293-.02998.33033536l-.299794.72073168c.389733-.2402439.779466-.3603658 1.13922-.4204268.389733-.060061.719507.0300305 1.049281.2102134.269815.1501525.449692.3603659.56961.5705793l-.749487.9009146c-.059959.060061-.089938.0900915-.149897.0900915s-.119918 0-.179877-.0300305c-.059959-.0300305-.119918-.0900915-.209856-.1501524-.089939-.0900915-.179877-.1501525-.359754-.2402439-.269815-.1501525-.53963-.2102135-.839425-.180183-.269815.0300305-.56961.180183-.869405.3903964l-1.888706 3.3634146-1.319096-.7507622zM112.200411 14.1056401l.929363.7507622c.089939.060061.149898.1501525.179877.2402439.029979.0900915.029979.180183 0 .2402439l-1.439014 3.1832318c-.089939.1801829-.149898.3303353-.239836.4804878-.089938.1501524-.179877.3003048-.269815.4804878.149897-.120122.299794-.2102135.449692-.3303354.149897-.0900915.299794-.2102134.479671-.3303354l2.937988-1.9519817c.059959-.060061.149897-.060061.239836-.060061.089938 0 .179876.0300305.239835.0900915l.509651.4204268c.089939.060061.149898.1501525.149898.2402439.029979.0900915.029979.180183 0 .2402439l-1.379056 3.3333842c-.059959.1801829-.149897.3303354-.209856.4804878-.059959.1501524-.149897.3003049-.209856.4804878.119917-.1201219.269815-.2402439.419712-.3603659.149897-.1201219.299795-.2402439.449692-.3303353l2.848049-2.0120427c.059959-.060061.149898-.060061.239836-.060061.089939 0 .179877.0300305.269815.120122l.899384.7207317-5.546201 3.633689-.959343-.7807927c-.089938-.0900914-.119918-.2102134-.059959-.3903963l1.409035-3.5435976c.059959-.1201219.089939-.2402439.149897-.3303353.059959-.0900915.119918-.2102135.179877-.3303354-.089938.0900915-.179877.1501524-.299794.2402439-.089939.0900915-.209857.1501524-.299795.2102134l-3.177823 2.1021342c-.149898.0900914-.299795.0900914-.419713 0l-.899384-.7207318 2.428337-6.15625zM122.963039 23.5952743c.329774.3303354.56961.7207317.719507 1.0810976.149898.3903963.209857.7807926.209857 1.171189-.02998.3903963-.119918.7807927-.329775 1.171189-.179876.3903963-.479671.7507622-.839425 1.0810976-.359753.3303353-.749486.6006097-1.139219.7507622-.389733.1801829-.779466.2402439-1.1692.2402439-.389733 0-.779466-.0900915-1.139219-.2702744-.359754-.180183-.719507-.4504573-1.049282-.7807927-.329774-.3303354-.569609-.7207317-.719507-1.0810976-.149897-.3903963-.209856-.7807927-.209856-1.171189.029979-.3903963.119918-.7807927.329774-1.171189.179877-.3903964.479672-.7507622.839425-1.0810976.359754-.3303353.749487-.6006097 1.13922-.7507622.389733-.1501524.779466-.2402439 1.169199-.2402439.389733 0 .779466.0900915 1.13922.2702744.389733.1801829.719507.4504573 1.049281.7807927zm-3.89733 3.6637195c.359753.3903963.749486.5405488 1.169199.4804878.419712-.060061.899384-.3303354 1.379055-.7807927.479672-.4504573.779466-.9009146.869405-1.3513719.089938-.4204269-.059959-.8408537-.419713-1.23125-.359753-.3903964-.749487-.5405488-1.199179-.4804878-.449692.0600609-.899384.3303353-1.379055.7807927-.479671.4504573-.779466.9009146-.869404 1.3513719-.059959.4204268.089938.8408537.449692 1.23125zM121.434086 31.3731706l5.156468-3.633689.539631.7507622c.119918.1501524.119918.3303354 0 .4804878l-.329774.3603659c.149897.0300305.329774.0600609.479671.0900914.149898.0300305.299795.0900915.449692.1501525.149898.0600609.269815.1501524.389733.2702744.119918.0900914.239836.2402439.359754.3903963.239836.3303354.329774.6606707.299795.9910061-.02998.3303354-.149898.6606707-.359754.9609756.239836-.0300305.449692-.0300305.659548 0 .209856.0300305.389733.0900915.56961.1801829.179877.0900915.329774.2102134.479671.3303354.149898.1201219.299795.3003049.389734.4504573.209856.3003049.329774.5705793.389733.8408537.059959.2702744.059959.5705792 0 .8408536s-.179877.5405488-.359754.7807927c-.179877.2402439-.419713.4804878-.749487.6907012l-3.267761 2.3123476-.869405-1.23125 3.267762-2.3123476c.329774-.2402439.53963-.4804878.599589-.7507622.059959-.2702744 0-.5405487-.209856-.8108231-.089938-.120122-.179877-.2402439-.299795-.3003049-.119918-.0900915-.239835-.120122-.389733-.1501524-.149897-.0300305-.299794-.0300305-.449692.0300304-.149897.0300305-.329774.120122-.479671.2402439l-3.267762 2.3123476-.869405-1.2612805 3.267762-2.3123475c.359754-.2402439.539631-.4804879.59959-.7507622.059958-.2402439 0-.5105183-.209857-.7807927-.119918-.180183-.299794-.3003049-.479671-.4204269-.209856-.0900914-.419713-.1501524-.659548-.1801829l-3.777413 2.6727134-.869405-1.23125zM134.265298 39.6615853c.179877.3603658.299794.7207317.329774 1.051067.029979.3603659 0 .6907013-.089938 1.0210366-.119918.3303354-.269816.6306403-.539631.9009147-.239836.2702744-.56961.5405487-.989322.7507622-.089939.0600609-.179877.0900914-.269815.1201219-.059959.0300305-.119918.0300305-.179877.0300305-.059959 0-.089939-.0300305-.119918-.060061-.02998-.0300305-.059959-.0900914-.089938-.1501524l-1.798768-3.4535061c-.539631.3303353-.899384.7207317-1.019302 1.111128-.119918.4204269-.089939.8408537.149897 1.291311.119918.2102134.239836.3903963.359754.5405488.119917.1201219.269815.2402439.389733.3303354.119918.0900914.239835.1501524.329774.2102134.089938.0600609.179877.1501524.209856.2102134.02998.060061.02998.1201219.02998.1501524 0 .060061 0 .0900915-.02998.1501525l-.299795.6606707c-.239835-.060061-.479671-.1501524-.689527-.2702744-.209857-.1201219-.419713-.2702744-.56961-.4504573-.179877-.1801829-.329774-.3603659-.479672-.5405488-.149897-.1801829-.269815-.3903963-.359753-.6006098-.209856-.3903963-.329774-.7807926-.359754-1.2012195-.029979-.4204268 0-.7807926.119918-1.171189.119918-.3903963.329774-.7507622.629569-1.0810975.299795-.3303354.689528-.6306403 1.199178-.8708842.389734-.2102134.779467-.3303354 1.1692-.3603658.389733-.060061.779466-.0300305 1.169199.0900914.359753.0900915.719507.2702744 1.019302.5405488.299794.2702744.53963.6306402.779466 1.0510671zm-.959343.5105183c-.209856-.3903964-.479672-.6306403-.809446-.7507622-.329774-.120122-.719507-.0900915-1.169199.0600609l1.319097 2.522561c.179876-.0900914.329774-.2102134.449692-.3303353.119918-.120122.239835-.2702744.299794-.4204269.059959-.1501524.089939-.3303353.089939-.5105183-.02998-.1801829-.089939-.3603658-.179877-.5705792zM130.487885 46.5085365l5.875975-2.2522866.329775.8708841c.059959.180183.029979.3303354-.119918.4504574l-.419713.2702744c.179877.0600609.329774.1501524.479672.2402439.149897.0900914.299794.2102134.419712.3303353.119918.120122.239836.2702744.359754.4204269.089938.1501524.179877.3303353.269815.5405487.119918.3303354.179877.6306403.149897.9309452 0 .3003048-.089938.5705792-.209856.8108231-.119918.2402439-.329774.4504573-.56961.6606708-.239836.1801829-.53963.3603658-.869404.4804878l-3.747434 1.4414634-.53963-1.4114329 3.747433-1.4414635c.359754-.1501524.59959-.3303353.749487-.5705792.119918-.2402439.149897-.5405488 0-.8708842-.089938-.2402439-.239836-.4504573-.419713-.6306402-.179876-.1801829-.419712-.3303354-.689527-.4504573l-4.257085 1.6216463-.53963-1.4414634z"/></g><ellipse fill="#BE0611" cx="6.7926078" cy="72.0945122" rx="2.99794661" ry="3.00304878"/><ellipse fill="#BE0611" cx="134.997947" cy="72.0945122" rx="2.99794661" ry="3.00304878"/></g><text font-family="Poppins, sans-serif" font-size="43" font-weight="600" fill="#000" transform="translate(0 -1)"><tspan x="12" y="91">REDY</tspan></text></g></svg>