<svg width="200px" height="195px" viewBox="0 0 200 195" xmlns="http://www.w3.org/2000/svg" xmlns:xlink="http://www.w3.org/1999/xlink"><defs><linearGradient x1="41.255%" y1="112.459%" x2="79.395%" y2="8.295%" id="a"><stop stop-color="#FF2E3B" offset="0%"/><stop stop-color="#FF2E3B" stop-opacity=".051" offset="100%"/></linearGradient><path id="b" d="M0 .326h147.731V46H0z"/><path id="d" d="M.412.248h148.359V45.78H.412z"/></defs><g fill="none" fill-rule="evenodd"><path transform="rotate(180 113.5 79)" fill="url(#a)"><animate repeatCount="indefinite" attributeName="d" dur="1.5s" values="M119.405 157.12c76.825-8.884 72.073-28.297 80.025-80.146 7.952-51.849-69.317-89.249-106.826-73.226C55.095 19.77 72.756 48.513 39.381 76.974c-33.376 28.46 3.2 89.029 80.024 80.145z;M122.405 157.12c76.825-8.884 68.073-28.297 83.025-80.146 5.952-51.849-69.317-89.249-106.826-73.226C55.095 22.77 72.756 46.513 42.381 76.974c-33.376 28.46 3.2 89.029 78.024 80.145z;M116.405 157.12c76.825-8.884 70.073-28.297 82.025-80.146 6.952-51.849-69.317-89.249-106.826-73.226C55.095 20.77 72.756 47.513 40.381 76.974c-33.376 28.46 3.2 89.029 79.024 80.145z;M119.405 157.12c76.825-8.884 72.073-28.297 80.025-80.146 7.952-51.849-69.317-89.249-106.826-73.226C55.095 19.77 72.756 48.513 39.381 76.974c-33.376 28.46 3.2 89.029 80.024 80.145z"/></path><circle fill="#FFF" cx="81.5" cy="113.5" r="81.5"/><path d="M46.462 104.968s84.903-7.61 91.531 7.098S149 142.95 149 142.95L79.826 145l-46.908-13.1L23 119.904l23.462-14.936z" fill="#560015"/><path d="M99 138.428s1.598-3.049 2.876-3.201c1.279-.152 11.984-1.372 12.463 0l.799 1.771s0-3.143 3.036-3.6c3.035-.457 8.468-1.874 9.826 5.998L121.05 143s-19.654-1.677-22.05-4.572" fill="#FFF"/><g transform="translate(7 127)"><mask id="c" fill="#fff"><use xlink:href="#b"/></mask><path d="M1.28 4.858S57.29 11.616 67.4 27.992c10.11 16.375 42.967 21.621 58.606 15.58 15.323-5.92 27.461-20.997 18.88-38.802a3.473 3.473 0 0 0-1.666-1.654c-3.092-1.428-11.733-4.652-14.055 2.618-2.844 8.903-29.224 11.288-39.808 2.384 0 0-4.897-2.066-8.53.477L44.81 1.16 5.16.326 1.786 1.36C-.381 2.026-.608 3.6 1.28 4.858" fill="#D7232E" mask="url(#c)"/></g><path d="M66.327 135.613S94.007 147 102.342 147s33.34-2.616 37.115-8.002c3.774-5.385 4.089-6.154 2.988-6.924-1.101-.77-8.335 4.712-8.335 4.712s-9.232 4.929-24.039 3.57c0 0-17.795-1.665-22.041-4.589 0 0-25.163-4.462-21.703-.154M42 130.962L60 132s-13.982-3.698-18-1.038" fill="#BA152D"/><path d="M126 121.358s-5.568 7.93-11.613 7.772c-6.046-.159-10.023-7.772-10.023-7.772s3.75 13.786-4.137 14.433c-2.994.246-4.36.339-6.446.446-4.551.232-6.558.291-10.04 0-5.31-.446-5.718-4.237-5.31-9.804 0 0 1.833 9.073-5.226 9.358-2.628.107-4.162.195-7.023 0-2.828-.192-9.418-.323-10.914-.928-4.513-1.825-3.404-6.332-3.404-6.332s-15.432 3.93-16.864-3.208l1.91-6.82L74.295 112l25.931 2.855L126 119.93v1.428z" fill="#FFF"/><path d="M37.265 123s24.962-7.795 34.915-5.727l30.49 2.227 23.224 1.432L127 117.75 66.966 109l-26.304 5.214L33 119.5l4.265 3.5z" fill="#DCDCDE"/><g transform="translate(8 84)"><mask id="e" fill="#fff"><use xlink:href="#d"/></mask><path d="M147.573 40.4c-2.696-2.226-33.141-55.803-70.88-35.612 0 0-.48.636-1.905.636-.073 0-.138.066-.196.187-.059-.121-.124-.187-.197-.187-1.424 0-1.905-.636-1.905-.636C34.75-15.403 4.306 38.174 1.61 40.4c-2.696 2.226 0 4.134 0 4.134 10.307 4.45 24.102-4.452 24.102-4.452s14.494-9.054 18.235-7.631c4.6 1.749 30.448-2.703 30.448-2.703s.087-1.484.197-3.717c.109 2.233.196 3.717.196 3.717s25.849 4.452 30.447 2.703c3.742-1.423 18.236 7.63 18.236 7.63s13.795 8.904 24.102 4.453c0 0 2.695-1.908 0-4.134" fill="#C50B16" mask="url(#e)"/></g><path d="M131.831 118.271c-.79-1.885-18.511-8.328-21.992-7.542-2.781.627-23.416-.944-23.416-.944l-3.205-.691V109l-.218.047-.218-.047v.094l-3.204.691s-20.635 1.571-23.417.944c-3.48-.786-21.201 5.657-21.992 7.542C33.378 120.157 15 130.138 15 130.138l9.043.862 30.536-10.607L83 117.352l28.421 3.04L141.958 131l9.042-.862s-18.377-9.98-19.169-11.867" fill="#A3010B"/></g></svg>