<svg width="225px" height="213px" viewBox="0 0 225 213" xmlns="http://www.w3.org/2000/svg"><defs><linearGradient x1="118.366%" y1="-3.178%" x2="9.934%" y2="73.415%" id="a"><stop stop-color="#FF2E3B" offset="0%"/><stop stop-color="#FF2E3B" stop-opacity=".051" offset="100%"/></linearGradient></defs><g fill="none" fill-rule="evenodd"><path d="M95.61 162.091c79.49-9.164 74.573-29.192 82.8-82.681 8.228-53.49-71.721-92.073-110.53-75.544-38.81 16.53-20.537 46.182-55.07 75.544-34.533 29.361 3.311 91.846 82.8 82.681z" fill="url(#a)"/><circle fill="#BE0611" cx="143.5" cy="103.5" r="81.5"/><path d="M60.004 195.503l.236.104c.053-.621.962-.884.488-1.727l-.724 1.623zm.326 2.056c-.626 1.686-1.279 3.363-1.855 5.066-.124.368.03.833.056 1.253 1.188-1.945 2.569-3.78 1.8-6.319zm53.611-48.75c-2.595-.556-4.924-1.773-7.16-3.141-1.623-.995-3.127-2.19-4.664-3.325-.366-.27-.66-.328-1.061-.12-1.18.615-2.36 1.168-3.77 1.178-.556.004-1.137.44-1.64.777-.736.495-1.459 1.028-2.103 1.634-.958.902-1.894 1.838-2.732 2.848-.36.434-.53 1.074-.645 1.651-.244 1.232-.844 2.246-1.647 3.17a1.818 1.818 0 0 0-.368.615c-.607 1.915-1.333 3.773-2.407 5.48-.183.29-.246.673-.3 1.024-.233 1.498-.647 2.896-1.73 4.03-.462.482-.668 1.091-.769 1.812-.135.957-.487 1.918-.928 2.782-.798 1.565-1.71 3.073-2.616 4.58-.675 1.123-1.445 2.182-2.679 2.772-.98.468-1.362 1.453-1.992 2.23-.755.928-1.502 1.895-2.412 2.656-.982.819-1.273 1.957-1.755 3.018-.064.14.088.523.237.6.887.453 1.112 1.336 1.402 2.134.305.84-.874 1.994-1.742 1.777-1.005-.253-1.864-.659-2.05-1.855-.018-.12-.476-.298-.685-.254-1.283.27-2.203 1.057-2.924 2.123-.294.436-.662.823-1.014 1.218-.492.551-.539 1.304-.851 1.916-.853 1.67-.984 3.492-1.257 5.288-.111.733-.016 1.51-.186 2.222-.194.815-.628 1.565-.871 2.37a209.9 209.9 0 0 0-1.556 5.493c-.06.218.043.477.033.715-.013.33.006.684-.108.98a14.646 14.646 0 0 1-.895 1.95c-.148.265-.527.642-.71.595-.49-.124-.347-.536-.17-.887.06-.122.072-.269.13-.5-.34.266-.58.584-.87.635-.216.038-.498-.27-.75-.423l-.065-.262c-.35.268-.696.542-1.05.802-.142.104-.304.179-.457.267-.102-.175-.3-.358-.288-.523.039-.551.156-1.096.235-1.645.02-.134.008-.274-.154-.442-.095.426-.15.868-.3 1.272-.072.19-.348.46-.494.437-.779-.125-1.546-.33-2.482-.546l-.446 2.333-.359-.064c.147-1.116.32-2.228.434-3.347.102-.988.094-1.99.226-2.971.067-.498.217-1.077.539-1.426 1.017-1.104 1.682-2.428 2.458-3.684.739-1.195 1.435-2.417 2.191-3.6.28-.44.762-.76 1.003-1.214.38-.717.705-1.48.929-2.262.788-2.755 2.27-5.019 4.448-6.874.895-.763 1.797-1.438 2.923-1.802.559-.18.753-.629.734-1.181-.027-.792.367-1.278 1.162-1.208.943.082 1.732-.05 2.26-.906.047-.076.146-.124.227-.176.76-.49 1.39-1.023 1.6-2.015.249-1.166 1.093-1.992 2.122-2.514.924-.47 1.355-1.324 1.935-2.067.653-.836 1.219-1.745 1.91-2.546.347-.401.872-.664 1.347-.935.652-.372.972-.938.997-1.656.046-1.27.717-2.314 1.29-3.335.683-1.22 1.108-2.472 1.46-3.814.268-1.016.907-1.944 1.468-2.857.344-.56.621-1.066.688-1.768.072-.765.368-1.55.743-2.227.45-.81 1.12-1.493 1.628-2.276.24-.37.382-.832.467-1.274.273-1.415.862-2.623 1.869-3.677.428-.448.637-1.156.81-1.785.678-2.472 2.337-3.99 4.725-4.606 1.318-.34 2.506-.812 3.614-1.565.37-.253.813-.422 1.247-.555.362-.111.458-.253.345-.624-.493-1.618-.221-2.392 1.134-3.342l13.142 12.691z" fill="#C4D1D9"/><path d="M149.895 67.685s10.778-10.908 16.878-11.958c0 0 8.599-1.266 15.387 3.476a16.802 16.802 0 0 1 1.64 1.302l.057.051a16.334 16.334 0 0 1 .91.893c1.538 1.63 2.873 3.702 3.84 6.33 0 0 4.316 10.492-8.422 23.165l-60.297 61.275s-3.1 3.07-5.864.786c0 0-1.17-.785-2.925-2.09a78.677 78.677 0 0 1-.757-.568c-1.921-1.456-4.356-3.402-6.701-5.565a76.19 76.19 0 0 1-.343-.318c-.115-.107-.228-.215-.342-.323-2.199-2.086-4.265-4.342-5.684-6.534a18.586 18.586 0 0 1-.385-.622l-.12-.206a14.103 14.103 0 0 1-.578-1.11s-3.133-4.98 1.338-9.194l52.368-58.79z" fill="#FFF"/><path d="M110.82 150.196L164.15 96.27a144.24 144.24 0 0 1 4.757-4.587c8.363-7.694 11.994-15.386 13.567-20.483.943-3.06 1.28-6.8 1.399-9.057.03-.583.047-1.067.054-1.414l.003-.1c.02.016.038.033.057.05a16.602 16.602 0 0 1 .915.899c-.04 2.065-.298 5.912-1.5 9.832-1.022 3.328-2.533 6.621-4.492 9.787-2.445 3.95-5.596 7.713-9.367 11.182a142.767 142.767 0 0 0-4.724 4.555l-53.237 53.833c-.243-.18-.497-.372-.76-.572" fill="#C4D1D9"/><path d="M183.982 60.666l1.437 1.388-80.81 83.682-1.438-1.388z"/><path d="M103.69 144.85l59.864-62.277a36.626 36.626 0 0 0 2.699-2.98c6.988-8.65 15.942-16.307 18.292-18.264l.061-.05c.273.25.543.51.808.78a22.78 22.78 0 0 1-.792.759l-.032.027c-1.972 1.604-10.444 8.69-17.51 17.435a37.088 37.088 0 0 1-2.762 3.058l-59.838 62.254-.395-.368a70.162 70.162 0 0 1-.395-.375M97.371 136.904l54.288-57.517a85.727 85.727 0 0 0 7.607-8.605c3.109-4.015 6.743-6.976 10.835-8.833a25.403 25.403 0 0 1 2.895-1.106c4.22-1.322 7.697-1.166 9.005-1.107.084.003.421-.017.78-.042.388.275.772.568 1.148.882-.544.055-1.522.138-1.949.118-10.914-.49-17.958 5.538-21.937 10.678a86.719 86.719 0 0 1-7.7 8.705l-54.44 57.677a22.648 22.648 0 0 1-.406-.638c-.043-.07-.084-.142-.126-.212" fill="#C4D1D9"/></g></svg>