<svg width="241px" height="650px" viewBox="0 0 241 650" xmlns="http://www.w3.org/2000/svg" xmlns:xlink="http://www.w3.org/1999/xlink"><defs><circle id="a" cx="333.5" cy="333.5" r="333.5"/><linearGradient x1="13.911%" y1="4.411%" x2="93.277%" y2="32.009%" id="b"><stop stop-color="#E21D29" offset="0%"/><stop stop-color="#E21D29" offset="20.17%"/><stop stop-color="#C30A15" offset="77.177%"/><stop stop-color="#EE3F4A" offset="100%"/></linearGradient><linearGradient x1="13.911%" y1="4.382%" x2="93.277%" y2="31.997%" id="d"><stop stop-color="#E21D29" offset="0%"/><stop stop-color="#E21D29" offset="20.17%"/><stop stop-color="#C30A15" offset="77.177%"/><stop stop-color="#EE3F4A" offset="100%"/></linearGradient><radialGradient cx="100%" cy="-16.153%" fx="100%" fy="-16.153%" r="94.135%" gradientTransform="scale(-1 -.7675) rotate(-48.456 .413 2.247)" id="e"><stop stop-color="#FF2E3B" offset="0%"/><stop stop-color="#A01019" offset="22.696%"/><stop stop-color="#FF2E3B" stop-opacity=".5" offset="68.133%"/><stop stop-color="#FF2E3B" stop-opacity=".1" offset="100%"/></radialGradient></defs><g transform="translate(0 -13)" fill="none" fill-rule="evenodd"><mask id="c" fill="#fff"><use xlink:href="#a"/></mask><use fill="#BE0611" xlink:href="#a"/><path d="M585 468.005c0-90.943-9.264-152.246-110.843-152.246-128.605 0-139.912 72.18-240.16 29.467-95.49-40.687-56.81-169.282-199.036-193.61-7.088-1.213-14.625-2.166-22.65-2.837C-100.4 139.36-155.823 98.433-153.955 26v498.57h715.862C577.303 547.487 585 528.632 585 468.004z" fill="url(#b)" opacity=".5" mask="url(#c)"/><path d="M667 241.778c0-117.438-11.96-196.602-143.091-196.602-166.02 0-180.617 93.21-310.031 38.052C84.464 28.07 145.948-152.205-72.304-170.45-217.806-182.614-289.352-235.464-286.941-329v643.822h924.13C657.063 344.418 667 320.07 667 241.778z" fill="url(#d)" mask="url(#c)" transform="rotate(-180 190 -1)"/><rect fill="url(#e)" opacity=".445" mask="url(#c)" x="-16" y="-20" width="548" height="714" rx="5"/></g></svg>