<svg width="195px" height="213px" viewBox="0 0 195 213" xmlns="http://www.w3.org/2000/svg"><defs><linearGradient x1="41.255%" y1="112.459%" x2="79.395%" y2="8.295%" id="a"><stop stop-color="#FF2E3B" offset="0%"/><stop stop-color="#FF2E3B" stop-opacity=".051" offset="100%"/></linearGradient></defs><g fill="none" fill-rule="evenodd"><path fill="url(#a)" transform="rotate(180 86.5 79)"><animate repeatCount="indefinite" attributeName="d" dur="1.5s" values="M92.405 157.12c76.825-8.884 72.073-28.297 80.025-80.146 7.952-51.849-69.317-89.249-106.826-73.226C28.095 19.77 45.756 48.513 12.381 76.974c-33.376 28.46 3.2 89.029 80.024 80.145z;M89.405 157.12c76.825-8.884 73.073-28.297 75.025-80.146 5.952-51.849-69.317-89.249-106.826-73.226C28.095 17.77 42.756 42.513 10.381 76.974c-33.376 28.46 1.2 87.029 82.024 80.145z;M88.405 157.12c76.825-8.884 71.073-28.297 79.025-80.146 6.952-51.849-69.317-89.249-106.826-73.226C28.095 18.77 44.756 44.513 11.381 76.974c-33.376 28.46 2.2 88.029 81.024 80.145z;M92.405 157.12c76.825-8.884 72.073-28.297 80.025-80.146 7.952-51.849-69.317-89.249-106.826-73.226C28.095 19.77 45.756 48.513 12.381 76.974c-33.376 28.46 3.2 89.029 80.024 80.145z"/></path><circle fill="#BE0611" cx="113.5" cy="131.5" r="81.5"/><path d="M65.867 111.788a6.377 6.377 0 0 0-.651 6.84c5.916 11.577 3.948 17.044 3.948 17.044-.737 2.9-20.576 26.863-20.576 26.863-9.569 15.74 10.279 31.995 11.828 33.229 1.444 1.355 20.391 18.651 34.587 6.912 0 0 20.852-23.086 23.615-24.234 0 0 5.127-2.735 17.435 1.45 2.355.8 4.96.169 6.674-1.63l16.605-17.438a8.85 8.85 0 0 0 2.436-6.393c-.112-3.424-.998-10.503-3.464-20.008a1.911 1.911 0 0 1 .479-1.812c3.562-3.67 18.63-19.409 20.28-24.7 0 0 8.278-18.886-12.789-34.549-18.537-18.588-36.031-7.674-36.031-7.674-4.998 2.396-18.4 19.576-21.518 23.63a1.911 1.911 0 0 1-1.724.735c-9.762-1.07-16.894-.926-20.299-.542a8.85 8.85 0 0 0-5.975 3.332l-14.86 18.945z" fill="#E6ECF0"/><path d="M164.054 81.112c7.523 6.506 8.362 17.976 1.864 25.489l-69.786 80.692c-6.497 7.513-17.968 8.337-25.49 1.83l-5.067-4.38c-7.522-6.506-8.36-17.976-1.864-25.489l69.787-80.692c6.497-7.513 17.968-8.337 25.49-1.831l5.066 4.381z" fill="#FFF"/><path d="M117.037 108.486c-7.293 18.067-30.908 36.276-30.908 36.276-13.77 11.193-2.125 21.278-.873 22.3 1.192 1.091 12.85 11.161 21.94-4.08 0 0 14.614-25.994 31.441-35.816 0 0 19.579-14.431 4.97-27.363l.004-.004-.107-.089c-.035-.03-.067-.062-.103-.092l-.003.003c-14.903-12.59-26.361 8.865-26.361 8.865" fill="#EBF1F5"/></g></svg>