<svg width="207px" height="228px" viewBox="0 0 207 228" xmlns="http://www.w3.org/2000/svg" xmlns:xlink="http://www.w3.org/1999/xlink"><defs><linearGradient x1="118.366%" y1="-3.517%" x2="9.934%" y2="73.564%" id="a"><stop stop-color="#FF2E3B" offset="0%"/><stop stop-color="#FF2E3B" stop-opacity=".051" offset="100%"/></linearGradient><path id="b" d="M.225.068h52.4V7H.226z"/></defs><g fill="none" fill-rule="evenodd"><path fill="url(#a)"><animate repeatCount="indefinite" attributeName="d" dur="1.5s" values="M98.815 168.058c82.154-9.502 77.072-30.267 85.576-85.725 8.503-55.459-74.126-95.462-114.236-78.324C30.044 21.146 48.93 51.89 13.239 82.333c-35.69 30.442 3.422 95.227 85.576 85.725z;M101.815 170.058c82.154-9.502 79.072-30.267 80.576-85.725 6.503-55.459-74.126-95.462-114.236-78.324C30.044 18.146 46.93 49.89 15.239 86.333c-35.69 32.442 1.422 99.227 88.576 82.725z;M100.815 172.058c82.154-9.502 78.072-30.267 83.576-85.725 7.503-55.459-74.126-95.462-114.236-78.324C30.044 20.146 47.93 50.89 14.239 84.333c-35.69 31.442 2.422 97.227 87.576 84.725z;M98.815 168.058c82.154-9.502 77.072-30.267 85.576-85.725 8.503-55.459-74.126-95.462-114.236-78.324C30.044 21.146 48.93 51.89 13.239 82.333c-35.69 30.442 3.422 95.227 85.576 85.725z"/></path><circle fill="#FFF" cx="125.5" cy="146.5" r="81.5"/><path d="M49 171c.075-.221 14.7-23 14.7-23l11.925 2.138L82 159.5s-18.3 9.583-19.05 9.657C62.2 169.23 49 171 49 171" fill="#560015"/><path d="M82.077 161s-12.83-2.71-12.84-9.802c0 0-8.156 3.77-5.815-2.865L68.03 142l22.658 2.036L107 149.69v4.75l-5.513 6.56h-19.41z" fill="#DCDCDE"/><path d="M51 168s40.9-4.398 43-16c0 0-28.848 1.478-43 16" fill="#CC1F30"/><path d="M203 171c-.075-.221-14.7-23-14.7-23l-11.925 2.138L170 159.5s18.3 9.583 19.05 9.657C189.8 169.23 203 171 203 171" fill="#560015"/><path fill="#F26674" d="M180 139.238L165.235 119l-39.35 6.608h-.77L85.766 119 71 139.238l17.623 7.097 35.927 14.866-.03.799.98-.406.98.406-.03-.799 35.927-14.866z"/><path d="M169.923 161s12.83-2.71 12.84-9.802c0 0 8.156 3.77 5.815-2.865L183.97 142l-22.658 2.036L145 149.69v4.75l5.513 6.56h19.41z" fill="#DCDCDE"/><path d="M177.112 136.095l-3.38 3.43c3.154-7.902-3.382-10.064-7.063-10.51-3.68-.448-8.489 9.839-8.489 9.839.676-8.274-2.028-7.902-2.028-7.902-5.41-1.565-12.997 15.505-12.997 15.505 1.352-7.902-1.721-14.113-11.262-13.74-2.984.116-5.013 2.174-6.393 4.948-1.38-2.774-3.41-4.832-6.393-4.949-9.541-.372-12.614 5.84-11.262 13.74 0 0-7.588-17.07-12.997-15.504 0 0-2.704-.372-2.028 7.902 0 0-4.808-10.287-8.49-9.84-3.68.447-10.216 2.609-7.061 10.51l-3.38-3.429L66 143.997s1.202 4.696 8.64 2.012l2.93-1.267s1.727 11.107 7.136 11.256c5.41.149 9.55-6.784 9.55-6.784l1.043 5.74 30.201-1.495 30.2 1.495 1.045-5.74s4.14 6.933 9.549 6.784c5.409-.15 7.136-11.256 7.136-11.256l2.93 1.267c7.438 2.684 8.64-2.012 8.64-2.012l-7.888-7.902z" fill="#FFF"/><path d="M203.679 171.245c-21.644-24.865-72.02-18.818-77.679-18.05-5.659-.768-56.035-6.815-77.679 18.05L45 174.241s21.953 4.082 34.121 9.287c10.307 4.41 42.395 1.659 46.88 1.248 4.483.41 36.571 3.162 46.878-1.248 12.168-5.205 34.121-9.287 34.121-9.287l-3.321-2.996z" fill="#D7232E"/><path d="M201 168s-40.9-4.398-43-16c0 0 28.848 1.478 43 16" fill="#CC1F30"/><g transform="translate(99 179)"><mask id="c" fill="#fff"><use xlink:href="#b"/></mask><path d="M52.626 7C51.072 4.942 33.36 1.521 27.398.42V.069s-.353.062-.973.175c-.62-.113-.973-.175-.973-.175V.42C19.491 1.52 1.78 4.94.225 7c0 0 19.38-.431 26.2-.874 6.82.443 26.2.873 26.2.873" fill="#CC1F30" mask="url(#c)"/></g><path d="M125.5 107.966c-5.016-1.19-21.75-4.012-34.74.24C79.17 112 48.244 132.925 45 175l3.526-4.22a8.612 8.612 0 0 0 2.142-2.334c4.309-6.903 23.145-40.279 44.428-38.902 21.239 1.374 12.162 2.895 29.424 3.27v.036c.335-.005.66-.01.98-.017l.98.017v-.037c17.262-.374 8.185-1.895 29.424-3.27 21.283-1.376 40.12 32 44.427 38.903a8.621 8.621 0 0 0 2.143 2.333L206 175c-3.244-42.075-36-63-45.76-66.794-6.872-6.408-29.724-1.43-34.74-.24z" fill="#C50B16"/></g></svg>