<svg width="267px" height="195px" viewBox="0 0 267 195" xmlns="http://www.w3.org/2000/svg"><defs><linearGradient x1="110.334%" y1="80.267%" x2="17.966%" y2="-10.22%" id="a"><stop stop-color="#FF2E3B" offset="0%"/><stop stop-color="#FF2E3B" stop-opacity=".051" offset="100%"/></linearGradient></defs><g transform="translate(0 -24.459)" fill="none" fill-rule="evenodd"><path d="M109.815 196.516c82.154-9.501 77.072-30.266 85.576-85.725 8.503-55.458-74.126-95.462-114.236-78.324C41.044 49.605 59.93 80.35 24.239 110.791c-35.69 30.443 3.422 95.227 85.576 85.725z" fill="url(#a)"/><circle fill="#BE0611" cx="149.5" cy="109.959" r="81.5"/><path d="M11.004 201.962l.236.103c.053-.62.962-.884.488-1.726l-.724 1.623zm.326 2.056c-.626 1.686-1.279 3.362-1.855 5.066-.124.367.03.833.056 1.253 1.188-1.946 2.569-3.78 1.8-6.32zm53.611-48.751c-2.595-.555-4.924-1.772-7.16-3.14-1.623-.995-3.127-2.19-4.664-3.325-.366-.27-.66-.329-1.061-.12-1.18.615-2.36 1.168-3.77 1.178-.556.004-1.137.44-1.64.777-.736.494-1.459 1.027-2.103 1.634-.958.901-1.894 1.837-2.732 2.848-.36.433-.53 1.074-.645 1.65-.244 1.233-.844 2.247-1.647 3.17a1.818 1.818 0 0 0-.368.615c-.607 1.916-1.333 3.774-2.407 5.481-.183.29-.246.673-.3 1.024-.233 1.497-.647 2.896-1.73 4.03-.462.481-.668 1.09-.769 1.811-.135.958-.487 1.918-.928 2.783-.798 1.565-1.71 3.073-2.616 4.58-.675 1.123-1.445 2.182-2.679 2.771-.98.469-1.362 1.453-1.992 2.23-.755.929-1.502 1.896-2.412 2.656-.982.82-1.273 1.958-1.755 3.018-.064.14.088.524.237.6.887.454 1.112 1.336 1.402 2.134.305.84-.874 1.995-1.742 1.777-1.005-.252-1.864-.658-2.05-1.854-.018-.12-.476-.299-.685-.255-1.283.271-2.203 1.058-2.924 2.124-.294.435-.662.823-1.014 1.217-.492.552-.539 1.305-.851 1.917-.853 1.67-.984 3.492-1.257 5.288-.111.733-.016 1.509-.186 2.222-.194.814-.628 1.565-.871 2.37a209.9 209.9 0 0 0-1.556 5.492c-.06.218.043.477.033.715-.013.33.006.684-.108.981a14.646 14.646 0 0 1-.895 1.95c-.148.265-.527.642-.71.595-.49-.125-.347-.536-.17-.888.06-.121.072-.268.13-.499-.34.266-.58.583-.87.634-.216.038-.498-.269-.75-.423l-.065-.261c-.35.268-.696.541-1.05.802-.142.103-.304.179-.457.267-.102-.175-.3-.358-.288-.523.039-.552.156-1.096.235-1.645.02-.135.008-.275-.154-.443-.095.427-.15.868-.3 1.273-.072.19-.348.46-.494.436-.779-.124-1.546-.33-2.482-.546l-.446 2.333-.359-.064c.147-1.115.32-2.228.434-3.347.102-.987.094-1.989.226-2.97.067-.498.217-1.077.539-1.426 1.017-1.105 1.682-2.429 2.458-3.684.739-1.195 1.435-2.417 2.191-3.601.28-.44.762-.76 1.003-1.214.38-.716.705-1.48.929-2.261.788-2.756 2.27-5.02 4.448-6.875.895-.762 1.797-1.437 2.923-1.802.559-.18.753-.628.734-1.18-.027-.792.367-1.279 1.162-1.209.943.083 1.732-.05 2.26-.905.047-.077.146-.124.227-.176.76-.49 1.39-1.024 1.6-2.016.249-1.166 1.093-1.991 2.122-2.514.924-.469 1.355-1.323 1.935-2.066.653-.837 1.219-1.745 1.91-2.546.347-.402.872-.664 1.347-.936.652-.372.972-.937.997-1.656.046-1.269.717-2.314 1.29-3.335.683-1.22 1.108-2.471 1.46-3.814.268-1.015.907-1.944 1.468-2.857.344-.56.621-1.066.688-1.767.072-.766.368-1.55.743-2.227.45-.811 1.12-1.494 1.628-2.277.24-.37.382-.832.467-1.274.273-1.414.862-2.622 1.869-3.676.428-.448.637-1.157.81-1.786.678-2.472 2.337-3.989 4.725-4.606 1.318-.34 2.506-.812 3.614-1.565.37-.252.813-.422 1.247-.555.362-.11.458-.252.345-.624-.493-1.618-.221-2.392 1.134-3.341l13.142 12.69z" fill="#C4D1D9"/><path d="M100.895 74.144s10.778-10.908 16.878-11.959c0 0 8.599-1.265 15.387 3.476a16.802 16.802 0 0 1 1.64 1.303c.02.016.038.033.057.05a16.334 16.334 0 0 1 .91.894c1.538 1.63 2.873 3.702 3.84 6.33 0 0 4.316 10.491-8.422 23.165l-60.297 61.274s-3.1 3.07-5.864.787c0 0-1.17-.786-2.925-2.09a78.677 78.677 0 0 1-.757-.568c-1.921-1.457-4.356-3.402-6.701-5.565a76.19 76.19 0 0 1-.343-.319c-.115-.107-.228-.214-.342-.323-2.199-2.086-4.265-4.342-5.684-6.534a18.586 18.586 0 0 1-.385-.622l-.12-.206a14.103 14.103 0 0 1-.578-1.11s-3.133-4.979 1.338-9.194l52.368-58.79z" fill="#FFF"/><path d="M61.82 156.654l53.329-53.924a144.24 144.24 0 0 1 4.757-4.587c8.363-7.695 11.994-15.387 13.567-20.484.943-3.059 1.28-6.8 1.399-9.056.03-.583.047-1.068.054-1.414l.003-.101.057.051a16.602 16.602 0 0 1 .915.898c-.04 2.066-.298 5.913-1.5 9.832-1.022 3.329-2.533 6.621-4.492 9.788-2.445 3.95-5.596 7.712-9.367 11.182a142.767 142.767 0 0 0-4.724 4.555L62.58 157.227c-.243-.18-.497-.372-.76-.573" fill="#C4D1D9"/><path d="M134.982 67.125l1.437 1.388-80.81 83.682-1.438-1.388z"/><path d="M54.69 151.308l59.864-62.276a36.626 36.626 0 0 0 2.699-2.981c6.988-8.65 15.942-16.306 18.292-18.264l.061-.05c.273.25.543.511.808.781a22.78 22.78 0 0 1-.792.758l-.032.027c-1.972 1.604-10.444 8.69-17.51 17.436a37.088 37.088 0 0 1-2.762 3.057L55.48 152.05l-.395-.368a70.162 70.162 0 0 1-.395-.374M48.371 143.363l54.288-57.517a85.727 85.727 0 0 0 7.607-8.605c3.109-4.015 6.743-6.976 10.835-8.833a25.403 25.403 0 0 1 2.895-1.106c4.22-1.322 7.697-1.167 9.005-1.107.084.003.421-.018.78-.042.388.274.772.568 1.148.881-.544.055-1.522.138-1.949.119-10.914-.49-17.958 5.538-21.937 10.677a86.719 86.719 0 0 1-7.7 8.705l-54.44 57.677a22.648 22.648 0 0 1-.406-.638c-.043-.07-.084-.141-.126-.211" fill="#C4D1D9"/><g><path d="M147.521 75.701a6.61 6.61 0 0 0-.7 7.072c6.06 11.94 4.007 17.599 4.007 17.599-.772 3-21.35 27.846-21.35 27.846-9.943 16.307 10.48 33.026 12.075 34.295 1.486 1.395 20.976 19.194 35.679 7.004 0 0 21.62-23.945 24.477-25.142 0 0 5.304-2.848 17.994 1.427a6.61 6.61 0 0 0 6.897-1.712L243.812 126a9.22 9.22 0 0 0 2.541-6.617c-.1-3.538-.987-10.85-3.494-20.665-.17-.667.02-1.377.501-1.874 3.693-3.808 19.312-20.135 21.038-25.61 0 0 8.621-19.552-13.064-35.655-19.061-19.136-37.166-7.786-37.166-7.786-5.17 2.498-19.075 20.307-22.31 24.51a1.988 1.988 0 0 1-1.783.767c-10.074-1.066-17.438-.889-20.954-.478a9.221 9.221 0 0 0-6.182 3.468L147.521 75.7z" fill="#E6ECF0"/><path d="M249.011 43.599c7.74 6.693 8.56 18.544 1.821 26.335l-72.372 83.68c-6.739 7.79-18.584 8.688-26.324 1.995l-5.212-4.507c-7.74-6.694-8.559-18.545-1.82-26.335l72.372-83.68c6.738-7.791 18.584-8.69 26.323-1.996l5.212 4.508z" fill="#FFF"/><path d="M200.36 72.08c-7.6 18.702-32.054 37.618-32.054 37.618-14.263 11.624-2.28 22-.992 23.05 1.225 1.124 13.22 11.484 22.666-4.305 0 0 15.193-26.925 32.604-37.143 0 0 20.271-14.995 5.243-28.301l.003-.004c-.036-.032-.073-.06-.11-.092-.036-.031-.069-.063-.105-.095l-.004.004c-15.335-12.952-27.25 9.268-27.25 9.268" fill="#EBF1F5"/></g></g></svg>