<svg width="553px" height="485px" viewBox="0 0 553 485" xmlns="http://www.w3.org/2000/svg" xmlns:xlink="http://www.w3.org/1999/xlink"><defs><circle id="a" cx="368" cy="368" r="368"/><linearGradient x1="13.9105362%" y1="4.28765347%" x2="93.2772236%" y2="31.9600527%" id="b"><stop stop-color="#E21D29" offset="0%"/><stop stop-color="#E21D29" offset="20.1703648%"/><stop stop-color="#C30A15" offset="77.1773496%"/><stop stop-color="#EE3F4A" offset="100%"/></linearGradient><linearGradient x1="13.9105362%" y1="4.39175087%" x2="93.2772236%" y2="32.0011338%" id="d"><stop stop-color="#E21D29" offset="0%"/><stop stop-color="#E21D29" offset="20.1703648%"/><stop stop-color="#C30A15" offset="77.1773496%"/><stop stop-color="#EE3F4A" offset="100%"/></linearGradient><radialGradient cx="100%" cy="-16.1534288%" fx="100%" fy="-16.1534288%" r="94.1173453%" gradientTransform="matrix(-.66332 .57454 -.74833 -.50928 1.5424423 -.81834405)" id="e"><stop stop-color="#FF2E3B" offset="0%"/><stop stop-color="#A01019" offset="22.6956949%"/><stop stop-color="#FF2E3B" stop-opacity=".5" offset="68.133274%"/><stop stop-color="#FF2E3B" stop-opacity=".1" offset="100%"/></radialGradient></defs><g fill="none" fill-rule="evenodd"><mask id="c" fill="#fff"><use xlink:href="#a"/></mask><use fill="#BE0611" xlink:href="#a"/><path d="M645.5 517.119321c0-100.430974-10.216929-168.129988-122.242449-168.129988-141.83029 0-154.300253 79.711326-264.85864 32.541288-105.310325-44.930938-62.651546-186.943363-219.5053719-213.809505-7.8166938-1.338854-16.1288678-2.391748-24.9795267-3.132416C-110.387697 154.186505-171.508921 108.990271-169.449661 29v550.585459h789.482484C637.010941 604.89535 645.5 584.073304 645.5 517.119321z" fill="url(#b)" opacity=".5" mask="url(#c)"/><path d="M736.5 266.943652c0-129.611453-13.200523-216.9805913-157.940244-216.9805913-183.248215 0-199.359714 102.8716573-342.203863 41.9962435C93.5117443 31.08389 161.376693-167.878782-79.5245951-188.015652-240.125454-201.440233-319.095576-259.768349-316.434961-363v710.559488H703.595782C725.531927 380.223233 736.5 353.351287 736.5 266.943652z" fill="url(#d)" mask="url(#c)" transform="rotate(-180 210 -1)"/><rect fill="url(#e)" opacity=".44508929" mask="url(#c)" x="-17.5" y="-22" width="605" height="788" rx="5"/></g></svg>