<svg width="225px" height="185px" viewBox="0 0 225 185" xmlns="http://www.w3.org/2000/svg" xmlns:xlink="http://www.w3.org/1999/xlink"><defs><linearGradient x1="118.366%" y1="-3.178%" x2="9.934%" y2="73.415%" id="a"><stop stop-color="#FF2E3B" offset="0%"/><stop stop-color="#FF2E3B" stop-opacity=".051" offset="100%"/></linearGradient><path id="b" d="M0 .536h128.953v43.688H0z"/></defs><g fill="none" fill-rule="evenodd"><path fill="url(#a)"><animate repeatCount="indefinite" attributeName="d" dur="1.5s" values="M95.61 162.091c79.49-9.164 74.573-29.192 82.8-82.681 8.228-53.49-71.721-92.073-110.53-75.544-38.81 16.53-20.537 46.182-55.07 75.544-34.533 29.361 3.311 91.846 82.8 82.681z;M98.61 163.091c79.49-9.164 72.573-29.192 80.8-82.681 5.228-53.49-71.721-92.073-110.53-75.544-38.81 12.53-20.537 42.182-55.07 76.544-34.533 29.361 7.311 88.846 78.8 81.681z;M101.61 166.091c79.49-9.164 73.573-29.192 84.8-82.681 7.228-53.49-71.721-92.073-110.53-75.544-38.81 14.53-20.537 44.182-55.07 78.544-34.533 29.361 5.311 90.846 80.8 87.681z;M95.61 162.091c79.49-9.164 74.573-29.192 82.8-82.681 8.228-53.49-71.721-92.073-110.53-75.544-38.81 16.53-20.537 46.182-55.07 75.544-34.533 29.361 3.311 91.846 82.8 82.681z"/></path><circle fill="#FFF" cx="143.5" cy="103.5" r="81.5"/><g transform="translate(81 98)"><mask id="c" fill="#fff"><use xlink:href="#b"/></mask><path d="M64.476 12.212A197.02 197.02 0 0 1 0 .536C-.017.6 11.715 13.556 19.932 24.823c9.617 13.725 30.473 19.708 44.544 19.39 14.071.318 34.928-5.665 44.545-19.39C117.24 13.556 128.971.6 128.954.536a197.024 197.024 0 0 1-64.478 11.676" fill="#D7232E" mask="url(#c)"/></g><path d="M210 98.315c.052.184-19.2 9.755-31.915 9.497-9.489.194-23.123 4.162-29.305 5.74a12.243 12.243 0 0 1-6.56 0c-6.183-1.578-19.818-5.546-29.306-5.74-12.715.258-31.967-9.313-31.914-9.497 0-.01 4.967-1.676 11.708-3.81 9.357-2.85 22.228-7.161 29.333-6.42 6.656.793 13.049 2.654 17.472 4.129a18.596 18.596 0 0 0 11.974 0c4.422-1.475 10.814-3.336 17.472-4.13 7.104-.74 19.975 3.571 29.333 6.421 6.74 2.133 11.706 3.8 11.708 3.81" fill="#C50B16"/><path d="M210 98.909c.052.188-19.2 10.008-31.915 9.742-9.489.2-23.123 4.27-29.305 5.89a11.945 11.945 0 0 1-6.56 0c-6.183-1.62-19.818-5.69-29.306-5.89-12.715.266-31.967-9.554-31.914-9.742 0-.01 4.967-1.72 11.708-3.909 6.235 4.22 16.366 9.727 27.555 11.157 18.562 2.185 25.25 4.278 25.236 4.459-.014-.18 6.676-2.273 25.238-4.46 11.188-1.43 21.32-6.935 27.555-11.156 6.74 2.188 11.706 3.899 11.708 3.909" fill="#A3010B"/></g></svg>