<svg width="276px" height="258px" viewBox="0 0 276 258" xmlns="http://www.w3.org/2000/svg"><g fill-rule="nonzero" fill="none"><path d="M9.13283954 83.4268362S60.6255407 20.9482998 84.10784947.80568065c0 0 52.1651775 36.64163247 90.41466888 54.47766322l-43.8835645 94.10860778L27.1198042 80.31879244 9.13283954 83.42683619z" fill="#C70C16"/><path d="M258.20471992 200.80496386s14.76246503-79.606127 15.09846992-110.54204489c0 0-61.60024905-16.40805717-99.84974025-34.24408784L129.569885 150.12743908l119.45393671 34.90089829 9.1808982 15.77662649z" fill="#C70C16"/><path d="M263.50928397 180.0577423l.13451058.06272331.79794134-19.03611882-121.69794547-36.46820014-106.1413117-69.82950776-14.06960625 12.84743983.13451011.0627231C14.25006171 75.32943577 7.43583882 84.90898996.47735474 97.25618008c0 0 76.12986544 43.35045 67.7912121 144.46264183 0 0 10.9427008 8.37371067 15.06767732 10.29721881 4.12497651 1.92350814 17.57344354 4.92358581 17.57344354 4.92358581 72.1621678-71.40531617 154.2401552-40.9277149 154.2401552-40.9277149 4.96478771-13.2223481 7.92305385-24.5999649 8.35944107-35.95416933z" fill="#C70C16"/><path d="M100.80360009 257.3040595c72.35944357-71.8677514 154.41582521-41.44136782 154.41582521-41.44136782 1.03541805-2.80548558 1.96304531-5.49681938 2.8248656-8.16403359-14.35579223-4.6664257-52.73485688-8.4779549-84.0039011-.0407893-35.02854754 9.47914412-59.93278329 24.39179783-80.76529561 47.8893559 4.01073855.99335608 7.5285059 1.75683481 7.5285059 1.75683481zM68.0575868 242.03434273C76.59972418 140.40809273.54693714 97.10696013.54693714 97.10696013c1.48357302-2.59650748 2.94898679-5.03706731 4.43822421-7.4117121 12.80241506 7.99765432 40.39180233 34.94771945 54.02791286 64.3245026 15.25447077 32.92650064 19.83884943 61.58992107 15.22955645 92.65249056-3.33900795-2.433887-6.18504386-4.63789846-6.18504386-4.63789846z" fill="#BC0428"/><path d="M273.9428859 107.09025494c.6125064-6.57611981 1.01786665-12.47412131 1.11491207-17.24315097 0 0-61.7905707-16.36268527-100.1334968-34.24228535C136.62616862 37.74610612 84.32861807.90862675 84.32861807.90862675c-3.56971447 3.0943609-7.82728493 7.19604727-12.49236868 11.93775583 0 0 19.1956024 27.59948472 94.08972833 62.52318919 74.8941261 34.92370455 107.95091967 31.74524884 108.01690818 31.72068317z" fill="#FFD7D7"/><g opacity=".8" transform="rotate(25 45.97667127 110.83885483)" fill="#FF788C"><path d="M162.799468 15.030735c.049468 0 .148404-.0494432.197872-.0494432.098937 0 .148405.0494432.197873.0494432 1.484042 0 2.671276-1.186637 2.671276-2.6699332s-1.187234-2.6699332-2.671276-2.6699332c-.098936 0-.148404.0494432-.197873.0494432-.049468 0-.148404-.0494432-.197872-.0494432-1.484042 0-2.671277 1.186637-2.671277 2.6699332s1.187235 2.6699332 2.671277 2.6699332zM159.831383 103.583519c-.049468 0-.148404.049443-.197872.049443-.098937 0-.148405-.049443-.197873-.049443-1.484042 0-2.671276 1.186637-2.671276 2.669933s1.187234 2.669933 2.671276 2.669933c.098936 0 .148405-.049443.197873-.049443.049468 0 .148404.049443.197872.049443 1.484043 0 2.671277-1.186637 2.671277-2.669933 0-1.433853-1.187234-2.669933-2.671277-2.669933zM166.657979 193.520713c1.484042 0 2.671276-1.186637 2.671276-2.669933 0-1.483297-1.187234-2.669934-2.671276-2.669934-1.484043 0-2.671277 1.186637-2.671277 2.669934 0 1.483296 1.187234 2.669933 2.671277 2.669933zM161.859574 47.267706c-.098936 0-.148404.0494432-.197872.0494432-.049468 0-.148404-.0494432-.197872-.0494432-1.484043 0-2.671277 1.186637-2.671277 2.6699332s1.187234 2.6699332 2.671277 2.6699332c.049468 0 .148404-.0494432.197872-.0494432.098936 0 .148404.0494432.197872.0494432 1.484043 0 2.671277-1.186637 2.671277-2.6699332s-1.187234-2.6699332-2.671277-2.6699332zM161.167021 66.0561247c-.098936 0-.148404.0494432-.197872.0494432-.098936 0-.148404-.0494432-.197872-.0494432-1.484043 0-2.671277 1.186637-2.671277 2.6699332s1.187234 2.6699332 2.671277 2.6699332c.098936 0 .148404-.0494432.197872-.0494432.049468 0 .148404.0494432.197872.0494432 1.484043 0 2.671277-1.186637 2.671277-2.6699332.049468-1.4832962-1.187234-2.6699332-2.671277-2.6699332zM167.350532 169.392428c-1.484043 0-2.671277 1.186637-2.671277 2.669933s1.187234 2.669933 2.671277 2.669933c1.484042 0 2.671277-1.186637 2.671277-2.669933s-1.187235-2.669933-2.671277-2.669933zM162.106915 33.8191537c.049468 0 .148404-.0494432.197872-.0494432.098936 0 .148404.0494432.197873.0494432 1.484042 0 2.671276-1.186637 2.671276-2.6699332s-1.187234-2.6699332-2.671276-2.6699332c-.098937 0-.148405.0494432-.197873.0494432-.049468 0-.148404-.0494432-.197872-.0494432-1.484043 0-2.671277 1.186637-2.671277 2.6699332s1.236702 2.6699332 2.671277 2.6699332zM170.417553 75.3514477c-.049468 0-.148404.0494432-.197872.0494432-.098936 0-.148404-.0494432-.197872-.0494432-1.484043 0-2.671277 1.1866369-2.671277 2.6699331 0 1.4832963 1.187234 2.6699332 2.671277 2.6699332.098936 0 .148404-.0494432.197872-.0494432.049468 0 .148404.0494432.197872.0494432 1.484043 0 2.671277-1.1866369 2.671277-2.6699332 0-1.433853-1.187234-2.6699331-2.671277-2.6699331zM168.043085 150.604009c-1.484042 0-2.671276 1.186637-2.671276 2.669933s1.187234 2.669933 2.671276 2.669933c1.484043 0 2.671277-1.186637 2.671277-2.669933s-1.236702-2.669933-2.671277-2.669933zM169.774468 94.1398664c-.098936 0-.148404.0494432-.197872.0494432-.098936 0-.148405-.0494432-.197873-.0494432-1.484042 0-2.671276 1.1866369-2.671276 2.6699332 0 1.4832962 1.187234 2.6699331 2.671276 2.6699331.098937 0 .148405-.0494432.197873-.0494432.049468 0 .148404.0494432.197872.0494432 1.484043 0 2.671277-1.1866369 2.671277-2.6699331 0-1.4338531-1.236702-2.6699332-2.671277-2.6699332zM171.110106 56.6124722c-.098936 0-.148404.0494432-.197872.0494432-.098936 0-.148404-.0494432-.197872-.0494432-1.484043 0-2.671277 1.1866369-2.671277 2.6699331 0 1.4832963 1.187234 2.6699332 2.671277 2.6699332.098936 0 .148404-.0494432.197872-.0494432.049468 0 .148404.0494432.197872.0494432 1.484043 0 2.671277-1.1866369 2.671277-2.6699332 0-1.4832962-1.187234-2.6699331-2.671277-2.6699331zM168.68617 131.81559c-1.484042 0-2.671276 1.186637-2.671276 2.669933 0 1.483297 1.187234 2.669934 2.671276 2.669934 1.484043 0 2.671277-1.186637 2.671277-2.669934 0-1.483296-1.187234-2.669933-2.671277-2.669933zM169.081915 112.928285c-.098936 0-.148404.049443-.197872.049443-.098937 0-.148405-.049443-.197873-.049443-1.484042 0-2.671276 1.186637-2.671276 2.669933s1.187234 2.669933 2.671276 2.669933c.098936 0 .148404-.049443.197873-.049443.049468 0 .148404.049443.197872.049443 1.484042 0 2.671276-1.186637 2.671276-2.669933s-1.187234-2.669933-2.671276-2.669933zM160.523936 84.7951002c-.049468 0-.148404.0494432-.197872.0494432-.098936 0-.148404-.0494432-.197873-.0494432-1.484042 0-2.671276 1.186637-2.671276 2.6699332s1.187234 2.6699332 2.671276 2.6699332c.098937 0 .148405-.0494432.197873-.0494432.049468 0 .148404.0494432.197872.0494432 1.484043 0 2.671277-1.186637 2.671277-2.6699332 0-1.433853-1.187234-2.6699332-2.671277-2.6699332zM150.828191 75.3514477c-.098936 0-.148404.0494432-.197872.0494432-.098936 0-.148404-.0494432-.197872-.0494432-1.484043 0-2.671277 1.1866369-2.671277 2.6699331 0 1.4832963 1.187234 2.6699332 2.671277 2.6699332.098936 0 .148404-.0494432.197872-.0494432.049468 0 .148404.0494432.197872.0494432 1.484043 0 2.671277-1.1866369 2.671277-2.6699332 0-1.433853-1.187234-2.6699331-2.671277-2.6699331zM161.810106 125.041871c0-1.483296-1.187234-2.669933-2.671276-2.669933h-.049468-.049468c-.049468 0-.098937.049443-.148405.049443-.049468 0-.098936-.049443-.148404-.049443-1.484042 0-2.671276 1.186637-2.671276 2.669933s1.187234 2.669933 2.671276 2.669933c.049468 0 .098936-.049443.148404-.049443.049468 0 .098937.049443.148405.049443h.098936c1.484042 0 2.671276-1.186637 2.671276-2.669933zM151.520745 56.6124722c-.098936 0-.148405.0494432-.197873.0494432-.098936 0-.148404-.0494432-.197872-.0494432-1.484043 0-2.671277 1.1866369-2.671277 2.6699331 0 1.4832963 1.187234 2.6699332 2.671277 2.6699332.098936 0 .148404-.0494432.197872-.0494432.049468 0 .148405.0494432.197873.0494432 1.484042 0 2.671276-1.1866369 2.671276-2.6699332 0-1.4832962-1.187234-2.6699331-2.671276-2.6699331zM150.135638 94.1398664c-.098936 0-.148404.0494432-.197872.0494432-.098936 0-.148404-.0494432-.197872-.0494432-1.484043 0-2.671277 1.1866369-2.671277 2.6699332 0 1.4832962 1.187234 2.6699331 2.671277 2.6699331.098936 0 .148404-.0494432.197872-.0494432.049468 0 .148404.0494432.197872.0494432 1.484043 0 2.671277-1.1866369 2.671277-2.6699331 0-1.4338531-1.187234-2.6699332-2.671277-2.6699332zM148.404255 150.604009c-1.484042 0-2.671276 1.186637-2.671276 2.669933s1.187234 2.669933 2.671276 2.669933c1.484043 0 2.671277-1.186637 2.671277-2.669933s-1.187234-2.669933-2.671277-2.669933zM149.443085 112.928285c-.098936 0-.148404.049443-.197872.049443-.098936 0-.148404-.049443-.197873-.049443-1.484042 0-2.671276 1.186637-2.671276 2.669933s1.187234 2.669933 2.671276 2.669933c.098937 0 .148405-.049443.197873-.049443.049468 0 .148404.049443.197872.049443 1.484043 0 2.671277-1.186637 2.671277-2.669933s-1.187234-2.669933-2.671277-2.669933zM149.096809 131.81559c-1.484043 0-2.671277 1.186637-2.671277 2.669933 0 1.483297 1.187234 2.669934 2.671277 2.669934 1.484042 0 2.671276-1.186637 2.671276-2.669934 0-1.483296-1.187234-2.669933-2.671276-2.669933zM151.768085 43.1639198c.049468 0 .148404-.0494432.197872-.0494432.098937 0 .148405.0494432.197873.0494432 1.484042 0 2.671276-1.1866369 2.671276-2.6699332 0-1.4832962-1.187234-2.6699331-2.671276-2.6699331-.098936 0-.148404.0494432-.197873.0494432-.049468 0-.148404-.0494432-.197872-.0494432-1.484042 0-2.671276 1.1866369-2.671276 2.6699331 0 1.433853 1.187234 2.6699332 2.671276 2.6699332zM157.654787 159.948775c-1.484042 0-2.671276 1.186637-2.671276 2.669933s1.187234 2.669933 2.671276 2.669933c1.484043 0 2.671277-1.186637 2.671277-2.669933s-1.187234-2.669933-2.671277-2.669933zM171.80266 37.8240535c-.098937 0-.148405.0494432-.197873.0494432-.049468 0-.148404-.0494432-.197872-.0494432-1.484043 0-2.671277 1.1866369-2.671277 2.6699331 0 1.4832963 1.187234 2.6699332 2.671277 2.6699332.098936 0 .148404-.0494432.197872-.0494432.098936 0 .148404.0494432.197873.0494432 1.484042 0 2.671276-1.1866369 2.671276-2.6699332 0-1.4832962-1.187234-2.6699331-2.671276-2.6699331zM158.34734 141.160356c-1.484042 0-2.671276 1.186637-2.671276 2.669934 0 1.483296 1.187234 2.669933 2.671276 2.669933 1.484043 0 2.671277-1.186637 2.671277-2.669933 0-1.483297-1.187234-2.669934-2.671277-2.669934zM156.962234 178.737194c-1.484043 0-2.671277 1.186637-2.671277 2.669933s1.187234 2.669933 2.671277 2.669933 2.671277-1.186637 2.671277-2.669933-1.187234-2.669933-2.671277-2.669933zM156.319149 202.865479c1.484042 0 2.671277-1.186637 2.671277-2.669933 0-1.483297-1.187235-2.669934-2.671277-2.669934-1.484043 0-2.671277 1.186637-2.671277 2.669934-.049468 1.483296 1.187234 2.669933 2.671277 2.669933zM152.460638 24.3755011c.049468 0 .148405-.0494432.197873-.0494432.098936 0 .148404.0494432.197872.0494432 1.484043 0 2.671277-1.186637 2.671277-2.6699332s-1.187234-2.6699332-2.671277-2.6699332c-.098936 0-.148404.0494433-.197872.0494433-.049468 0-.148405-.0494433-.197873-.0494433-1.484042 0-2.671276 1.186637-2.671276 2.6699332s1.187234 2.6699332 2.671276 2.6699332zM172.742553 5.58708241c.049468 0 .148404-.04944321.197873-.04944321.098936 0 .148404.04944321.197872.04944321.742021 0 1.434574-.34610245 1.929255-.84053453-1.28617.09888642-2.57234.24721604-3.809042.34610245.445212.29665925.939893.49443208 1.484042.49443208zM142.270213 52.6075724c1.484042 0 2.671276-1.186637 2.671276-2.6699332s-1.187234-2.6699332-2.671276-2.6699332c-1.484043 0-2.671277 1.186637-2.671277 2.6699332 0 1.433853 1.187234 2.6699332 2.671277 2.6699332zM141.57766 71.3959911c1.484042 0 2.671276-1.186637 2.671276-2.6699332s-1.187234-2.6699332-2.671276-2.6699332c-1.484043 0-2.671277 1.186637-2.671277 2.6699332 0 1.433853 1.187234 2.6699332 2.671277 2.6699332zM143.605851 15.030735c1.484043 0 2.671277-1.186637 2.671277-2.6699332s-1.187234-2.6699332-2.671277-2.6699332c-1.484042 0-2.671277 1.186637-2.671277 2.6699332s1.236703 2.6699332 2.671277 2.6699332zM192.084574 19.0356347c-.098936 0-.148404.0494433-.197872.0494433-.049468 0-.148404-.0494433-.197872-.0494433-1.484043 0-2.671277 1.186637-2.671277 2.6699332s1.187234 2.6699332 2.671277 2.6699332c.049468 0 .148404-.0494432.197872-.0494432.098936 0 .148404.0494432.197872.0494432 1.484043 0 2.671277-1.186637 2.671277-2.6699332s-1.187234-2.6699332-2.671277-2.6699332zM190.699468 56.6124722c-.049468 0-.148404.0494432-.197872.0494432-.098936 0-.148405-.0494432-.197873-.0494432-1.484042 0-2.671276 1.1866369-2.671276 2.6699331 0 1.4832963 1.187234 2.6699332 2.671276 2.6699332.098937 0 .148405-.0494432.197873-.0494432.049468 0 .148404.0494432.197872.0494432 1.484043 0 2.671277-1.1866369 2.671277-2.6699332.049468-1.4832962-1.187234-2.6699331-2.671277-2.6699331zM131.23883 75.3514477c-1.484043 0-2.671277 1.1866369-2.671277 2.6699331 0 1.4832963 1.187234 2.6699332 2.671277 2.6699332 1.484042 0 2.671276-1.1866369 2.671276-2.6699332 0-1.433853-1.236702-2.6699331-2.671276-2.6699331zM191.392021 37.8240535c-.098936 0-.148404.0494432-.197872.0494432-.098936 0-.148404-.0494432-.197872-.0494432-1.484043 0-2.671277 1.1866369-2.671277 2.6699331 0 1.4832963 1.187234 2.6699332 2.671277 2.6699332.098936 0 .148404-.0494432.197872-.0494432.049468 0 .148404.0494432.197872.0494432 1.484043 0 2.671277-1.1866369 2.671277-2.6699332 0-1.4832962-1.187234-2.6699331-2.671277-2.6699331zM135.987766 221.653898c1.484043 0 2.671277-1.186637 2.671277-2.669934 0-1.483296-1.187234-2.669933-2.671277-2.669933s-2.671277 1.186637-2.671277 2.669933c0 1.483297 1.187234 2.669934 2.671277 2.669934zM190.056383 75.3514477c-.049468 0-.148404.0494432-.197872.0494432-.098937 0-.148405-.0494432-.197873-.0494432-1.484042 0-2.671276 1.1866369-2.671276 2.6699331 0 1.4832963 1.187234 2.6699332 2.671276 2.6699332.098936 0 .148405-.0494432.197873-.0494432.049468 0 .148404.0494432.197872.0494432 1.484043 0 2.671277-1.1866369 2.671277-2.6699332 0-1.433853-1.187234-2.6699331-2.671277-2.6699331zM123.323936 33.8191537c1.484043 0 2.671277-1.186637 2.671277-2.6699332s-1.187234-2.6699332-2.671277-2.6699332c-1.484042 0-2.671276 1.186637-2.671276 2.6699332s1.187234 2.6699332 2.671276 2.6699332zM121.295745 84.7951002c-1.484043 0-2.671277 1.186637-2.671277 2.6699332s1.187234 2.6699332 2.671277 2.6699332c1.484042 0 2.671276-1.186637 2.671276-2.6699332 0-1.433853-1.187234-2.6699332-2.671276-2.6699332zM121.988298 66.0561247c-1.484043 0-2.671277 1.186637-2.671277 2.6699332s1.187234 2.6699332 2.671277 2.6699332c1.484042 0 2.671276-1.186637 2.671276-2.6699332s-1.187234-2.6699332-2.671276-2.6699332zM172.495213 19.0356347c-.098936 0-.148404.0494433-.197873.0494433-.049468 0-.148404-.0494433-.197872-.0494433-1.484042 0-2.671277 1.186637-2.671277 2.6699332s1.187235 2.6699332 2.671277 2.6699332c.049468 0 .148404-.0494432.197872-.0494432.098937 0 .148405.0494432.197873.0494432 1.484042 0 2.671276-1.186637 2.671276-2.6699332s-1.187234-2.6699332-2.671276-2.6699332zM119.910638 122.371938h-.049468-.049468c-1.484042 0-2.671276 1.186637-2.671276 2.669933s1.187234 2.669933 2.671276 2.669933h.098936c1.484043 0 2.671277-1.186637 2.671277-2.669933s-1.187234-2.669933-2.671277-2.669933zM120.603191 103.583519c-1.484042 0-2.671276 1.186637-2.671276 2.669933s1.187234 2.669933 2.671276 2.669933c1.484043 0 2.671277-1.186637 2.671277-2.669933 0-1.433853-1.187234-2.669933-2.671277-2.669933zM180.805851 66.0561247c-.049468 0-.148404.0494432-.197872.0494432-.098936 0-.148405-.0494432-.197873-.0494432-1.484042 0-2.671276 1.186637-2.671276 2.6699332s1.187234 2.6699332 2.671276 2.6699332c.098937 0 .148405-.0494432.197873-.0494432.049468 0 .148404.0494432.197872.0494432 1.484043 0 2.671277-1.186637 2.671277-2.6699332s-1.187234-2.6699332-2.671277-2.6699332zM180.113298 84.7951002c-.049468 0-.148404.0494432-.197872.0494432-.098937 0-.148405-.0494432-.197873-.0494432-1.484042 0-2.671276 1.186637-2.671276 2.6699332s1.187234 2.6699332 2.671276 2.6699332c.098936 0 .148404-.0494432.197873-.0494432.049468 0 .148404.0494432.197872.0494432 1.484042 0 2.671276-1.186637 2.671276-2.6699332 0-1.433853-1.187234-2.6699332-2.671276-2.6699332zM181.448936 125.041871c0-1.483296-1.187234-2.669933-2.671276-2.669933h-.049469-.049468c-.049468 0-.098936.049443-.148404.049443-.049468 0-.098936-.049443-.148404-.049443-1.484043 0-2.671277 1.186637-2.671277 2.669933s1.187234 2.669933 2.671277 2.669933c.049468 0 .098936-.049443.148404-.049443.049468 0 .098936.049443.148404.049443h.098937c1.434574 0 2.671276-1.186637 2.671276-2.669933zM189.36383 94.1398664c-.098936 0-.148404.0494432-.197873.0494432-.098936 0-.148404-.0494432-.197872-.0494432-1.484042 0-2.671276 1.1866369-2.671276 2.6699332 0 1.4832962 1.187234 2.6699331 2.671276 2.6699331.098936 0 .148404-.0494432.197872-.0494432.049469 0 .148405.0494432.197873.0494432 1.484042 0 2.671276-1.1866369 2.671276-2.6699331 0-1.4338531-1.187234-2.6699332-2.671276-2.6699332zM177.936702 141.160356c-1.484042 0-2.671276 1.186637-2.671276 2.669934 0 1.483296 1.187234 2.669933 2.671276 2.669933 1.484043 0 2.671277-1.186637 2.671277-2.669933 0-1.483297-1.187234-2.669934-2.671277-2.669934zM177.244149 165.288641c1.484042 0 2.671277-1.186637 2.671277-2.669933s-1.187235-2.669933-2.671277-2.669933c-1.484043 0-2.671277 1.186637-2.671277 2.669933s1.236702 2.669933 2.671277 2.669933zM179.420745 103.583519c-.049468 0-.148405.049443-.197873.049443-.098936 0-.148404-.049443-.197872-.049443-1.484043 0-2.671277 1.186637-2.671277 2.669933s1.187234 2.669933 2.671277 2.669933c.098936 0 .148404-.049443.197872-.049443.049468 0 .148405.049443.197873.049443 1.484042 0 2.671276-1.186637 2.671276-2.669933 0-1.433853-1.187234-2.669933-2.671276-2.669933zM187.632447 155.943875c1.484042 0 2.671276-1.186637 2.671276-2.669933s-1.187234-2.669933-2.671276-2.669933c-1.484043 0-2.671277 1.186637-2.671277 2.669933s1.187234 2.669933 2.671277 2.669933zM181.498404 47.267706c-.098936 0-.148404.0494432-.197872.0494432-.049468 0-.148404-.0494432-.197872-.0494432-1.484043 0-2.671277 1.186637-2.671277 2.6699332s1.187234 2.6699332 2.671277 2.6699332c.098936 0 .148404-.0494432.197872-.0494432.098936 0 .148404.0494432.197872.0494432 1.484043 0 2.671277-1.186637 2.671277-2.6699332s-1.187234-2.6699332-2.671277-2.6699332zM188.671277 112.928285c-.098937 0-.148405.049443-.197873.049443-.098936 0-.148404-.049443-.197872-.049443-1.484043 0-2.671277 1.186637-2.671277 2.669933s1.187234 2.669933 2.671277 2.669933c.098936 0 .148404-.049443.197872-.049443.098936 0 .148405.049443.197873.049443 1.484042 0 2.671276-1.186637 2.671276-2.669933s-1.187234-2.669933-2.671276-2.669933zM188.325 131.81559c-1.484043 0-2.671277 1.186637-2.671277 2.669933 0 1.483297 1.187234 2.669934 2.671277 2.669934s2.671277-1.186637 2.671277-2.669934c0-1.483296-1.187234-2.669933-2.671277-2.669933zM182.834043 9.6908686c-.098937 0-.148405.0494432-.197873.0494432-.049468 0-.148404-.0494432-.197872-.0494432-1.484043 0-2.671277 1.186637-2.671277 2.6699332s1.187234 2.6699332 2.671277 2.6699332c.098936 0 .148404-.0494432.197872-.0494432.098936 0 .148404.0494432.197873.0494432 1.484042 0 2.671276-1.186637 2.671276-2.6699332s-1.187234-2.6699332-2.671276-2.6699332zM182.141489 28.4792873c-.098936 0-.148404.0494432-.197872.0494432-.049468 0-.148404-.0494432-.197872-.0494432-1.484043 0-2.671277 1.186637-2.671277 2.6699332s1.187234 2.6699332 2.671277 2.6699332c.049468 0 .148404-.0494432.197872-.0494432.098936 0 .148404.0494432.197872.0494432 1.484043 0 2.671277-1.186637 2.671277-2.6699332s-1.187234-2.6699332-2.671277-2.6699332zM230.867553 19.0356347c-1.484042 0-2.671276 1.186637-2.671276 2.6699332s1.187234 2.6699332 2.671276 2.6699332c1.484043 0 2.671277-1.186637 2.671277-2.6699332s-1.187234-2.6699332-2.671277-2.6699332zM240.563298 28.4792873c-1.484043 0-2.671277 1.186637-2.671277 2.6699332s1.187234 2.6699332 2.671277 2.6699332c1.484042 0 2.671276-1.186637 2.671276-2.6699332s-1.187234-2.6699332-2.671276-2.6699332zM247.73617 99.5291759c1.484043 0 2.671277-1.1866369 2.671277-2.6699331 0-1.4832963-1.187234-2.6699332-2.671277-2.6699332-1.484042 0-2.671276 1.1866369-2.671276 2.6699332 0 1.433853 1.236702 2.6699331 2.671276 2.6699331zM238.535106 84.7951002c-1.484042 0-2.671276 1.186637-2.671276 2.6699332s1.187234 2.6699332 2.671276 2.6699332c1.484043 0 2.671277-1.186637 2.671277-2.6699332 0-1.433853-1.236702-2.6699332-2.671277-2.6699332zM239.178191 66.0561247c-1.484042 0-2.671276 1.186637-2.671276 2.6699332s1.187234 2.6699332 2.671276 2.6699332c1.484043 0 2.671277-1.186637 2.671277-2.6699332s-1.187234-2.6699332-2.671277-2.6699332zM247.093085 118.268151c1.484043 0 2.671277-1.186637 2.671277-2.669933s-1.187234-2.669933-2.671277-2.669933c-1.484042 0-2.671276 1.186637-2.671276 2.669933s1.187234 2.669933 2.671276 2.669933zM237.842553 103.583519c-1.484042 0-2.671276 1.186637-2.671276 2.669933s1.187234 2.669933 2.671276 2.669933c1.484043 0 2.671277-1.186637 2.671277-2.669933 0-1.433853-1.187234-2.669933-2.671277-2.669933zM237.446809 122.371938c-.049469 0-.098937.049443-.148405.049443-.049468 0-.098936-.049443-.148404-.049443-1.484043 0-2.671277 1.186637-2.671277 2.669933s1.187234 2.669933 2.671277 2.669933c.049468 0 .098936-.049443.148404-.049443.049468 0 .098936.049443.148405.049443 1.484042 0 2.671276-1.186637 2.671276-2.669933s-1.187234-2.669933-2.671276-2.669933zM239.870745 47.267706c-1.484043 0-2.671277 1.186637-2.671277 2.6699332s1.187234 2.6699332 2.671277 2.6699332c1.484042 0 2.671276-1.186637 2.671276-2.6699332s-1.187234-2.6699332-2.671276-2.6699332zM229.531915 56.6124722c-1.484043 0-2.671277 1.1866369-2.671277 2.6699331 0 1.4832963 1.187234 2.6699332 2.671277 2.6699332 1.484042 0 2.671276-1.1866369 2.671276-2.6699332 0-1.4832962-1.187234-2.6699331-2.671276-2.6699331zM228.839362 75.3514477c-1.484043 0-2.671277 1.1866369-2.671277 2.6699331 0 1.4832963 1.187234 2.6699332 2.671277 2.6699332 1.484042 0 2.671276-1.1866369 2.671276-2.6699332 0-1.433853-1.187234-2.6699331-2.671276-2.6699331zM230.175 37.8240535c-1.484043 0-2.671277 1.1866369-2.671277 2.6699331 0 1.4832963 1.187234 2.6699332 2.671277 2.6699332s2.671277-1.1866369 2.671277-2.6699332c0-1.4832962-1.187234-2.6699331-2.671277-2.6699331zM227.454255 112.928285c-1.484042 0-2.671276 1.186637-2.671276 2.669933s1.187234 2.669933 2.671276 2.669933c1.484043 0 2.671277-1.186637 2.671277-2.669933s-1.187234-2.669933-2.671277-2.669933zM124.016489 15.030735c1.484043 0 2.671277-1.186637 2.671277-2.6699332s-1.187234-2.6699332-2.671277-2.6699332c-1.484042 0-2.671276 1.186637-2.671276 2.6699332s1.187234 2.6699332 2.671276 2.6699332zM228.146809 94.1398664c-1.484043 0-2.671277 1.1866369-2.671277 2.6699332 0 1.4832962 1.187234 2.6699331 2.671277 2.6699331 1.484042 0 2.671276-1.1866369 2.671276-2.6699331 0-1.4338531-1.187234-2.6699332-2.671276-2.6699332zM241.255851 9.6908686c-1.484042 0-2.671277 1.186637-2.671277 2.6699332s1.187235 2.6699332 2.671277 2.6699332c1.484043 0 2.671277-1.186637 2.671277-2.6699332s-1.187234-2.6699332-2.671277-2.6699332zM266.731915 60.9634744c-.197872-.6922049-.395745-1.3349666-.593617-2.0271715 0 .0988864-.049468.1977728-.049468.3461024-.049468.6427617.24734 1.2360802.643085 1.6810691zM258.124468 84.7951002c-1.484042 0-2.671277 1.186637-2.671277 2.6699332s1.187235 2.6699332 2.671277 2.6699332c1.484043 0 2.671277-1.186637 2.671277-2.6699332 0-1.433853-1.187234-2.6699332-2.671277-2.6699332zM268.067553 75.3514477c-1.484042 0-2.671276 1.1866369-2.671276 2.6699331 0 1.4832963 1.187234 2.6699332 2.671276 2.6699332 1.484043 0 2.671277-1.1866369 2.671277-2.6699332 0-1.433853-1.236702-2.6699331-2.671277-2.6699331zM257.431915 103.583519c-1.484043 0-2.671277 1.186637-2.671277 2.669933s1.187234 2.669933 2.671277 2.669933c1.484042 0 2.671276-1.186637 2.671276-2.669933 0-1.433853-1.187234-2.669933-2.671276-2.669933zM250.506383 19.0356347c-1.484043 0-2.671277 1.186637-2.671277 2.6699332s1.187234 2.6699332 2.671277 2.6699332 2.671277-1.186637 2.671277-2.6699332-1.236703-2.6699332-2.671277-2.6699332zM267.375 94.1398664c-1.484043 0-2.671277 1.1866369-2.671277 2.6699332 0 1.4832962 1.187234 2.6699331 2.671277 2.6699331s2.671277-1.1866369 2.671277-2.6699331c0-1.4338531-1.187234-2.6699332-2.671277-2.6699332zM266.682447 112.928285c-1.484043 0-2.671277 1.186637-2.671277 2.669933s1.187234 2.669933 2.671277 2.669933c1.484042 0 2.671276-1.186637 2.671276-2.669933s-1.187234-2.669933-2.671276-2.669933zM248.428723 75.3514477c-1.484042 0-2.671276 1.1866369-2.671276 2.6699331 0 1.4832963 1.187234 2.6699332 2.671276 2.6699332 1.484043 0 2.671277-1.1866369 2.671277-2.6699332 0-1.433853-1.187234-2.6699331-2.671277-2.6699331zM258.817021 66.0561247c-1.484042 0-2.671276 1.186637-2.671276 2.6699332s1.187234 2.6699332 2.671276 2.6699332c1.484043 0 2.671277-1.186637 2.671277-2.6699332s-1.187234-2.6699332-2.671277-2.6699332zM249.121277 56.6124722c-1.484043 0-2.671277 1.1866369-2.671277 2.6699331 0 1.4832963 1.187234 2.6699332 2.671277 2.6699332 1.484042 0 2.671276-1.1866369 2.671276-2.6699332 0-1.4832962-1.187234-2.6699331-2.671276-2.6699331zM249.81383 37.8240535c-1.484043 0-2.671277 1.1866369-2.671277 2.6699331 0 1.4832963 1.187234 2.6699332 2.671277 2.6699332 1.484042 0 2.671276-1.1866369 2.671276-2.6699332 0-1.4832962-1.187234-2.6699331-2.671276-2.6699331zM259.509574 47.267706c-1.484042 0-2.671276 1.186637-2.671276 2.6699332s1.187234 2.6699332 2.671276 2.6699332c1.484043 0 2.671277-1.186637 2.671277-2.6699332s-1.236702-2.6699332-2.671277-2.6699332zM258.32234 33.0280624c-.24734-.7910914-.49468-1.5821827-.742021-2.3238308 0 .1483296-.098936.2966593-.098936.4449889 0 .7416481.346277 1.433853.840957 1.8788419zM231.560106.24721604c-1.484042 0-2.671276 1.18663697-2.671276 2.66993318 0 1.48329621 1.187234 2.66993319 2.671276 2.66993319 1.484043 0 2.671277-1.18663698 2.671277-2.66993319S233.044149.24721604 231.560106.24721604zM199.059574 103.583519c-.098936 0-.148404.049443-.197872.049443-.098936 0-.148404-.049443-.197872-.049443-1.484043 0-2.671277 1.186637-2.671277 2.669933s1.187234 2.669933 2.671277 2.669933c.098936 0 .148404-.049443.197872-.049443.049468 0 .148404.049443.197872.049443 1.484043 0 2.671277-1.186637 2.671277-2.669933 0-1.433853-1.187234-2.669933-2.671277-2.669933zM210.585638 37.8240535c-1.484042 0-2.671276 1.1866369-2.671276 2.6699331 0 1.4832963 1.187234 2.6699332 2.671276 2.6699332 1.484043 0 2.671277-1.1866369 2.671277-2.6699332 0-1.4832962-1.187234-2.6699331-2.671277-2.6699331zM200.395213 66.0561247c-.098936 0-.148404.0494432-.197873.0494432-.098936 0-.148404-.0494432-.197872-.0494432-1.484042 0-2.671277 1.186637-2.671277 2.6699332s1.187235 2.6699332 2.671277 2.6699332c.098936 0 .148404-.0494432.197872-.0494432.049469 0 .148405.0494432.197873.0494432 1.484042 0 2.671276-1.186637 2.671276-2.6699332s-1.187234-2.6699332-2.671276-2.6699332zM199.70266 84.7951002c-.098937 0-.148405.0494432-.197873.0494432-.098936 0-.148404-.0494432-.197872-.0494432-1.484043 0-2.671277 1.186637-2.671277 2.6699332s1.187234 2.6699332 2.671277 2.6699332c.098936 0 .148404-.0494432.197872-.0494432.049468 0 .148404.0494432.197873.0494432 1.484042 0 2.671276-1.186637 2.671276-2.6699332.049468-1.433853-1.187234-2.6699332-2.671276-2.6699332zM211.278191 19.0356347c-1.484042 0-2.671276 1.186637-2.671276 2.6699332s1.187234 2.6699332 2.671276 2.6699332c1.484043 0 2.671277-1.186637 2.671277-2.6699332s-1.187234-2.6699332-2.671277-2.6699332zM201.038298 125.041871c0-1.483296-1.187234-2.669933-2.671277-2.669933h-.049468-.049468c-.049468 0-.098936.049443-.148404.049443-.049468 0-.098936-.049443-.148404-.049443-1.484043 0-2.671277 1.186637-2.671277 2.669933s1.187234 2.669933 2.671277 2.669933c.049468 0 .098936-.049443.148404-.049443.049468 0 .098936.049443.148404.049443h.098936c1.484043 0 2.671277-1.186637 2.671277-2.669933zM194.904255 143.83029c0 1.483296 1.187234 2.669933 2.671277 2.669933 1.484042 0 2.671277-1.186637 2.671277-2.669933 0-1.483297-1.187235-2.669934-2.671277-2.669934-1.484043 0-2.671277 1.186637-2.671277 2.669934zM201.087766 47.267706c-.098936 0-.148404.0494432-.197872.0494432-.098937 0-.148405-.0494432-.197873-.0494432-1.484042 0-2.671276 1.186637-2.671276 2.6699332s1.187234 2.6699332 2.671276 2.6699332c.098936 0 .148405-.0494432.197873-.0494432.049468 0 .148404.0494432.197872.0494432 1.484043 0 2.671277-1.186637 2.671277-2.6699332s-1.187234-2.6699332-2.671277-2.6699332zM147.068617 188.180846c-1.484043 0-2.671277 1.186637-2.671277 2.669934 0 1.483296 1.187234 2.669933 2.671277 2.669933s2.671277-1.186637 2.671277-2.669933c0-1.483297-1.187234-2.669934-2.671277-2.669934zM146.376064 206.969265c-1.484043 0-2.671277 1.186637-2.671277 2.669933s1.187234 2.669933 2.671277 2.669933c1.484042 0 2.671276-1.186637 2.671276-2.669933s-1.187234-2.669933-2.671276-2.669933zM147.711702 169.392428c-1.484042 0-2.671276 1.186637-2.671276 2.669933s1.187234 2.669933 2.671276 2.669933c1.484043 0 2.671277-1.186637 2.671277-2.669933s-1.187234-2.669933-2.671277-2.669933zM201.780319 28.4792873c-.098936 0-.148404.0494432-.197872.0494432-.049468 0-.148404-.0494432-.197873-.0494432-1.484042 0-2.671276 1.186637-2.671276 2.6699332s1.187234 2.6699332 2.671276 2.6699332c.098937 0 .148405-.0494432.197873-.0494432.098936 0 .148404.0494432.197872.0494432 1.484043 0 2.671277-1.186637 2.671277-2.6699332s-1.187234-2.6699332-2.671277-2.6699332zM192.331915 5.58708241c.049468 0 .148404-.04944321.197872-.04944321.098936 0 .148404.04944321.197873.04944321 1.484042 0 2.671276-1.18663698 2.671276-2.66993319 0-.09888641-.049468-.19777283-.049468-.29665924-1.879787.19777283-3.759574.44498886-5.639362.64276169.197873 1.28552339 1.286171 2.32383074 2.621809 2.32383074zM202.472872 9.6908686c-.098936 0-.148404.0494432-.197872.0494432-.049468 0-.148404-.0494432-.197872-.0494432-1.484043 0-2.671277 1.186637-2.671277 2.6699332s1.187234 2.6699332 2.671277 2.6699332c.098936 0 .148404-.0494432.197872-.0494432.098936 0 .148404.0494432.197872.0494432 1.484043 0 2.671277-1.186637 2.671277-2.6699332s-1.236702-2.6699332-2.671277-2.6699332zM220.281383 47.267706c-1.484043 0-2.671277 1.186637-2.671277 2.6699332s1.187234 2.6699332 2.671277 2.6699332 2.671277-1.186637 2.671277-2.6699332-1.187234-2.6699332-2.671277-2.6699332zM219.58883 66.0561247c-1.484043 0-2.671277 1.186637-2.671277 2.6699332s1.187234 2.6699332 2.671277 2.6699332c1.484042 0 2.671276-1.186637 2.671276-2.6699332s-1.187234-2.6699332-2.671276-2.6699332zM218.896277 84.7951002c-1.484043 0-2.671277 1.186637-2.671277 2.6699332s1.187234 2.6699332 2.671277 2.6699332c1.484042 0 2.671276-1.186637 2.671276-2.6699332 0-1.433853-1.187234-2.6699332-2.671276-2.6699332zM142.962766 33.8191537c1.484043 0 2.671277-1.186637 2.671277-2.6699332s-1.187234-2.6699332-2.671277-2.6699332-2.671277 1.186637-2.671277 2.6699332 1.187234 2.6699332 2.671277 2.6699332zM217.857447 122.371938c-.049468 0-.098936.049443-.148404.049443-.049469 0-.098937-.049443-.148405-.049443-1.484042 0-2.671276 1.186637-2.671276 2.669933s1.187234 2.669933 2.671276 2.669933c.049468 0 .098936-.049443.148405-.049443.049468 0 .098936.049443.148404.049443 1.484042 0 2.671276-1.186637 2.671276-2.669933s-1.187234-2.669933-2.671276-2.669933zM209.893085 56.6124722c-1.484042 0-2.671276 1.1866369-2.671276 2.6699331 0 1.4832963 1.187234 2.6699332 2.671276 2.6699332 1.484043 0 2.671277-1.1866369 2.671277-2.6699332 0-1.4832962-1.187234-2.6699331-2.671277-2.6699331zM218.203723 103.583519c-1.484042 0-2.671276 1.186637-2.671276 2.669933s1.187234 2.669933 2.671276 2.669933c1.484043 0 2.671277-1.186637 2.671277-2.669933 0-1.433853-1.187234-2.669933-2.671277-2.669933zM220.973936 28.4792873c-1.484042 0-2.671276 1.186637-2.671276 2.6699332s1.187234 2.6699332 2.671276 2.6699332c1.484043 0 2.671277-1.186637 2.671277-2.6699332s-1.236702-2.6699332-2.671277-2.6699332zM208.557447 94.1398664c-1.484043 0-2.671277 1.1866369-2.671277 2.6699332 0 1.4832962 1.187234 2.6699331 2.671277 2.6699331 1.484042 0 2.671276-1.1866369 2.671276-2.6699331 0-1.4338531-1.187234-2.6699332-2.671276-2.6699332zM210.53617 115.598218c0-1.483296-1.187234-2.669933-2.671276-2.669933-1.484043 0-2.671277 1.186637-2.671277 2.669933s1.187234 2.669933 2.671277 2.669933c1.484042 0 2.671276-1.186637 2.671276-2.669933zM209.200532 75.3514477c-1.484043 0-2.671277 1.1866369-2.671277 2.6699331 0 1.4832963 1.187234 2.6699332 2.671277 2.6699332 1.484042 0 2.671277-1.1866369 2.671277-2.6699332 0-1.433853-1.187235-2.6699331-2.671277-2.6699331zM207.914362 137.155457c1.484042 0 2.671276-1.186637 2.671276-2.669934 0-1.483296-1.187234-2.669933-2.671276-2.669933-1.484043 0-2.671277 1.186637-2.671277 2.669933 0 1.483297 1.187234 2.669934 2.671277 2.669934zM221.617021 9.6908686c-1.484042 0-2.671276 1.186637-2.671276 2.6699332s1.187234 2.6699332 2.671276 2.6699332c1.484043 0 2.671277-1.186637 2.671277-2.6699332s-1.187234-2.6699332-2.671277-2.6699332zM209.299468 2.91714922c0 1.48329621 1.187234 2.66993319 2.671277 2.66993319 1.484042 0 2.671276-1.18663698 2.671276-2.66993319 0-1.18663697-.791489-2.17550111-1.830319-2.52160356-.742021.09888641-1.484042.19777283-2.275532.29665924-.742021.49443207-1.236702 1.28552339-1.236702 2.22494432zM110.511702 190.85078c0-1.483297-1.187234-2.669934-2.671276-2.669934-.593617 0-1.088298.247216-1.533511.543876.890425 1.483296 1.780851 3.016035 2.671276 4.548775.890426-.444989 1.533511-1.334967 1.533511-2.422717zM54.8106383 19.0356347c-1.4840426 0-2.6712766 1.186637-2.6712766 2.6699332s1.187234 2.6699332 2.6712766 2.6699332c1.4840426 0 2.6712766-1.186637 2.6712766-2.6699332s-1.187234-2.6699332-2.6712766-2.6699332zM42.8393617 84.7951002c-1.4840426 0-2.6712766 1.186637-2.6712766 2.6699332s1.187234 2.6699332 2.6712766 2.6699332c1.4840426 0 2.6712766-1.186637 2.6712766-2.6699332 0-1.433853-1.187234-2.6699332-2.6712766-2.6699332zM44.2244681 47.267706c-1.4840426 0-2.6712766 1.186637-2.6712766 2.6699332s1.187234 2.6699332 2.6712766 2.6699332c1.4840425 0 2.6712766-1.186637 2.6712766-2.6699332s-1.1872341-2.6699332-2.6712766-2.6699332z"/><ellipse cx="42.1962766" cy="106.253452" rx="2.6712766" ry="2.66993318"/><path d="M55.5031915.24721604c-1.4840426 0-2.6712766 1.18663697-2.6712766 2.66993318 0 1.48329621 1.187234 2.66993319 2.6712766 2.66993319 1.4840425 0 2.6712766-1.18663698 2.6712766-2.66993319S56.987234.24721604 55.5031915.24721604zM73.7569149 37.8240535c-1.4840426 0-2.6712766 1.1866369-2.6712766 2.6699331 0 1.4832963 1.187234 2.6699332 2.6712766 2.6699332 1.4840425 0 2.6712766-1.1866369 2.6712766-2.6699332 0-1.4832962-1.1872341-2.6699331-2.6712766-2.6699331zM41.5037234 122.371938h-.0494681-.0494681c-1.4840425 0-2.6712766 1.186637-2.6712766 2.669933s1.1872341 2.669933 2.6712766 2.669933h.0989362c1.4840426 0 2.6712766-1.186637 2.6712766-2.669933s-1.187234-2.669933-2.6712766-2.669933zM43.5319149 66.0561247c-1.4840426 0-2.6712766 1.186637-2.6712766 2.6699332s1.187234 2.6699332 2.6712766 2.6699332c1.4840425 0 2.6712766-1.186637 2.6712766-2.6699332s-1.1872341-2.6699332-2.6712766-2.6699332zM33.1930851 75.3514477c-1.4840425 0-2.6712766 1.1866369-2.6712766 2.6699331 0 1.4832963 1.1872341 2.6699332 2.6712766 2.6699332 1.4840426 0 2.6712766-1.1866369 2.6712766-2.6699332 0-1.433853-1.2367021-2.6699331-2.6712766-2.6699331zM31.8079787 112.928285c-1.4840425 0-2.6712766 1.186637-2.6712766 2.669933s1.1872341 2.669933 2.6712766 2.669933c1.4840426 0 2.6712766-1.186637 2.6712766-2.669933s-1.187234-2.669933-2.6712766-2.669933zM33.8361702 56.6124722c-1.4840425 0-2.6712766 1.1866369-2.6712766 2.6699331 0 1.4832963 1.1872341 2.6699332 2.6712766 2.6699332 1.4840426 0 2.6712766-1.1866369 2.6712766-2.6699332 0-1.4832962-1.187234-2.6699331-2.6712766-2.6699331zM33.2425532 2.91714922c0 1.48329621 1.187234 2.66993319 2.6712766 2.66993319 1.4840425 0 2.6712766-1.18663698 2.6712766-2.66993319S37.3978723.24721604 35.9138298.24721604c-1.4840426 0-2.6712766 1.18663697-2.6712766 2.66993318zM32.5005319 94.1398664c-1.4840425 0-2.6712766 1.1866369-2.6712766 2.6699332 0 1.4832962 1.1872341 2.6699331 2.6712766 2.6699331 1.4840426 0 2.6712766-1.1866369 2.6712766-2.6699331 0-1.4338531-1.187234-2.6699332-2.6712766-2.6699332zM45.5601064 9.6908686c-1.4840426 0-2.6712766 1.186637-2.6712766 2.6699332s1.187234 2.6699332 2.6712766 2.6699332c1.4840425 0 2.6712766-1.186637 2.6712766-2.6699332.0494681-1.4832962-1.1872341-2.6699332-2.6712766-2.6699332zM53.475 56.6124722c-1.4840426 0-2.6712766 1.1866369-2.6712766 2.6699331 0 1.4832963 1.187234 2.6699332 2.6712766 2.6699332 1.4840426 0 2.6712766-1.1866369 2.6712766-2.6699332 0-1.4832962-1.187234-2.6699331-2.6712766-2.6699331zM62.4781915 84.7951002c-1.4840426 0-2.6712766 1.186637-2.6712766 2.6699332s1.187234 2.6699332 2.6712766 2.6699332c1.4840425 0 2.6712766-1.186637 2.6712766-2.6699332 0-1.433853-1.1872341-2.6699332-2.6712766-2.6699332zM61.0930851 122.371938h-.0494681-.0494681c-1.4840425 0-2.6712766 1.186637-2.6712766 2.669933s1.1872341 2.669933 2.6712766 2.669933h.0989362c1.4840426 0 2.6712766-1.186637 2.6712766-2.669933s-1.187234-2.669933-2.6712766-2.669933zM63.8138298 47.267706c-1.4840426 0-2.6712766 1.186637-2.6712766 2.6699332s1.187234 2.6699332 2.6712766 2.6699332c1.4840425 0 2.6712766-1.186637 2.6712766-2.6699332s-1.1872341-2.6699332-2.6712766-2.6699332zM63.1707447 66.0561247c-1.4840426 0-2.6712766 1.186637-2.6712766 2.6699332s1.187234 2.6699332 2.6712766 2.6699332c1.4840425 0 2.6712766-1.186637 2.6712766-2.6699332s-1.2367022-2.6699332-2.6712766-2.6699332zM61.7856383 103.583519c-1.4840426 0-2.6712766 1.186637-2.6712766 2.669933s1.187234 2.669933 2.6712766 2.669933c1.4840426 0 2.6712766-1.186637 2.6712766-2.669933 0-1.433853-1.187234-2.669933-2.6712766-2.669933zM74.4494681 19.0356347c-1.4840426 0-2.6712766 1.186637-2.6712766 2.6699332s1.187234 2.6699332 2.6712766 2.6699332c1.4840425 0 2.6712766-1.186637 2.6712766-2.6699332s-1.1872341-2.6699332-2.6712766-2.6699332zM52.0898936 94.1398664c-1.4840425 0-2.6712766 1.1866369-2.6712766 2.6699332 0 1.4832962 1.1872341 2.6699331 2.6712766 2.6699331 1.4840426 0 2.6712766-1.1866369 2.6712766-2.6699331 0-1.4338531-1.187234-2.6699332-2.6712766-2.6699332zM64.506383 28.4792873c-1.4840426 0-2.6712766 1.186637-2.6712766 2.6699332s1.187234 2.6699332 2.6712766 2.6699332c1.4840425 0 2.6712766-1.186637 2.6712766-2.6699332s-1.1872341-2.6699332-2.6712766-2.6699332zM34.5287234 37.8240535c-1.4840425 0-2.6712766 1.1866369-2.6712766 2.6699331 0 1.4832963 1.1872341 2.6699332 2.6712766 2.6699332 1.4840426 0 2.6712766-1.1866369 2.6712766-2.6699332 0-1.4832962-1.187234-2.6699331-2.6712766-2.6699331zM51.3973404 112.928285c-1.4840425 0-2.6712766 1.186637-2.6712766 2.669933s1.1872341 2.669933 2.6712766 2.669933c1.4840426 0 2.6712766-1.186637 2.6712766-2.669933.0494681-1.483296-1.187234-2.669933-2.6712766-2.669933zM52.7824468 75.3514477c-1.4840425 0-2.6712766 1.1866369-2.6712766 2.6699331 0 1.4832963 1.1872341 2.6699332 2.6712766 2.6699332 1.4840426 0 2.6712766-1.1866369 2.6712766-2.6699332 0-1.433853-1.187234-2.6699331-2.6712766-2.6699331zM65.1989362 9.6908686c-1.4840426 0-2.6712766 1.186637-2.6712766 2.6699332s1.187234 2.6699332 2.6712766 2.6699332c1.4840425 0 2.6712766-1.186637 2.6712766-2.6699332s-1.1872341-2.6699332-2.6712766-2.6699332zM54.1675532 37.8240535c-1.4840426 0-2.6712766 1.1866369-2.6712766 2.6699331 0 1.4832963 1.187234 2.6699332 2.6712766 2.6699332 1.4840425 0 2.6712766-1.1866369 2.6712766-2.6699332 0-1.4832962-1.2367021-2.6699331-2.6712766-2.6699331zM44.9170213 28.4792873c-1.4840426 0-2.6712766 1.186637-2.6712766 2.6699332s1.187234 2.6699332 2.6712766 2.6699332c1.4840425 0 2.6712766-1.186637 2.6712766-2.6699332s-1.1872341-2.6699332-2.6712766-2.6699332zM136.680319 197.525612c-1.484042 0-2.671276 1.186637-2.671276 2.669934 0 1.483296 1.187234 2.669933 2.671276 2.669933 1.484043 0 2.671277-1.186637 2.671277-2.669933 0-1.483297-1.187234-2.669934-2.671277-2.669934zM35.2212766 19.0356347c-1.4840426 0-2.6712766 1.186637-2.6712766 2.6699332s1.187234 2.6699332 2.6712766 2.6699332c1.4840425 0 2.6712766-1.186637 2.6712766-2.6699332s-1.1872341-2.6699332-2.6712766-2.6699332zM119.119149 141.160356c-1.484043 0-2.671277 1.186637-2.671277 2.669934 0 1.483296 1.187234 2.669933 2.671277 2.669933 1.484042 0 2.671277-1.186637 2.671277-2.669933 0-1.483297-1.187235-2.669934-2.671277-2.669934zM53.7223404 134.485523c0-1.483296-1.187234-2.669933-2.6712766-2.669933-1.3356383 0-2.3744681.939421-2.5723404 2.224945 1.4345745.791091 2.918617 1.582182 4.3531915 2.422717.5441489-.494432.8904255-1.186637.8904255-1.977729zM60.4994681 141.2098c.6925532.444988 1.4345745.93942 2.1271276 1.433853-.3957446-.791092-1.187234-1.334967-2.1271276-1.433853zM118.426596 159.948775c-1.484043 0-2.671277 1.186637-2.671277 2.669933s1.187234 2.669933 2.671277 2.669933c1.484042 0 2.671276-1.186637 2.671276-2.669933s-1.187234-2.669933-2.671276-2.669933zM79.8909574 141.160356c-1.4840425 0-2.6712765 1.186637-2.6712765 2.669934 0 1.483296 1.187234 2.669933 2.6712765 2.669933 1.4840426 0 2.6712766-1.186637 2.6712766-2.669933 0-1.483297-1.187234-2.669934-2.6712766-2.669934zM137.372872 178.737194c-1.484042 0-2.671276 1.186637-2.671276 2.669933s1.187234 2.669933 2.671276 2.669933c1.484043 0 2.671277-1.186637 2.671277-2.669933s-1.187234-2.669933-2.671277-2.669933zM256.739362 122.371938c-.939894 0-1.780851.543875-2.226064 1.285523 1.137766-.395546 2.226064-.741648 3.314362-1.038307-.296809-.14833-.692554-.247216-1.088298-.247216zM227.503723 131.81559c-1.484042 0-2.671276 1.186637-2.671276 2.669933 0 .889978.445213 1.582183 1.088298 2.076615 1.434574-.840534 2.819681-1.582183 4.204787-2.373274-.098936-1.285523-1.236702-2.373274-2.621809-2.373274zM278.307447 103.979065c-.395745-.197773-.79149-.395546-1.28617-.395546-1.484043 0-2.671277 1.186637-2.671277 2.669933s1.187234 2.669933 2.671277 2.669933c.791489 0 1.434574-.346102 1.929255-.840534-.148404-1.433853-.395745-2.719377-.643085-4.103786zM214.493617 143.83029v.098886c1.236702-.889978 2.473404-1.730512 3.710106-2.571047-.346276-.148329-.692553-.197773-1.038829-.197773-1.484043 0-2.671277 1.186637-2.671277 2.669934zM176.601064 178.737194c-1.484043 0-2.671277 1.186637-2.671277 2.669933 0 1.186637.79149 2.175501 1.879787 2.521604.939894-1.433853 1.879788-2.818263 2.869149-4.15323-.544149-.593318-1.236702-1.038307-2.077659-1.038307zM184.268617 172.062361c0 .098886.049468.148329.049468.247216.742021-.939421 1.533511-1.928285 2.275532-2.818263-1.28617.14833-2.325 1.23608-2.325 2.571047zM155.626596 216.314031c-1.484043 0-2.671277 1.186637-2.671277 2.669933 0 .791092.346277 1.483297.890426 1.977729 2.127127-.444989 3.660638-.791092 3.660638-.791092.197872-.593318.445213-1.137193.692553-1.730512-.296808-1.186637-1.28617-2.126058-2.57234-2.126058zM22.5574468 103.583519c-1.4840425 0-2.6712766 1.186637-2.6712766 2.669933s1.1872341 2.669933 2.6712766 2.669933c1.4840426 0 2.6712766-1.186637 2.6712766-2.669933 0-1.433853-1.187234-2.669933-2.6712766-2.669933zM23.9425532 66.0561247c-1.4840426 0-2.6712766 1.186637-2.6712766 2.6699332s1.187234 2.6699332 2.6712766 2.6699332c1.4840425 0 2.6712766-1.186637 2.6712766-2.6699332s-1.1872341-2.6699332-2.6712766-2.6699332zM24.6351064 47.267706c-1.4840426 0-2.6712766 1.186637-2.6712766 2.6699332s1.187234 2.6699332 2.6712766 2.6699332c1.4840425 0 2.6712766-1.186637 2.6712766-2.6699332s-1.2367021-2.6699332-2.6712766-2.6699332zM25.2781915 28.4792873c-1.4840426 0-2.6712766 1.186637-2.6712766 2.6699332s1.187234 2.6699332 2.6712766 2.6699332c1.4840425 0 2.6712766-1.186637 2.6712766-2.6699332s-1.1872341-2.6699332-2.6712766-2.6699332zM23.25 84.7951002c-1.4840426 0-2.6712766 1.186637-2.6712766 2.6699332s1.187234 2.6699332 2.6712766 2.6699332c1.4840426 0 2.6712766-1.186637 2.6712766-2.6699332 0-1.433853-1.187234-2.6699332-2.6712766-2.6699332zM28.6420213 12.3608018c0-.5933185-.2473404-1.0877506-.544149-1.5327394-.4946808 1.3349666-.9398936 2.6699331-1.4345744 4.0543429 1.1377659-.2966592 1.9787234-1.2855233 1.9787234-2.5216035zM2.96808511 108.923385c1.48404255 0 2.67127659-1.186637 2.67127659-2.669933s-1.18723404-2.669933-2.67127659-2.669933c-1.28617022 0-2.325.939421-2.57234043 2.175501-.04946808.197773-.04946808.346102-.09893617.543875.04946809 1.483297 1.18723404 2.62049 2.6712766 2.62049zM6.33191489 87.5144766c0-.8405345-.39574468-1.5327394-.9893617-2.0271715-.54414893 1.5327394-1.08829787 3.1149221-1.58297872 4.6971047 1.43457447-.0988864 2.57234042-1.2360802 2.57234042-2.6699332zM14.2468085 61.9523385c1.4840426 0 2.6712766-1.1866369 2.6712766-2.6699332 0-1.4832962-1.187234-2.6699331-2.6712766-2.6699331-.2473404 0-.4946808.0988864-.7420213.1483296-.3957446 1.433853-.8409574 2.867706-1.2367021 4.301559.4946809.4944321 1.187234.8899777 1.9787234.8899777zM21.8648936 122.371938c-.2968085 0-.593617.098886-.8904255.197772.9893617.29666 1.9787234.642762 3.0175532.939421-.4452128-.642761-1.1872341-1.137193-2.1271277-1.137193zM13.5542553 75.3514477c-1.4840425 0-2.6712766 1.1866369-2.6712766 2.6699331 0 1.4832963 1.1872341 2.6699332 2.6712766 2.6699332 1.4840426 0 2.6712766-1.1866369 2.6712766-2.6699332 0-1.433853-1.187234-2.6699331-2.6712766-2.6699331zM12.8617021 94.1398664c-1.4840425 0-2.6712766 1.1866369-2.6712766 2.6699332 0 1.4832962 1.1872341 2.6699331 2.6712766 2.6699331 1.4840426 0 2.6712766-1.1866369 2.6712766-2.6699331 0-1.4338531-1.187234-2.6699332-2.6712766-2.6699332zM12.218617 112.928285c-1.4840425 0-2.67127657 1.186637-2.67127657 2.669933s1.18723407 2.669933 2.67127657 2.669933c1.4840426 0 2.6712766-1.186637 2.6712766-2.669933s-1.187234-2.669933-2.6712766-2.669933zM129.853723 112.928285c-1.484042 0-2.671276 1.186637-2.671276 2.669933s1.187234 2.669933 2.671276 2.669933c1.484043 0 2.671277-1.186637 2.671277-2.669933s-1.187234-2.669933-2.671277-2.669933zM82.7601064 66.0561247c-1.4840426 0-2.6712766 1.186637-2.6712766 2.6699332s1.187234 2.6699332 2.6712766 2.6699332c1.4840425 0 2.6712766-1.186637 2.6712766-2.6699332s-1.1872341-2.6699332-2.6712766-2.6699332zM82.0675532 84.7951002c-1.4840426 0-2.6712766 1.186637-2.6712766 2.6699332s1.187234 2.6699332 2.6712766 2.6699332c1.4840425 0 2.6712766-1.186637 2.6712766-2.6699332 0-1.433853-1.1872341-2.6699332-2.6712766-2.6699332zM83.4526596 47.267706c-1.4840426 0-2.6712766 1.186637-2.6712766 2.6699332s1.187234 2.6699332 2.6712766 2.6699332c1.4840425 0 2.6712766-1.186637 2.6712766-2.6699332s-1.1872341-2.6699332-2.6712766-2.6699332zM140.192553 103.583519c-1.484042 0-2.671276 1.186637-2.671276 2.669933s1.187234 2.669933 2.671276 2.669933c1.484043 0 2.671277-1.186637 2.671277-2.669933.049468-1.433853-1.187234-2.669933-2.671277-2.669933zM140.885106 84.7951002c-1.484042 0-2.671276 1.186637-2.671276 2.6699332s1.187234 2.6699332 2.671276 2.6699332c1.484043 0 2.671277-1.186637 2.671277-2.6699332 0-1.433853-1.187234-2.6699332-2.671277-2.6699332zM81.375 103.583519c-1.4840426 0-2.6712766 1.186637-2.6712766 2.669933s1.187234 2.669933 2.6712766 2.669933c1.4840426 0 2.6712766-1.186637 2.6712766-2.669933 0-1.433853-1.187234-2.669933-2.6712766-2.669933zM80.7319149 122.371938h-.0494681-.0494681c-1.4840425 0-2.6712766 1.186637-2.6712766 2.669933s1.1872341 2.669933 2.6712766 2.669933h.0989362c1.4840425 0 2.6712766-1.186637 2.6712766-2.669933s-1.2367021-2.669933-2.6712766-2.669933zM84.1452128 28.4792873c-1.4840426 0-2.6712766 1.186637-2.6712766 2.6699332s1.187234 2.6699332 2.6712766 2.6699332c1.4840425 0 2.6712766-1.186637 2.6712766-2.6699332s-1.2367022-2.6699332-2.6712766-2.6699332zM91.3180851 94.1398664c-1.4840425 0-2.6712766 1.1866369-2.6712766 2.6699332 0 1.4832962 1.1872341 2.6699331 2.6712766 2.6699331 1.4840426 0 2.6712766-1.1866369 2.6712766-2.6699331 0-1.4338531-1.187234-2.6699332-2.6712766-2.6699332zM84.7882979 9.6908686c-1.4840426 0-2.6712766 1.186637-2.6712766 2.6699332s1.187234 2.6699332 2.6712766 2.6699332c1.4840425 0 2.6712766-1.186637 2.6712766-2.6699332s-1.1872341-2.6699332-2.6712766-2.6699332zM92.0106383 75.3514477c-1.4840426 0-2.6712766 1.1866369-2.6712766 2.6699331 0 1.4832963 1.187234 2.6699332 2.6712766 2.6699332 1.4840426 0 2.6712766-1.1866369 2.6712766-2.6699332 0-1.433853-1.187234-2.6699331-2.6712766-2.6699331zM90.6255319 112.928285c-1.4840425 0-2.6712766 1.186637-2.6712766 2.669933s1.1872341 2.669933 2.6712766 2.669933c1.4840426 0 2.6712766-1.186637 2.6712766-2.669933s-1.187234-2.669933-2.6712766-2.669933zM90.2792553 131.81559c-1.4840425 0-2.6712766 1.186637-2.6712766 2.669933 0 1.483297 1.1872341 2.669934 2.6712766 2.669934 1.4840426 0 2.6712766-1.186637 2.6712766-2.669934 0-1.483296-1.187234-2.669933-2.6712766-2.669933zM89.5867021 155.943875c1.4840426 0 2.6712766-1.186637 2.6712766-2.669933s-1.187234-2.669933-2.6712766-2.669933c-1.4840425 0-2.6712766 1.186637-2.6712766 2.669933s1.1872341 2.669933 2.6712766 2.669933zM128.12234 169.392428c-1.484042 0-2.671276 1.186637-2.671276 2.669933s1.187234 2.669933 2.671276 2.669933c1.484043 0 2.671277-1.186637 2.671277-2.669933s-1.187234-2.669933-2.671277-2.669933zM128.814894 150.604009c-1.484043 0-2.671277 1.186637-2.671277 2.669933s1.187234 2.669933 2.671277 2.669933c1.484042 0 2.671276-1.186637 2.671276-2.669933s-1.187234-2.669933-2.671276-2.669933zM129.507447 131.81559c-1.484043 0-2.671277 1.186637-2.671277 2.669933 0 1.483297 1.187234 2.669934 2.671277 2.669934 1.484042 0 2.671276-1.186637 2.671276-2.669934 0-1.483296-1.236702-2.669933-2.671276-2.669933zM92.7031915 56.6124722c-1.4840426 0-2.6712766 1.1866369-2.6712766 2.6699331 0 1.4832963 1.187234 2.6699332 2.6712766 2.6699332 1.4840425 0 2.6712766-1.1866369 2.6712766-2.6699332 0-1.4832962-1.2367021-2.6699331-2.6712766-2.6699331zM127.429787 188.180846c-1.484042 0-2.671276 1.186637-2.671276 2.669934 0 1.483296 1.187234 2.669933 2.671276 2.669933 1.484043 0 2.671277-1.186637 2.671277-2.669933 0-1.483297-1.187234-2.669934-2.671277-2.669934zM122.631383 52.6075724c1.484043 0 2.671277-1.186637 2.671277-2.6699332s-1.187234-2.6699332-2.671277-2.6699332-2.671277 1.186637-2.671277 2.6699332c0 1.433853 1.236703 2.6699332 2.671277 2.6699332zM126.737234 212.309131c1.484043 0 2.671277-1.186637 2.671277-2.669933s-1.187234-2.669933-2.671277-2.669933-2.671277 1.186637-2.671277 2.669933 1.236703 2.669933 2.671277 2.669933zM130.546277 94.1398664c-1.484043 0-2.671277 1.1866369-2.671277 2.6699332 0 1.4832962 1.187234 2.6699331 2.671277 2.6699331 1.484042 0 2.671276-1.1866369 2.671276-2.6699331 0-1.4338531-1.187234-2.6699332-2.671276-2.6699332zM138.065426 165.288641c1.484042 0 2.671276-1.186637 2.671276-2.669933s-1.187234-2.669933-2.671276-2.669933c-1.484043 0-2.671277 1.186637-2.671277 2.669933s1.187234 2.669933 2.671277 2.669933zM138.708511 141.160356c-1.484043 0-2.671277 1.186637-2.671277 2.669934 0 1.483296 1.187234 2.669933 2.671277 2.669933 1.484042 0 2.671276-1.186637 2.671276-2.669933 0-1.483297-1.187234-2.669934-2.671276-2.669934zM133.267021 19.0356347c-1.484042 0-2.671276 1.186637-2.671276 2.6699332s1.187234 2.6699332 2.671276 2.6699332c1.484043 0 2.671277-1.186637 2.671277-2.6699332s-1.187234-2.6699332-2.671277-2.6699332zM132.574468 37.8240535c-1.484042 0-2.671277 1.1866369-2.671277 2.6699331 0 1.4832963 1.187235 2.6699332 2.671277 2.6699332 1.484043 0 2.671277-1.1866369 2.671277-2.6699332 0-1.4832962-1.187234-2.6699331-2.671277-2.6699331zM142.220745 125.041871c0-1.483296-1.187234-2.669933-2.671277-2.669933H139.5h-.049468c-1.484043 0-2.671277 1.186637-2.671277 2.669933s1.187234 2.669933 2.671277 2.669933h.098936c1.484043 0 2.671277-1.186637 2.671277-2.669933zM131.881915 56.6124722c-1.484043 0-2.671277 1.1866369-2.671277 2.6699331 0 1.4832963 1.187234 2.6699332 2.671277 2.6699332 1.484042 0 2.671276-1.1866369 2.671276-2.6699332 0-1.4832962-1.187234-2.6699331-2.671276-2.6699331zM93.3462766 37.8240535c-1.4840426 0-2.6712766 1.1866369-2.6712766 2.6699331 0 1.4832963 1.187234 2.6699332 2.6712766 2.6699332 1.4840425 0 2.6712766-1.1866369 2.6712766-2.6699332 0-1.4832962-1.1872341-2.6699331-2.6712766-2.6699331zM110.264362 112.928285c-1.484043 0-2.671277 1.186637-2.671277 2.669933s1.187234 2.669933 2.671277 2.669933c1.484042 0 2.671276-1.186637 2.671276-2.669933s-1.236702-2.669933-2.671276-2.669933zM117.090957 202.865479c1.484043 0 2.671277-1.186637 2.671277-2.669933 0-1.483297-1.187234-2.669934-2.671277-2.669934-1.484042 0-2.671276 1.186637-2.671276 2.669934 0 1.483296 1.187234 2.669933 2.671276 2.669933zM112.985106 37.8240535c-1.484042 0-2.671276 1.1866369-2.671276 2.6699331 0 1.4832963 1.187234 2.6699332 2.671276 2.6699332 1.484043 0 2.671277-1.1866369 2.671277-2.6699332 0-1.4832962-1.187234-2.6699331-2.671277-2.6699331zM110.907447 94.1398664c-1.484043 0-2.671277 1.1866369-2.671277 2.6699332 0 1.4832962 1.187234 2.6699331 2.671277 2.6699331 1.484042 0 2.671276-1.1866369 2.671276-2.6699331 0-1.4338531-1.187234-2.6699332-2.671276-2.6699332zM112.292553 56.6124722c-1.484042 0-2.671276 1.1866369-2.671276 2.6699331 0 1.4832963 1.187234 2.6699332 2.671276 2.6699332 1.484043 0 2.671277-1.1866369 2.671277-2.6699332 0-1.4832962-1.187234-2.6699331-2.671277-2.6699331zM113.67766 19.0356347c-1.484043 0-2.671277 1.186637-2.671277 2.6699332s1.187234 2.6699332 2.671277 2.6699332c1.484042 0 2.671276-1.186637 2.671276-2.6699332s-1.236702-2.6699332-2.671276-2.6699332zM111.6 75.3514477c-1.484043 0-2.671277 1.1866369-2.671277 2.6699331 0 1.4832963 1.187234 2.6699332 2.671277 2.6699332s2.671277-1.1866369 2.671277-2.6699332c0-1.433853-1.187234-2.6699331-2.671277-2.6699331zM73.0643617 56.6124722c-1.4840426 0-2.6712766 1.1866369-2.6712766 2.6699331 0 1.4832963 1.187234 2.6699332 2.6712766 2.6699332 1.4840426 0 2.6712766-1.1866369 2.6712766-2.6699332 0-1.4832962-1.187234-2.6699331-2.6712766-2.6699331zM94.731383 5.58708241c1.0388298 0 1.9292553-.59331849 2.3744681-1.48329622-1.6324468-.14832962-3.2648937-.34610245-4.8973405-.49443207.2968085 1.13719376 1.2861703 1.97772829 2.5228724 1.97772829zM70.6404255 131.81559c-1.4840425 0-2.6712766 1.186637-2.6712766 2.669933 0 1.483297 1.1872341 2.669934 2.6712766 2.669934 1.4840426 0 2.6712766-1.186637 2.6712766-2.669934 0-1.483296-1.187234-2.669933-2.6712766-2.669933zM72.3718085 75.3514477c-1.4840425 0-2.6712766 1.1866369-2.6712766 2.6699331 0 1.4832963 1.1872341 2.6699332 2.6712766 2.6699332 1.4840426 0 2.6712766-1.1866369 2.6712766-2.6699332 0-1.433853-1.187234-2.6699331-2.6712766-2.6699331zM71.7287234 94.1398664c-1.4840425 0-2.6712766 1.1866369-2.6712766 2.6699332 0 1.4832962 1.1872341 2.6699331 2.6712766 2.6699331 1.4840426 0 2.6712766-1.1866369 2.6712766-2.6699331 0-1.4338531-1.187234-2.6699332-2.6712766-2.6699332zM71.0361702 112.928285c-1.4840425 0-2.6712766 1.186637-2.6712766 2.669933s1.1872341 2.669933 2.6712766 2.669933c1.4840426 0 2.6712766-1.186637 2.6712766-2.669933s-1.187234-2.669933-2.6712766-2.669933zM72.4212766 2.91714922c0 1.48329621 1.187234 2.66993319 2.6712766 2.66993319 1.4840425 0 2.6712766-1.18663698 2.6712766-2.66993319 0-.34610245-.0989362-.6922049-.1978724-1.03830735-1.5335106-.19777283-3.0670212-.39554566-4.5510638-.59331848-.3462766.49443207-.593617.98886414-.593617 1.63162583zM117.783511 178.737194c-1.484043 0-2.671277 1.186637-2.671277 2.669933s1.187234 2.669933 2.671277 2.669933c1.484042 0 2.671276-1.186637 2.671276-2.669933s-1.236702-2.669933-2.671276-2.669933zM102.992553 125.041871c0-1.483296-1.187234-2.669933-2.671276-2.669933h-.049468-.049469c-1.4840421 0-2.6712762 1.186637-2.6712762 2.669933s1.1872341 2.669933 2.6712762 2.669933h.098937c1.484042 0 2.671276-1.186637 2.671276-2.669933zM101.01383 103.583519c-1.4840428 0-2.6712768 1.186637-2.6712768 2.669933s1.187234 2.669933 2.6712768 2.669933c1.484042 0 2.671276-1.186637 2.671276-2.669933 0-1.433853-1.187234-2.669933-2.671276-2.669933zM99.5297872 141.160356c-1.4840425 0-2.6712766 1.186637-2.6712766 2.669934 0 1.483296 1.1872341 2.669933 2.6712766 2.669933 1.4840428 0 2.6712768-1.186637 2.6712768-2.669933 0-1.483297-1.187234-2.669934-2.6712768-2.669934zM101.706383 84.7951002c-1.484043 0-2.6712766 1.186637-2.6712766 2.6699332s1.1872336 2.6699332 2.6712766 2.6699332c1.484043 0 2.671277-1.186637 2.671277-2.6699332 0-1.433853-1.236703-2.6699332-2.671277-2.6699332zM98.837234 165.288641c1.484043 0 2.671277-1.186637 2.671277-2.669933s-1.187234-2.669933-2.671277-2.669933c-1.4840425 0-2.6712766 1.186637-2.6712766 2.669933s1.1872341 2.669933 2.6712766 2.669933zM94.0388298 19.0356347c-1.4840426 0-2.6712766 1.186637-2.6712766 2.6699332s1.187234 2.6699332 2.6712766 2.6699332c1.4840425 0 2.6712766-1.186637 2.6712766-2.6699332s-1.1872341-2.6699332-2.6712766-2.6699332zM108.532979 174.732294c1.484042 0 2.671276-1.186637 2.671276-2.669933s-1.187234-2.669933-2.671276-2.669933c-1.484043 0-2.671277 1.186637-2.671277 2.669933s1.187234 2.669933 2.671277 2.669933zM104.427128 15.030735c1.484042 0 2.671276-1.186637 2.671276-2.6699332s-1.187234-2.6699332-2.671276-2.6699332c-1.484043 0-2.671277 1.186637-2.671277 2.6699332s1.187234 2.6699332 2.671277 2.6699332zM109.868617 131.81559c-1.484043 0-2.671277 1.186637-2.671277 2.669933 0 1.483297 1.187234 2.669934 2.671277 2.669934s2.671277-1.186637 2.671277-2.669934c0-1.483296-1.187234-2.669933-2.671277-2.669933zM109.176064 150.604009c-1.484043 0-2.671277 1.186637-2.671277 2.669933s1.187234 2.669933 2.671277 2.669933c1.484042 0 2.671276-1.186637 2.671276-2.669933s-1.187234-2.669933-2.671276-2.669933zM102.349468 66.0561247c-1.484042 0-2.6712765 1.186637-2.6712765 2.6699332s1.1872345 2.6699332 2.6712765 2.6699332c1.484043 0 2.671277-1.186637 2.671277-2.6699332s-1.187234-2.6699332-2.671277-2.6699332zM103.042021 47.267706c-1.484042 0-2.671276 1.186637-2.671276 2.6699332s1.187234 2.6699332 2.671276 2.6699332c1.484043 0 2.671277-1.186637 2.671277-2.6699332s-1.187234-2.6699332-2.671277-2.6699332zM103.734574 28.4792873c-1.484042 0-2.671276 1.186637-2.671276 2.6699332s1.187234 2.6699332 2.671276 2.6699332c1.484043 0 2.671277-1.186637 2.671277-2.6699332s-1.187234-2.6699332-2.671277-2.6699332z"/></g><g fill="#FFE2C0"><path d="M161.99821138 64.98684537l-.93403388-2.25612072c-.3143982-.86380193.08403559-1.83655602.94783752-2.15095421l24.75393518-10.13842657c.86380193-.31439819 1.83655602.0840356 2.15095421.94783753l1.4933304 3.89614737c.3143982.86380193-.0840356 1.83655602-.94783752 2.15095421l-25.3132317 8.49839992c-.86380193.31439819-1.8154251-.12935099-2.15095421-.94783753z"/><path d="M176.95228987 71.9600467l2.32867414-.73469499c.86380194-.31439819 1.30755111-1.26602136 1.0384683-2.10869238l-8.14503748-25.47946947c-.3143982-.86380193-1.24489046-1.3528665-2.10869239-1.0384683l-3.94451632 1.3604378c-.86380193.31439819-1.3075511 1.26602136-1.0384683 2.10869238l9.76087966 24.85372665c.3143982.86380193 1.26602137 1.3075511 2.10869239 1.0384683z"/></g><g fill="#FF2E3B"><path d="M161.99821138 64.98684537l-.93403388-2.25612072c-.3143982-.86380193.08403559-1.83655602.94783752-2.15095421l24.75393518-10.13842657c.86380193-.31439819 1.83655602.0840356 2.15095421.94783753l1.4933304 3.89614737c.3143982.86380193-.0840356 1.83655602-.94783752 2.15095421l-25.3132317 8.49839992c-.86380193.31439819-1.8154251-.12935099-2.15095421-.94783753z"/><path d="M176.95228987 71.9600467l2.32867414-.73469499c.86380194-.31439819 1.30755111-1.26602136 1.0384683-2.10869238l-8.14503748-25.47946947c-.3143982-.86380193-1.24489046-1.3528665-2.10869239-1.0384683l-3.94451632 1.3604378c-.86380193.31439819-1.3075511 1.26602136-1.0384683 2.10869238l9.76087966 24.85372665c.3143982.86380193 1.26602137 1.3075511 2.10869239 1.0384683z"/></g></g></svg>