<svg width="24px" height="24px" viewBox="0 0 24 24" xmlns="http://www.w3.org/2000/svg"><path d="M24 12c0-6.63226317-5.3670044-12-12-12C5.36773683 0 0 5.36700441 0 12c0 6.5734863 5.32214353 12 12 12 6.6503906 0 12-5.3963013 12-12zM12 1.40625c5.8414307 0 10.59375 4.75231931 10.59375 10.59375 0 2.1368408-.6355591 4.1907349-1.814209 5.9304199-4.7329101-5.0910644-12.81756589-5.1002197-17.55908202 0C2.04180909 16.1907349 1.40625 14.1368408 1.40625 12 1.40625 6.15856931 6.15856931 1.40625 12 1.40625zM4.09753416 19.0546875c4.2081299-4.7200928 11.59790044-4.7189941 15.80474854 0-4.222229 4.7237549-11.58068845 4.7252198-15.80474854 0z" fill-rule="nonzero"/><path d="M11.5 13c2.48125 0 4.5-1.922619 4.5-4.28571429V7.28571429C16 4.92261905 13.98125 3 11.5 3S7 4.92261905 7 7.28571429v1.42857142C7 11.077381 9.01875 13 11.5 13zm-3-5.71428571c0-1.57552086 1.3457031-2.85714286 3-2.85714286s3 1.281622 3 2.85714286v1.42857142c0 1.57552089-1.3457031 2.85714289-3 2.85714289s-3-1.281622-3-2.85714289V7.28571429z" fill-rule="nonzero"/><circle opacity="0" cx="12.5" cy="11.5" r="11.5"/></svg>